{
	"patcher" : 	{
		"fileversion" : 1,
		"appversion" : 		{
			"major" : 6,
			"minor" : 1,
			"revision" : 1,
			"architecture" : "x86"
		}
,
		"rect" : [ 243.0, 96.0, 1075.0, 703.0 ],
		"bglocked" : 0,
		"openinpresentation" : 1,
		"default_fontsize" : 12.0,
		"default_fontface" : 0,
		"default_fontname" : "Arial",
		"gridonopen" : 0,
		"gridsize" : [ 15.0, 15.0 ],
		"gridsnaponopen" : 0,
		"statusbarvisible" : 2,
		"toolbarvisible" : 1,
		"boxanimatetime" : 200,
		"imprint" : 0,
		"enablehscroll" : 1,
		"enablevscroll" : 1,
		"devicewidth" : 0.0,
		"description" : "",
		"digest" : "",
		"tags" : "",
		"boxes" : [ 			{
				"box" : 				{
					"color" : [ 0.831373, 0.54902, 0.839216, 1.0 ],
					"fontname" : "Arial",
					"fontsize" : 12.0,
					"id" : "obj-17",
					"linecount" : 2,
					"maxclass" : "newobj",
					"numinlets" : 1,
					"numoutlets" : 2,
					"outlettype" : [ "", "" ],
					"patching_rect" : [ 529.0, 167.0, 436.0, 33.0 ],
					"text" : "jcom.return currentFrame @type generic @repetitions/allow 1 @description \"currentframe in movie\"",
					"varname" : "loopnotify[1]"
				}

			}
, 			{
				"box" : 				{
					"comment" : "video out",
					"id" : "obj-28",
					"maxclass" : "outlet",
					"numinlets" : 1,
					"numoutlets" : 0,
					"patching_rect" : [ 455.0, 325.0, 25.0, 25.0 ]
				}

			}
, 			{
				"box" : 				{
					"comment" : "OSC messages",
					"id" : "obj-27",
					"maxclass" : "outlet",
					"numinlets" : 1,
					"numoutlets" : 0,
					"patching_rect" : [ 64.0, 324.0, 25.0, 25.0 ]
				}

			}
, 			{
				"box" : 				{
					"comment" : "OSC messages",
					"id" : "obj-25",
					"maxclass" : "inlet",
					"numinlets" : 0,
					"numoutlets" : 1,
					"outlettype" : [ "" ],
					"patching_rect" : [ 64.0, 204.5, 25.0, 25.0 ]
				}

			}
, 			{
				"box" : 				{
					"color" : [ 0.831373, 0.54902, 0.839216, 1.0 ],
					"fontname" : "Arial",
					"fontsize" : 12.0,
					"id" : "obj-3",
					"maxclass" : "newobj",
					"numinlets" : 1,
					"numoutlets" : 2,
					"outlettype" : [ "", "" ],
					"patching_rect" : [ 455.0, 294.0, 66.0, 20.0 ],
					"text" : "jcom.out 1"
				}

			}
, 			{
				"box" : 				{
					"fontname" : "Arial",
					"fontsize" : 12.0,
					"id" : "obj-12",
					"maxclass" : "newobj",
					"numinlets" : 1,
					"numoutlets" : 2,
					"outlettype" : [ "front", "" ],
					"patcher" : 					{
						"fileversion" : 1,
						"appversion" : 						{
							"major" : 6,
							"minor" : 1,
							"revision" : 1,
							"architecture" : "x86"
						}
,
						"rect" : [ 25.0, 69.0, 640.0, 480.0 ],
						"bglocked" : 0,
						"openinpresentation" : 0,
						"default_fontsize" : 12.0,
						"default_fontface" : 0,
						"default_fontname" : "Arial",
						"gridonopen" : 0,
						"gridsize" : [ 15.0, 15.0 ],
						"gridsnaponopen" : 0,
						"statusbarvisible" : 2,
						"toolbarvisible" : 1,
						"boxanimatetime" : 200,
						"imprint" : 0,
						"enablehscroll" : 1,
						"enablevscroll" : 1,
						"devicewidth" : 0.0,
						"description" : "",
						"digest" : "",
						"tags" : "",
						"boxes" : [ 							{
								"box" : 								{
									"id" : "obj-73",
									"maxclass" : "toggle",
									"numinlets" : 1,
									"numoutlets" : 1,
									"outlettype" : [ "int" ],
									"parameter_enable" : 0,
									"patching_rect" : [ 110.0, 100.0, 20.0, 20.0 ]
								}

							}
, 							{
								"box" : 								{
									"fontname" : "Arial",
									"fontsize" : 12.0,
									"id" : "obj-38",
									"maxclass" : "newobj",
									"numinlets" : 1,
									"numoutlets" : 2,
									"outlettype" : [ "front", "open" ],
									"patching_rect" : [ 50.0, 239.862793, 71.0, 20.0 ],
									"text" : "t front open"
								}

							}
, 							{
								"box" : 								{
									"fontname" : "Arial",
									"fontsize" : 12.0,
									"id" : "obj-46",
									"maxclass" : "newobj",
									"numinlets" : 3,
									"numoutlets" : 3,
									"outlettype" : [ "bang", "bang", "" ],
									"patching_rect" : [ 80.5, 136.0, 46.0, 20.0 ],
									"text" : "sel 0 1"
								}

							}
, 							{
								"box" : 								{
									"fontname" : "Arial",
									"fontsize" : 13.0,
									"id" : "obj-60",
									"maxclass" : "message",
									"numinlets" : 2,
									"numoutlets" : 1,
									"outlettype" : [ "" ],
									"patching_rect" : [ 64.0, 206.0, 43.0, 19.0 ],
									"text" : "close"
								}

							}
, 							{
								"box" : 								{
									"fontname" : "Arial",
									"fontsize" : 13.0,
									"id" : "obj-62",
									"maxclass" : "message",
									"numinlets" : 2,
									"numoutlets" : 1,
									"outlettype" : [ "" ],
									"patching_rect" : [ 110.0, 206.0, 40.0, 19.0 ],
									"text" : "open"
								}

							}
, 							{
								"box" : 								{
									"comment" : "",
									"id" : "obj-9",
									"maxclass" : "inlet",
									"numinlets" : 0,
									"numoutlets" : 1,
									"outlettype" : [ "" ],
									"patching_rect" : [ 110.0, 40.0, 25.0, 25.0 ]
								}

							}
, 							{
								"box" : 								{
									"comment" : "",
									"id" : "obj-10",
									"maxclass" : "outlet",
									"numinlets" : 1,
									"numoutlets" : 0,
									"patching_rect" : [ 50.0, 319.862793, 25.0, 25.0 ]
								}

							}
, 							{
								"box" : 								{
									"comment" : "",
									"id" : "obj-11",
									"maxclass" : "outlet",
									"numinlets" : 1,
									"numoutlets" : 0,
									"patching_rect" : [ 52.0, 319.862793, 25.0, 25.0 ]
								}

							}
 ],
						"lines" : [ 							{
								"patchline" : 								{
									"destination" : [ "obj-10", 0 ],
									"disabled" : 0,
									"hidden" : 0,
									"source" : [ "obj-38", 0 ]
								}

							}
, 							{
								"patchline" : 								{
									"destination" : [ "obj-11", 0 ],
									"disabled" : 0,
									"hidden" : 0,
									"source" : [ "obj-38", 1 ]
								}

							}
, 							{
								"patchline" : 								{
									"destination" : [ "obj-60", 0 ],
									"disabled" : 0,
									"hidden" : 0,
									"source" : [ "obj-46", 0 ]
								}

							}
, 							{
								"patchline" : 								{
									"destination" : [ "obj-62", 0 ],
									"disabled" : 0,
									"hidden" : 0,
									"source" : [ "obj-46", 1 ]
								}

							}
, 							{
								"patchline" : 								{
									"destination" : [ "obj-11", 0 ],
									"disabled" : 0,
									"hidden" : 0,
									"source" : [ "obj-60", 0 ]
								}

							}
, 							{
								"patchline" : 								{
									"destination" : [ "obj-38", 0 ],
									"disabled" : 0,
									"hidden" : 0,
									"source" : [ "obj-62", 0 ]
								}

							}
, 							{
								"patchline" : 								{
									"destination" : [ "obj-46", 0 ],
									"disabled" : 0,
									"hidden" : 0,
									"source" : [ "obj-73", 0 ]
								}

							}
, 							{
								"patchline" : 								{
									"destination" : [ "obj-73", 0 ],
									"disabled" : 0,
									"hidden" : 0,
									"source" : [ "obj-9", 0 ]
								}

							}
 ]
					}
,
					"patching_rect" : [ 723.833252, 371.0, 79.0, 20.0 ],
					"saved_object_attributes" : 					{
						"default_fontface" : 0,
						"default_fontname" : "Arial",
						"default_fontsize" : 12.0,
						"description" : "",
						"digest" : "",
						"fontface" : 0,
						"fontname" : "Arial",
						"fontsize" : 12.0,
						"globalpatchername" : "",
						"tags" : ""
					}
,
					"text" : "p open/close"
				}

			}
, 			{
				"box" : 				{
					"id" : "obj-4",
					"maxclass" : "toggle",
					"numinlets" : 1,
					"numoutlets" : 1,
					"outlettype" : [ "int" ],
					"parameter_enable" : 0,
					"patching_rect" : [ 552.333313, 299.0, 20.0, 20.0 ]
				}

			}
, 			{
				"box" : 				{
					"color" : [ 0.831373, 0.54902, 0.839216, 1.0 ],
					"fontname" : "Arial",
					"fontsize" : 12.0,
					"id" : "obj-7",
					"maxclass" : "newobj",
					"numinlets" : 1,
					"numoutlets" : 3,
					"outlettype" : [ "", "", "" ],
					"patching_rect" : [ 552.333313, 331.0, 362.0, 20.0 ],
					"text" : "jcom.message showPanel @type boolean @range/clipmode none",
					"varname" : "showPanel[1]"
				}

			}
, 			{
				"box" : 				{
					"color" : [ 0.883534, 0.534402, 0.859963, 1.0 ],
					"fontname" : "Arial",
					"fontsize" : 12.0,
					"id" : "obj-9",
					"maxclass" : "newobj",
					"numinlets" : 1,
					"numoutlets" : 3,
					"outlettype" : [ "", "", "" ],
					"patching_rect" : [ 138.0, 314.0, 259.0, 20.0 ],
					"text" : "jcom.pass /view/panel /module_name @strip 0"
				}

			}
, 			{
				"box" : 				{
					"color" : [ 0.883534, 0.534402, 0.859963, 1.0 ],
					"fontname" : "Arial",
					"fontsize" : 12.0,
					"id" : "obj-10",
					"maxclass" : "newobj",
					"numinlets" : 0,
					"numoutlets" : 1,
					"outlettype" : [ "" ],
					"patching_rect" : [ 104.0, 207.0, 130.0, 20.0 ],
					"text" : "jcom.parameterCreate"
				}

			}
, 			{
				"box" : 				{
					"color" : [ 0.883534, 0.534402, 0.859963, 1.0 ],
					"fontname" : "Arial",
					"fontsize" : 12.0,
					"id" : "obj-11",
					"maxclass" : "newobj",
					"numinlets" : 1,
					"numoutlets" : 2,
					"outlettype" : [ "", "" ],
					"patching_rect" : [ 64.0, 263.0, 344.0, 20.0 ],
					"text" : "jcom.hub @module_type video @description \"Plays videofiles\""
				}

			}
, 			{
				"box" : 				{
					"color" : [ 0.883534, 0.534402, 0.859963, 1.0 ],
					"fontname" : "Arial",
					"fontsize" : 12.0,
					"id" : "obj-19",
					"maxclass" : "newobj",
					"numinlets" : 1,
					"numoutlets" : 2,
					"outlettype" : [ "", "" ],
					"patching_rect" : [ 240.0, 180.0, 55.0, 20.0 ],
					"text" : "jcom.init"
				}

			}
, 			{
				"box" : 				{
					"fontname" : "Arial",
					"fontsize" : 12.0,
					"id" : "obj-20",
					"maxclass" : "message",
					"numinlets" : 2,
					"numoutlets" : 1,
					"outlettype" : [ "" ],
					"patching_rect" : [ 240.0, 207.0, 110.0, 18.0 ],
					"text" : "module_name:/get"
				}

			}
, 			{
				"box" : 				{
					"fontname" : "Arial",
					"fontsize" : 12.0,
					"id" : "obj-23",
					"maxclass" : "newobj",
					"numinlets" : 1,
					"numoutlets" : 1,
					"outlettype" : [ "" ],
					"patching_rect" : [ 783.833252, 409.0, 53.0, 20.0 ],
					"text" : "pcontrol"
				}

			}
, 			{
				"box" : 				{
					"fontface" : 1,
					"fontname" : "Arial",
					"fontsize" : 10.426503,
					"frgb" : 0.0,
					"id" : "obj-43",
					"maxclass" : "comment",
					"numinlets" : 1,
					"numoutlets" : 0,
					"patching_rect" : [ 109.0, 52.0, 97.0, 18.0 ],
					"presentation" : 1,
					"presentation_rect" : [ 4.0, 17.684937, 93.0, 18.0 ],
					"text" : "gl.hap%",
					"textcolor" : [ 0.258824, 0.258824, 0.258824, 1.0 ]
				}

			}
, 			{
				"box" : 				{
					"fontname" : "Arial",
					"fontsize" : 12.0,
					"id" : "obj-103",
					"maxclass" : "newobj",
					"numinlets" : 1,
					"numoutlets" : 0,
					"patcher" : 					{
						"fileversion" : 1,
						"appversion" : 						{
							"major" : 6,
							"minor" : 1,
							"revision" : 1,
							"architecture" : "x86"
						}
,
						"rect" : [ 94.0, 335.0, 251.0, 236.0 ],
						"bglocked" : 0,
						"openinpresentation" : 1,
						"default_fontsize" : 12.0,
						"default_fontface" : 0,
						"default_fontname" : "Arial",
						"gridonopen" : 0,
						"gridsize" : [ 15.0, 15.0 ],
						"gridsnaponopen" : 0,
						"statusbarvisible" : 2,
						"toolbarvisible" : 0,
						"boxanimatetime" : 200,
						"imprint" : 0,
						"enablehscroll" : 1,
						"enablevscroll" : 1,
						"devicewidth" : 0.0,
						"description" : "",
						"digest" : "",
						"tags" : "",
						"title" : "/editing_this_module",
						"visible" : 1,
						"boxes" : [ 							{
								"box" : 								{
									"fontface" : 1,
									"fontname" : "Arial",
									"fontsize" : 10.426503,
									"frgb" : 0.0,
									"id" : "obj-41",
									"maxclass" : "comment",
									"numinlets" : 1,
									"numoutlets" : 0,
									"patching_rect" : [ 42.0, 307.5, 153.0, 18.0 ],
									"presentation" : 1,
									"presentation_rect" : [ 168.0, 215.0, 68.0, 18.0 ],
									"text" : "Flip texture:",
									"textcolor" : [ 0.258824, 0.258824, 0.258824, 1.0 ]
								}

							}
, 							{
								"box" : 								{
									"fontface" : 1,
									"fontname" : "Arial",
									"fontsize" : 10.426503,
									"frgb" : 0.0,
									"id" : "obj-39",
									"maxclass" : "comment",
									"numinlets" : 1,
									"numoutlets" : 0,
									"patching_rect" : [ 39.0, 318.5, 153.0, 18.0 ],
									"presentation" : 1,
									"presentation_rect" : [ 75.0, 214.5, 73.0, 18.0 ],
									"text" : "Loop report:",
									"textcolor" : [ 0.258824, 0.258824, 0.258824, 1.0 ]
								}

							}
, 							{
								"box" : 								{
									"annotation" : "",
									"bgcolor" : [ 1.0, 1.0, 1.0, 0.0 ],
									"disabled" : [ 0 ],
									"id" : "obj-37",
									"itemtype" : 1,
									"maxclass" : "radiogroup",
									"numinlets" : 1,
									"numoutlets" : 1,
									"outlettype" : [ "" ],
									"parameter_enable" : 0,
									"patching_rect" : [ 871.000061, 786.0, 18.0, 18.0 ],
									"presentation" : 1,
									"presentation_rect" : [ 146.0, 214.5, 19.0, 18.0 ],
									"size" : 1,
									"values" : [ 1 ],
									"varname" : "LimiterToggle[1]"
								}

							}
, 							{
								"box" : 								{
									"annotation" : "",
									"bgcolor" : [ 1.0, 1.0, 1.0, 0.0 ],
									"disabled" : [ 0 ],
									"id" : "obj-32",
									"itemtype" : 1,
									"maxclass" : "radiogroup",
									"numinlets" : 1,
									"numoutlets" : 1,
									"outlettype" : [ "" ],
									"parameter_enable" : 0,
									"patching_rect" : [ 871.000061, 727.5, 18.0, 18.0 ],
									"presentation" : 1,
									"presentation_rect" : [ 230.0, 214.5, 19.0, 18.0 ],
									"size" : 1,
									"values" : [ 1 ],
									"varname" : "LimiterToggle[2]"
								}

							}
, 							{
								"box" : 								{
									"bgcolor" : [ 0.854902, 0.854902, 0.854902, 1.0 ],
									"bgoncolor" : [ 0.500213, 0.50029, 0.500178, 1.0 ],
									"bgovercolor" : [ 0.7147, 0.722915, 0.722915, 1.0 ],
									"border" : 1,
									"bordercolor" : [ 0.4, 0.4, 0.4, 1.0 ],
									"fontname" : "Arial",
									"fontsize" : 12.0,
									"id" : "obj-25",
									"maxclass" : "textbutton",
									"numinlets" : 1,
									"numoutlets" : 3,
									"outlettype" : [ "", "", "int" ],
									"parameter_enable" : 0,
									"patching_rect" : [ 918.0, 569.5, 80.0, 22.0 ],
									"presentation" : 1,
									"presentation_rect" : [ 8.0, 215.0, 57.0, 17.0 ],
									"rounded" : 3.0,
									"text" : "Dispose",
									"textcolor" : [ 0.4, 0.4, 0.4, 1.0 ],
									"texton" : "",
									"textoncolor" : [ 0.911718, 0.911858, 0.911654, 1.0 ],
									"textovercolor" : [ 0.0, 0.0, 0.0, 1.0 ]
								}

							}
, 							{
								"box" : 								{
									"color" : [ 0.831373, 0.54902, 0.839216, 1.0 ],
									"fontname" : "Arial",
									"fontsize" : 12.0,
									"id" : "obj-7",
									"maxclass" : "newobj",
									"numinlets" : 1,
									"numoutlets" : 3,
									"outlettype" : [ "", "", "" ],
									"patching_rect" : [ 918.0, 600.5, 324.0, 20.0 ],
									"text" : "jcom.message dispose @type generic @repetitions/allow 1",
									"varname" : "dispose"
								}

							}
, 							{
								"box" : 								{
									"color" : [ 0.831373, 0.54902, 0.839216, 1.0 ],
									"fontname" : "Arial",
									"fontsize" : 12.0,
									"id" : "obj-5",
									"maxclass" : "newobj",
									"numinlets" : 1,
									"numoutlets" : 3,
									"outlettype" : [ "", "", "" ],
									"patching_rect" : [ 918.0, 636.0, 368.0, 20.0 ],
									"text" : "jcom.message clearLoopPoints @type generic @repetitions/allow 1",
									"varname" : "clearLoopPoints"
								}

							}
, 							{
								"box" : 								{
									"color" : [ 0.831373, 0.54902, 0.839216, 1.0 ],
									"fontname" : "Arial",
									"fontsize" : 12.0,
									"id" : "obj-14",
									"maxclass" : "newobj",
									"numinlets" : 1,
									"numoutlets" : 3,
									"outlettype" : [ "", "", "" ],
									"patching_rect" : [ 901.0, 726.5, 406.0, 20.0 ],
									"text" : "jcom.parameter fliptexture @type boolean @repetitions/allow 1 @priority 8",
									"varname" : "fliptexture"
								}

							}
, 							{
								"box" : 								{
									"color" : [ 0.831373, 0.54902, 0.839216, 1.0 ],
									"fontname" : "Arial",
									"fontsize" : 12.0,
									"id" : "obj-6",
									"maxclass" : "newobj",
									"numinlets" : 1,
									"numoutlets" : 3,
									"outlettype" : [ "", "", "" ],
									"patching_rect" : [ 901.0, 786.0, 408.0, 20.0 ],
									"text" : "jcom.parameter loopreport @type boolean @repetitions/allow 1 @priority 9",
									"varname" : "loopreport"
								}

							}
, 							{
								"box" : 								{
									"color" : [ 0.831373, 0.54902, 0.839216, 1.0 ],
									"fontname" : "Arial",
									"fontsize" : 12.0,
									"id" : "obj-108",
									"linecount" : 2,
									"maxclass" : "newobj",
									"numinlets" : 1,
									"numoutlets" : 3,
									"outlettype" : [ "", "", "" ],
									"patching_rect" : [ 901.0, 520.476807, 539.0, 33.0 ],
									"text" : "jcom.message jump @type integer @range/clipmode none @repetitions/allow 1 @dataspace none @description \"the current frame in video\" @range/bounds 0. 1. @ramp/function linear",
									"varname" : "currentFrame[1]"
								}

							}
, 							{
								"box" : 								{
									"annotation" : "the current frame in video",
									"bgcolor" : [ 1.0, 1.0, 1.0, 0.0 ],
									"bordercolor" : [ 0.501961, 0.501961, 0.501961, 0.0 ],
									"fontname" : "Arial",
									"fontsize" : 12.0,
									"hbgcolor" : [ 0.0, 0.0, 0.0, 0.0 ],
									"htextcolor" : [ 0.612708, 0.118032, 0.432078, 1.0 ],
									"htricolor" : [ 0.612708, 0.118032, 0.432078, 1.0 ],
									"id" : "obj-109",
									"maxclass" : "number",
									"numinlets" : 1,
									"numoutlets" : 2,
									"outlettype" : [ "int", "bang" ],
									"parameter_enable" : 0,
									"patching_rect" : [ 839.000061, 530.476807, 50.0, 20.0 ],
									"presentation" : 1,
									"presentation_rect" : [ 131.0, 173.0, 105.0, 20.0 ],
									"textcolor" : [ 0.4, 0.4, 0.4, 1.0 ],
									"tricolor" : [ 0.4, 0.4, 0.4, 1.0 ]
								}

							}
, 							{
								"box" : 								{
									"fontname" : "Arial",
									"fontsize" : 12.0,
									"id" : "obj-107",
									"maxclass" : "newobj",
									"numinlets" : 3,
									"numoutlets" : 1,
									"outlettype" : [ "" ],
									"patcher" : 									{
										"fileversion" : 1,
										"appversion" : 										{
											"major" : 6,
											"minor" : 1,
											"revision" : 1,
											"architecture" : "x86"
										}
,
										"rect" : [ 25.0, 69.0, 640.0, 480.0 ],
										"bglocked" : 0,
										"openinpresentation" : 0,
										"default_fontsize" : 12.0,
										"default_fontface" : 0,
										"default_fontname" : "Arial",
										"gridonopen" : 0,
										"gridsize" : [ 15.0, 15.0 ],
										"gridsnaponopen" : 0,
										"statusbarvisible" : 2,
										"toolbarvisible" : 1,
										"boxanimatetime" : 200,
										"imprint" : 0,
										"enablehscroll" : 1,
										"enablevscroll" : 1,
										"devicewidth" : 0.0,
										"description" : "",
										"digest" : "",
										"tags" : "",
										"boxes" : [ 											{
												"box" : 												{
													"fontname" : "Arial",
													"fontsize" : 12.0,
													"id" : "obj-97",
													"maxclass" : "newobj",
													"numinlets" : 2,
													"numoutlets" : 1,
													"outlettype" : [ "int" ],
													"patching_rect" : [ 59.0, 678.0, 32.5, 20.0 ],
													"text" : "- 1"
												}

											}
, 											{
												"box" : 												{
													"fontname" : "Arial",
													"fontsize" : 12.0,
													"id" : "obj-96",
													"maxclass" : "newobj",
													"numinlets" : 1,
													"numoutlets" : 1,
													"outlettype" : [ "" ],
													"patching_rect" : [ 59.0, 708.0, 74.0, 20.0 ],
													"text" : "prepend set"
												}

											}
, 											{
												"box" : 												{
													"fontname" : "Arial",
													"fontsize" : 12.0,
													"id" : "obj-92",
													"maxclass" : "message",
													"numinlets" : 2,
													"numoutlets" : 1,
													"outlettype" : [ "" ],
													"patching_rect" : [ 59.0, 100.0, 72.0, 18.0 ],
													"text" : "clear, prefix"
												}

											}
, 											{
												"box" : 												{
													"fontname" : "Arial",
													"fontsize" : 12.0,
													"id" : "obj-90",
													"maxclass" : "newobj",
													"numinlets" : 2,
													"numoutlets" : 1,
													"outlettype" : [ "" ],
													"patching_rect" : [ 59.0, 568.0, 113.5, 20.0 ],
													"text" : "join @triggers 0"
												}

											}
, 											{
												"box" : 												{
													"fontname" : "Arial",
													"fontsize" : 12.0,
													"id" : "obj-89",
													"maxclass" : "newobj",
													"numinlets" : 1,
													"numoutlets" : 4,
													"outlettype" : [ "", "", "", "" ],
													"patching_rect" : [ 59.0, 654.0, 64.0, 20.0 ],
													"saved_object_attributes" : 													{
														"embed" : 0
													}
,
													"text" : "coll #-files"
												}

											}
, 											{
												"box" : 												{
													"fontname" : "Arial",
													"fontsize" : 12.0,
													"id" : "obj-73",
													"maxclass" : "newobj",
													"numinlets" : 1,
													"numoutlets" : 3,
													"outlettype" : [ "int", "int", "bang" ],
													"patching_rect" : [ 140.0, 222.0, 168.0, 20.0 ],
													"text" : "t i i b"
												}

											}
, 											{
												"box" : 												{
													"autopopulate" : 1,
													"fontname" : "Arial",
													"fontsize" : 12.0,
													"id" : "obj-74",
													"items" : "<empty>",
													"maxclass" : "umenu",
													"numinlets" : 1,
													"numoutlets" : 3,
													"outlettype" : [ "int", "", "" ],
													"parameter_enable" : 0,
													"patching_rect" : [ 59.0, 151.0, 100.0, 20.0 ],
													"prefix_mode" : 2,
													"rounded" : 4,
													"types" : [ "MooV", "MPEG", "JPEG", "PICT", "PNG ", "GIFF" ]
												}

											}
, 											{
												"box" : 												{
													"fontname" : "Arial",
													"fontsize" : 12.0,
													"id" : "obj-75",
													"maxclass" : "newobj",
													"numinlets" : 1,
													"numoutlets" : 1,
													"outlettype" : [ "" ],
													"patching_rect" : [ 59.0, 600.0, 85.0, 20.0 ],
													"text" : "prepend store"
												}

											}
, 											{
												"box" : 												{
													"fontname" : "Arial",
													"fontsize" : 12.0,
													"id" : "obj-64",
													"maxclass" : "newobj",
													"numinlets" : 1,
													"numoutlets" : 2,
													"outlettype" : [ "int", "int" ],
													"patching_rect" : [ 140.0, 484.0, 32.5, 20.0 ],
													"text" : "t i i"
												}

											}
, 											{
												"box" : 												{
													"fontname" : "Arial",
													"fontsize" : 12.0,
													"id" : "obj-66",
													"maxclass" : "newobj",
													"numinlets" : 2,
													"numoutlets" : 1,
													"outlettype" : [ "int" ],
													"patching_rect" : [ 153.5, 532.0, 32.5, 20.0 ],
													"text" : "+ 1"
												}

											}
, 											{
												"box" : 												{
													"fontname" : "Arial",
													"fontsize" : 12.0,
													"id" : "obj-72",
													"maxclass" : "newobj",
													"numinlets" : 2,
													"numoutlets" : 1,
													"outlettype" : [ "int" ],
													"patching_rect" : [ 214.5, 255.0, 32.5, 20.0 ],
													"text" : "- 1"
												}

											}
, 											{
												"box" : 												{
													"fontname" : "Arial",
													"fontsize" : 12.0,
													"id" : "obj-78",
													"maxclass" : "newobj",
													"numinlets" : 2,
													"numoutlets" : 2,
													"outlettype" : [ "bang", "" ],
													"patching_rect" : [ 214.5, 359.0, 36.0, 20.0 ],
													"text" : "sel 1"
												}

											}
, 											{
												"box" : 												{
													"fontname" : "Arial",
													"fontsize" : 12.0,
													"id" : "obj-62",
													"maxclass" : "message",
													"numinlets" : 2,
													"numoutlets" : 1,
													"outlettype" : [ "" ],
													"patching_rect" : [ 167.0, 401.0, 32.5, 18.0 ],
													"text" : "0"
												}

											}
, 											{
												"box" : 												{
													"fontname" : "Arial",
													"fontsize" : 12.0,
													"id" : "obj-79",
													"maxclass" : "message",
													"numinlets" : 2,
													"numoutlets" : 1,
													"outlettype" : [ "" ],
													"patching_rect" : [ 160.0, 316.0, 33.0, 18.0 ],
													"text" : "stop"
												}

											}
, 											{
												"box" : 												{
													"fontname" : "Arial",
													"fontsize" : 12.0,
													"id" : "obj-80",
													"maxclass" : "newobj",
													"numinlets" : 2,
													"numoutlets" : 2,
													"outlettype" : [ "bang", "" ],
													"patching_rect" : [ 177.0, 484.0, 99.5, 20.0 ],
													"text" : "sel"
												}

											}
, 											{
												"box" : 												{
													"fontname" : "Arial",
													"fontsize" : 12.0,
													"id" : "obj-81",
													"maxclass" : "newobj",
													"numinlets" : 5,
													"numoutlets" : 4,
													"outlettype" : [ "int", "", "", "int" ],
													"patching_rect" : [ 140.0, 435.0, 73.0, 20.0 ],
													"text" : "counter"
												}

											}
, 											{
												"box" : 												{
													"fontname" : "Arial",
													"fontsize" : 12.0,
													"id" : "obj-82",
													"maxclass" : "newobj",
													"numinlets" : 2,
													"numoutlets" : 1,
													"outlettype" : [ "int" ],
													"patching_rect" : [ 140.0, 255.0, 32.5, 20.0 ],
													"text" : "> 0"
												}

											}
, 											{
												"box" : 												{
													"fontname" : "Arial",
													"fontsize" : 12.0,
													"id" : "obj-83",
													"maxclass" : "newobj",
													"numinlets" : 2,
													"numoutlets" : 1,
													"outlettype" : [ "bang" ],
													"patching_rect" : [ 140.0, 359.0, 71.0, 20.0 ],
													"text" : "qmetro 500"
												}

											}
, 											{
												"box" : 												{
													"fontname" : "Arial",
													"fontsize" : 12.0,
													"id" : "obj-84",
													"maxclass" : "message",
													"numinlets" : 2,
													"numoutlets" : 1,
													"outlettype" : [ "" ],
													"patching_rect" : [ 289.0, 568.0, 37.0, 18.0 ],
													"text" : "clear"
												}

											}
, 											{
												"box" : 												{
													"fontname" : "Arial",
													"fontsize" : 12.0,
													"id" : "obj-85",
													"maxclass" : "newobj",
													"numinlets" : 2,
													"numoutlets" : 2,
													"outlettype" : [ "", "" ],
													"patching_rect" : [ 140.0, 184.0, 87.0, 20.0 ],
													"text" : "route populate"
												}

											}
, 											{
												"box" : 												{
													"comment" : "",
													"id" : "obj-100",
													"maxclass" : "inlet",
													"numinlets" : 0,
													"numoutlets" : 1,
													"outlettype" : [ "" ],
													"patching_rect" : [ 59.0, 40.0, 25.0, 25.0 ]
												}

											}
, 											{
												"box" : 												{
													"comment" : "",
													"id" : "obj-101",
													"maxclass" : "inlet",
													"numinlets" : 0,
													"numoutlets" : 1,
													"outlettype" : [ "" ],
													"patching_rect" : [ 89.0, 40.0, 25.0, 25.0 ]
												}

											}
, 											{
												"box" : 												{
													"comment" : "",
													"id" : "obj-102",
													"maxclass" : "inlet",
													"numinlets" : 0,
													"numoutlets" : 1,
													"outlettype" : [ "" ],
													"patching_rect" : [ 119.0, 40.0, 25.0, 25.0 ]
												}

											}
, 											{
												"box" : 												{
													"comment" : "",
													"id" : "obj-103",
													"maxclass" : "outlet",
													"numinlets" : 1,
													"numoutlets" : 0,
													"patching_rect" : [ 59.0, 788.0, 25.0, 25.0 ]
												}

											}
 ],
										"lines" : [ 											{
												"patchline" : 												{
													"destination" : [ "obj-92", 0 ],
													"disabled" : 0,
													"hidden" : 0,
													"source" : [ "obj-100", 0 ]
												}

											}
, 											{
												"patchline" : 												{
													"destination" : [ "obj-74", 0 ],
													"disabled" : 0,
													"hidden" : 0,
													"source" : [ "obj-101", 0 ]
												}

											}
, 											{
												"patchline" : 												{
													"destination" : [ "obj-89", 0 ],
													"disabled" : 0,
													"hidden" : 0,
													"source" : [ "obj-102", 0 ]
												}

											}
, 											{
												"patchline" : 												{
													"destination" : [ "obj-81", 2 ],
													"disabled" : 0,
													"hidden" : 0,
													"source" : [ "obj-62", 0 ]
												}

											}
, 											{
												"patchline" : 												{
													"destination" : [ "obj-66", 0 ],
													"disabled" : 0,
													"hidden" : 0,
													"source" : [ "obj-64", 1 ]
												}

											}
, 											{
												"patchline" : 												{
													"destination" : [ "obj-74", 0 ],
													"disabled" : 0,
													"hidden" : 0,
													"midpoints" : [ 149.5, 510.0, 84.0, 510.0, 84.0, 510.0, 52.0, 510.0, 52.0, 127.0, 68.5, 127.0 ],
													"source" : [ "obj-64", 0 ]
												}

											}
, 											{
												"patchline" : 												{
													"destination" : [ "obj-90", 1 ],
													"disabled" : 0,
													"hidden" : 0,
													"source" : [ "obj-66", 0 ]
												}

											}
, 											{
												"patchline" : 												{
													"destination" : [ "obj-80", 1 ],
													"disabled" : 0,
													"hidden" : 0,
													"midpoints" : [ 224.0, 282.0, 267.0, 282.0 ],
													"source" : [ "obj-72", 0 ]
												}

											}
, 											{
												"patchline" : 												{
													"destination" : [ "obj-72", 0 ],
													"disabled" : 0,
													"hidden" : 0,
													"source" : [ "obj-73", 1 ]
												}

											}
, 											{
												"patchline" : 												{
													"destination" : [ "obj-82", 0 ],
													"disabled" : 0,
													"hidden" : 0,
													"source" : [ "obj-73", 0 ]
												}

											}
, 											{
												"patchline" : 												{
													"destination" : [ "obj-84", 0 ],
													"disabled" : 0,
													"hidden" : 0,
													"source" : [ "obj-73", 2 ]
												}

											}
, 											{
												"patchline" : 												{
													"destination" : [ "obj-85", 0 ],
													"disabled" : 0,
													"hidden" : 0,
													"source" : [ "obj-74", 2 ]
												}

											}
, 											{
												"patchline" : 												{
													"destination" : [ "obj-90", 0 ],
													"disabled" : 0,
													"hidden" : 0,
													"midpoints" : [ 109.0, 233.0, 68.5, 233.0 ],
													"source" : [ "obj-74", 1 ]
												}

											}
, 											{
												"patchline" : 												{
													"destination" : [ "obj-89", 0 ],
													"disabled" : 0,
													"hidden" : 0,
													"source" : [ "obj-75", 0 ]
												}

											}
, 											{
												"patchline" : 												{
													"destination" : [ "obj-62", 0 ],
													"disabled" : 0,
													"hidden" : 0,
													"midpoints" : [ 224.0, 390.0, 176.5, 390.0 ],
													"source" : [ "obj-78", 0 ]
												}

											}
, 											{
												"patchline" : 												{
													"destination" : [ "obj-83", 0 ],
													"disabled" : 0,
													"hidden" : 0,
													"midpoints" : [ 169.5, 344.5, 149.5, 344.5 ],
													"source" : [ "obj-79", 0 ]
												}

											}
, 											{
												"patchline" : 												{
													"destination" : [ "obj-79", 0 ],
													"disabled" : 0,
													"hidden" : 0,
													"midpoints" : [ 186.5, 525.0, 290.0, 525.0, 290.0, 300.0, 169.5, 300.0 ],
													"source" : [ "obj-80", 0 ]
												}

											}
, 											{
												"patchline" : 												{
													"destination" : [ "obj-64", 0 ],
													"disabled" : 0,
													"hidden" : 0,
													"source" : [ "obj-81", 0 ]
												}

											}
, 											{
												"patchline" : 												{
													"destination" : [ "obj-80", 0 ],
													"disabled" : 0,
													"hidden" : 0,
													"midpoints" : [ 149.5, 464.0, 186.5, 464.0 ],
													"source" : [ "obj-81", 0 ]
												}

											}
, 											{
												"patchline" : 												{
													"destination" : [ "obj-78", 0 ],
													"disabled" : 0,
													"hidden" : 0,
													"midpoints" : [ 149.5, 290.0, 224.0, 290.0 ],
													"source" : [ "obj-82", 0 ]
												}

											}
, 											{
												"patchline" : 												{
													"destination" : [ "obj-83", 0 ],
													"disabled" : 0,
													"hidden" : 0,
													"source" : [ "obj-82", 0 ]
												}

											}
, 											{
												"patchline" : 												{
													"destination" : [ "obj-81", 0 ],
													"disabled" : 0,
													"hidden" : 0,
													"source" : [ "obj-83", 0 ]
												}

											}
, 											{
												"patchline" : 												{
													"destination" : [ "obj-89", 0 ],
													"disabled" : 0,
													"hidden" : 0,
													"midpoints" : [ 298.5, 633.0, 68.5, 633.0 ],
													"source" : [ "obj-84", 0 ]
												}

											}
, 											{
												"patchline" : 												{
													"destination" : [ "obj-73", 0 ],
													"disabled" : 0,
													"hidden" : 0,
													"source" : [ "obj-85", 0 ]
												}

											}
, 											{
												"patchline" : 												{
													"destination" : [ "obj-97", 0 ],
													"disabled" : 0,
													"hidden" : 0,
													"source" : [ "obj-89", 0 ]
												}

											}
, 											{
												"patchline" : 												{
													"destination" : [ "obj-75", 0 ],
													"disabled" : 0,
													"hidden" : 0,
													"source" : [ "obj-90", 0 ]
												}

											}
, 											{
												"patchline" : 												{
													"destination" : [ "obj-74", 0 ],
													"disabled" : 0,
													"hidden" : 0,
													"source" : [ "obj-92", 0 ]
												}

											}
, 											{
												"patchline" : 												{
													"destination" : [ "obj-103", 0 ],
													"disabled" : 0,
													"hidden" : 0,
													"source" : [ "obj-96", 0 ]
												}

											}
, 											{
												"patchline" : 												{
													"destination" : [ "obj-96", 0 ],
													"disabled" : 0,
													"hidden" : 0,
													"source" : [ "obj-97", 0 ]
												}

											}
 ]
									}
,
									"patching_rect" : [ 493.5, 481.0, 75.0, 20.0 ],
									"saved_object_attributes" : 									{
										"default_fontface" : 0,
										"default_fontname" : "Arial",
										"default_fontsize" : 12.0,
										"description" : "",
										"digest" : "",
										"fontface" : 0,
										"fontname" : "Arial",
										"fontsize" : 12.0,
										"globalpatchername" : "",
										"tags" : ""
									}
,
									"text" : "p set_Name"
								}

							}
, 							{
								"box" : 								{
									"fontname" : "Arial",
									"fontsize" : 12.0,
									"id" : "obj-99",
									"maxclass" : "newobj",
									"numinlets" : 1,
									"numoutlets" : 2,
									"outlettype" : [ "", "" ],
									"patching_rect" : [ 371.0, 381.0, 169.5, 20.0 ],
									"text" : "t s s"
								}

							}
, 							{
								"box" : 								{
									"fontname" : "Arial",
									"fontsize" : 12.0,
									"id" : "obj-91",
									"maxclass" : "message",
									"numinlets" : 2,
									"numoutlets" : 1,
									"outlettype" : [ "" ],
									"patching_rect" : [ 521.5, 417.0, 139.0, 18.0 ],
									"text" : "prefix $1, prefix_mode 2"
								}

							}
, 							{
								"box" : 								{
									"fontname" : "Arial",
									"fontsize" : 12.0,
									"id" : "obj-13",
									"maxclass" : "message",
									"numinlets" : 2,
									"numoutlets" : 1,
									"outlettype" : [ "" ],
									"patching_rect" : [ 371.0, 417.0, 139.0, 18.0 ],
									"text" : "prefix $1, prefix_mode 2"
								}

							}
, 							{
								"box" : 								{
									"color" : [ 0.831373, 0.54902, 0.839216, 1.0 ],
									"fontname" : "Arial",
									"fontsize" : 12.0,
									"id" : "obj-19",
									"maxclass" : "newobj",
									"numinlets" : 1,
									"numoutlets" : 2,
									"outlettype" : [ "", "" ],
									"patching_rect" : [ 691.0, 335.0, 55.0, 20.0 ],
									"text" : "jcom.init"
								}

							}
, 							{
								"box" : 								{
									"fontname" : "Arial",
									"fontsize" : 12.0,
									"id" : "obj-35",
									"maxclass" : "message",
									"numinlets" : 2,
									"numoutlets" : 1,
									"outlettype" : [ "" ],
									"patching_rect" : [ 76.75, 472.0, 72.0, 18.0 ],
									"text" : "clear, prefix"
								}

							}
, 							{
								"box" : 								{
									"autopopulate" : 1,
									"fontname" : "Arial",
									"fontsize" : 12.0,
									"id" : "obj-36",
									"items" : "<empty>",
									"maxclass" : "umenu",
									"numinlets" : 1,
									"numoutlets" : 3,
									"outlettype" : [ "int", "", "" ],
									"parameter_enable" : 0,
									"patching_rect" : [ 76.75, 514.0, 180.0, 20.0 ],
									"prefix_mode" : 2,
									"presentation" : 1,
									"presentation_rect" : [ 101.197151, 58.0, 142.591461, 20.0 ],
									"rounded" : 4,
									"types" : [ "MooV", "MPEG", "JPEG", "PICT", "PNG " ]
								}

							}
, 							{
								"box" : 								{
									"color" : [ 0.831373, 0.54902, 0.839216, 1.0 ],
									"fontname" : "Arial",
									"fontsize" : 12.0,
									"id" : "obj-1",
									"linecount" : 2,
									"maxclass" : "newobj",
									"numinlets" : 1,
									"numoutlets" : 3,
									"outlettype" : [ "", "", "" ],
									"patching_rect" : [ 78.5, 335.0, 604.0, 33.0 ],
									"text" : "jcom.parameter readFolder @type string @range/clipmode none @repetitions/allow 1 @priority 1 @description \"reads a folder of Movie files\"",
									"varname" : "readFolder[1]"
								}

							}
, 							{
								"box" : 								{
									"fontname" : "Arial",
									"fontsize" : 12.0,
									"id" : "obj-2",
									"maxclass" : "newobj",
									"numinlets" : 0,
									"numoutlets" : 1,
									"outlettype" : [ "" ],
									"patching_rect" : [ 104.5, 1259.5, 48.0, 20.0 ],
									"text" : "r #0-off"
								}

							}
, 							{
								"box" : 								{
									"fontname" : "Arial",
									"fontsize" : 12.0,
									"id" : "obj-24",
									"maxclass" : "newobj",
									"numinlets" : 1,
									"numoutlets" : 1,
									"outlettype" : [ "" ],
									"patching_rect" : [ 72.5, 649.0, 59.0, 20.0 ],
									"text" : "tosymbol"
								}

							}
, 							{
								"box" : 								{
									"fontface" : 1,
									"fontname" : "Arial",
									"fontsize" : 10.426503,
									"frgb" : 0.0,
									"id" : "obj-10",
									"maxclass" : "comment",
									"numinlets" : 1,
									"numoutlets" : 0,
									"patching_rect" : [ 39.0, 689.5, 153.0, 18.0 ],
									"presentation" : 1,
									"presentation_rect" : [ 8.0, 153.0, 85.0, 18.0 ],
									"text" : "Looping mode:",
									"textcolor" : [ 0.258824, 0.258824, 0.258824, 1.0 ]
								}

							}
, 							{
								"box" : 								{
									"fontface" : 1,
									"fontname" : "Arial",
									"fontsize" : 10.426503,
									"frgb" : 0.0,
									"id" : "obj-9",
									"maxclass" : "comment",
									"numinlets" : 1,
									"numoutlets" : 0,
									"patching_rect" : [ 32.0, 591.5, 153.0, 18.0 ],
									"presentation" : 1,
									"presentation_rect" : [ 8.0, 130.0, 68.0, 18.0 ],
									"text" : "Dimension:",
									"textcolor" : [ 0.258824, 0.258824, 0.258824, 1.0 ]
								}

							}
, 							{
								"box" : 								{
									"align" : 1,
									"fontname" : "Arial",
									"fontsize" : 12.0,
									"hint" : "Looping mode (default = 1 (start to end))  0 = noloop  1 = normallooping (start to end)  2 = palindrome  (start to end to start to ....)  3 = no looping, but use looppoints to define playback limits-defined",
									"id" : "obj-27",
									"items" : [ "noloop", ",", "normalloop", ",", "palindrome", ",", "defined" ],
									"maxclass" : "umenu",
									"numinlets" : 1,
									"numoutlets" : 3,
									"outlettype" : [ "int", "", "" ],
									"parameter_enable" : 0,
									"patching_rect" : [ 32.0, 721.0, 100.0, 20.0 ],
									"presentation" : 1,
									"presentation_rect" : [ 131.0, 152.0, 112.788605, 20.0 ],
									"rounded" : 3,
									"textcolor" : [ 0.4, 0.4, 0.4, 1.0 ]
								}

							}
, 							{
								"box" : 								{
									"align" : 1,
									"fontname" : "Arial",
									"fontsize" : 12.0,
									"id" : "obj-20",
									"items" : [ 320, 240, ",", 640, 480, ",", 720, 480, ",", 1280, 720, ",", 1920, 1080 ],
									"maxclass" : "umenu",
									"numinlets" : 1,
									"numoutlets" : 3,
									"outlettype" : [ "int", "", "" ],
									"parameter_enable" : 0,
									"patching_rect" : [ 32.0, 623.0, 100.0, 20.0 ],
									"presentation" : 1,
									"presentation_rect" : [ 131.0, 129.0, 112.788605, 20.0 ],
									"rounded" : 3,
									"textcolor" : [ 0.4, 0.4, 0.4, 1.0 ]
								}

							}
, 							{
								"box" : 								{
									"fontface" : 1,
									"fontname" : "Arial",
									"fontsize" : 10.426503,
									"frgb" : 0.0,
									"id" : "obj-34",
									"maxclass" : "comment",
									"numinlets" : 1,
									"numoutlets" : 0,
									"patching_rect" : [ 274.0, 996.0, 153.0, 18.0 ],
									"presentation" : 1,
									"presentation_rect" : [ 131.0, 109.0, 60.788605, 18.0 ],
									"text" : "Loop end:",
									"textcolor" : [ 0.258824, 0.258824, 0.258824, 1.0 ]
								}

							}
, 							{
								"box" : 								{
									"fontface" : 1,
									"fontname" : "Arial",
									"fontsize" : 10.426503,
									"frgb" : 0.0,
									"id" : "obj-31",
									"maxclass" : "comment",
									"numinlets" : 1,
									"numoutlets" : 0,
									"patching_rect" : [ 104.5, 996.0, 153.0, 18.0 ],
									"presentation" : 1,
									"presentation_rect" : [ 8.0, 110.0, 65.788605, 18.0 ],
									"text" : "Loop start:",
									"textcolor" : [ 0.258824, 0.258824, 0.258824, 1.0 ]
								}

							}
, 							{
								"box" : 								{
									"annotation" : "loop points in video file",
									"bgcolor" : [ 1.0, 1.0, 1.0, 0.0 ],
									"bordercolor" : [ 0.501961, 0.501961, 0.501961, 0.0 ],
									"fontname" : "Arial",
									"fontsize" : 12.0,
									"hbgcolor" : [ 0.0, 0.0, 0.0, 0.0 ],
									"htextcolor" : [ 0.612708, 0.118032, 0.432078, 1.0 ],
									"htricolor" : [ 0.612708, 0.118032, 0.432078, 1.0 ],
									"id" : "obj-65",
									"maxclass" : "number",
									"numinlets" : 1,
									"numoutlets" : 2,
									"outlettype" : [ "int", "bang" ],
									"parameter_enable" : 0,
									"patching_rect" : [ 45.0, 995.0, 50.0, 20.0 ],
									"presentation" : 1,
									"presentation_rect" : [ 64.0, 109.0, 67.0, 20.0 ],
									"textcolor" : [ 0.4, 0.4, 0.4, 1.0 ],
									"tricolor" : [ 0.4, 0.4, 0.4, 1.0 ]
								}

							}
, 							{
								"box" : 								{
									"annotation" : "loop points in video file",
									"bgcolor" : [ 1.0, 1.0, 1.0, 0.0 ],
									"bordercolor" : [ 0.501961, 0.501961, 0.501961, 0.0 ],
									"fontname" : "Arial",
									"fontsize" : 12.0,
									"hbgcolor" : [ 0.0, 0.0, 0.0, 0.0 ],
									"htextcolor" : [ 0.612708, 0.118032, 0.432078, 1.0 ],
									"htricolor" : [ 0.612708, 0.118032, 0.432078, 1.0 ],
									"id" : "obj-22",
									"maxclass" : "number",
									"numinlets" : 1,
									"numoutlets" : 2,
									"outlettype" : [ "int", "bang" ],
									"parameter_enable" : 0,
									"patching_rect" : [ 255.0, 975.5, 50.0, 20.0 ],
									"presentation" : 1,
									"presentation_rect" : [ 186.0, 108.0, 57.788605, 20.0 ],
									"textcolor" : [ 0.4, 0.4, 0.4, 1.0 ],
									"tricolor" : [ 0.4, 0.4, 0.4, 1.0 ]
								}

							}
, 							{
								"box" : 								{
									"annotation" : "start and stop movie",
									"bgcolor" : [ 0.854902, 0.854902, 0.854902, 1.0 ],
									"bgoncolor" : [ 0.500213, 0.50029, 0.500178, 1.0 ],
									"bgovercolor" : [ 0.7147, 0.722915, 0.722915, 1.0 ],
									"border" : 1,
									"bordercolor" : [ 0.4, 0.4, 0.4, 1.0 ],
									"fontname" : "Arial",
									"fontsize" : 12.0,
									"id" : "obj-71",
									"maxclass" : "textbutton",
									"mode" : 1,
									"numinlets" : 1,
									"numoutlets" : 3,
									"outlettype" : [ "", "", "int" ],
									"parameter_enable" : 0,
									"patching_rect" : [ 23.5, 1308.5, 80.0, 22.0 ],
									"presentation" : 1,
									"presentation_rect" : [ 54.197151, 60.0, 45.0, 15.0 ],
									"rounded" : 3.0,
									"text" : "Start",
									"textcolor" : [ 0.4, 0.4, 0.4, 1.0 ],
									"texton" : "Stop",
									"textoncolor" : [ 0.911718, 0.911858, 0.911654, 1.0 ],
									"textovercolor" : [ 0.0, 0.0, 0.0, 1.0 ]
								}

							}
, 							{
								"box" : 								{
									"color" : [ 0.831373, 0.54902, 0.839216, 1.0 ],
									"fontname" : "Arial",
									"fontsize" : 12.0,
									"id" : "obj-56",
									"maxclass" : "newobj",
									"numinlets" : 1,
									"numoutlets" : 3,
									"outlettype" : [ "", "", "" ],
									"patching_rect" : [ 104.5, 1310.5, 571.0, 20.0 ],
									"text" : "jcom.parameter start @type boolean @repetitions/allow 1 @priority 7 @description \"start and stop movie\"",
									"varname" : "start"
								}

							}
, 							{
								"box" : 								{
									"fontface" : 1,
									"fontname" : "Arial",
									"fontsize" : 10.426503,
									"frgb" : 0.0,
									"id" : "obj-59",
									"maxclass" : "comment",
									"numinlets" : 1,
									"numoutlets" : 0,
									"patching_rect" : [ 315.375, 95.0, 153.0, 18.0 ],
									"presentation" : 1,
									"presentation_rect" : [ 8.0, 173.0, 87.0, 18.0 ],
									"text" : "Jump to frame:",
									"textcolor" : [ 0.258824, 0.258824, 0.258824, 1.0 ]
								}

							}
, 							{
								"box" : 								{
									"fontname" : "Arial",
									"fontsize" : 12.0,
									"id" : "obj-40",
									"maxclass" : "newobj",
									"numinlets" : 1,
									"numoutlets" : 3,
									"outlettype" : [ "int", "int", "int" ],
									"patching_rect" : [ 18.0, 814.5, 46.0, 20.0 ],
									"text" : "t i 0 i"
								}

							}
, 							{
								"box" : 								{
									"fontname" : "Arial",
									"fontsize" : 12.0,
									"id" : "obj-16",
									"maxclass" : "newobj",
									"numinlets" : 0,
									"numoutlets" : 1,
									"outlettype" : [ "" ],
									"patching_rect" : [ 18.0, 778.5, 57.0, 20.0 ],
									"text" : "r #0-size"
								}

							}
, 							{
								"box" : 								{
									"fontname" : "Arial",
									"fontsize" : 12.0,
									"id" : "obj-29",
									"maxclass" : "newobj",
									"numinlets" : 1,
									"numoutlets" : 1,
									"outlettype" : [ "" ],
									"patching_rect" : [ 557.5, 1155.0, 74.0, 20.0 ],
									"text" : "prepend set"
								}

							}
, 							{
								"box" : 								{
									"fontname" : "Arial",
									"fontsize" : 12.0,
									"id" : "obj-28",
									"maxclass" : "newobj",
									"numinlets" : 1,
									"numoutlets" : 2,
									"outlettype" : [ "int", "int" ],
									"patching_rect" : [ 476.5, 1118.5, 100.0, 20.0 ],
									"text" : "unpack i i"
								}

							}
, 							{
								"box" : 								{
									"fontname" : "Arial",
									"fontsize" : 12.0,
									"id" : "obj-3",
									"maxclass" : "newobj",
									"numinlets" : 1,
									"numoutlets" : 1,
									"outlettype" : [ "" ],
									"patching_rect" : [ 476.5, 1155.0, 74.0, 20.0 ],
									"text" : "prepend set"
								}

							}
, 							{
								"box" : 								{
									"fontface" : 1,
									"fontname" : "Arial",
									"fontsize" : 10.426503,
									"frgb" : 0.0,
									"id" : "obj-12",
									"maxclass" : "comment",
									"numinlets" : 1,
									"numoutlets" : 0,
									"patching_rect" : [ 90.25, 1198.0, 153.0, 18.0 ],
									"presentation" : 1,
									"presentation_rect" : [ 8.0, 190.0, 40.0, 18.0 ],
									"text" : "Rate:",
									"textcolor" : [ 0.258824, 0.258824, 0.258824, 1.0 ]
								}

							}
, 							{
								"box" : 								{
									"annotation" : "",
									"bgcolor" : [ 1.0, 1.0, 1.0, 0.0 ],
									"bordercolor" : [ 0.501961, 0.501961, 0.501961, 0.0 ],
									"fontname" : "Arial",
									"fontsize" : 12.0,
									"hbgcolor" : [ 0.0, 0.0, 0.0, 0.0 ],
									"htextcolor" : [ 0.612708, 0.118032, 0.432078, 1.0 ],
									"htricolor" : [ 0.612708, 0.118032, 0.432078, 1.0 ],
									"id" : "obj-88",
									"maxclass" : "flonum",
									"numinlets" : 1,
									"numoutlets" : 2,
									"outlettype" : [ "float", "bang" ],
									"parameter_enable" : 0,
									"patching_rect" : [ 18.25, 1229.5, 50.0, 20.0 ],
									"presentation" : 1,
									"presentation_rect" : [ 131.0, 190.0, 105.0, 20.0 ],
									"textcolor" : [ 0.4, 0.4, 0.4, 1.0 ],
									"tricolor" : [ 0.4, 0.4, 0.4, 1.0 ]
								}

							}
, 							{
								"box" : 								{
									"color" : [ 0.831373, 0.54902, 0.839216, 1.0 ],
									"fontname" : "Arial",
									"fontsize" : 12.0,
									"id" : "obj-11",
									"linecount" : 2,
									"maxclass" : "newobj",
									"numinlets" : 1,
									"numoutlets" : 3,
									"outlettype" : [ "", "", "" ],
									"patching_rect" : [ 79.25, 1216.0, 586.0, 33.0 ],
									"text" : "jcom.parameter rate @type decimal @range/bounds -100. 100. @range/clipmode both @repetitions/allow 1 @ramp/drive scheduler @ramp/function linear @dataspace none @priority 6",
									"varname" : "rate"
								}

							}
, 							{
								"box" : 								{
									"bgcolor" : [ 0.854902, 0.854902, 0.854902, 1.0 ],
									"bgoncolor" : [ 0.500213, 0.50029, 0.500178, 1.0 ],
									"bgovercolor" : [ 0.7147, 0.722915, 0.722915, 1.0 ],
									"border" : 1,
									"bordercolor" : [ 0.4, 0.4, 0.4, 1.0 ],
									"fontname" : "Arial",
									"fontsize" : 12.0,
									"id" : "obj-4",
									"maxclass" : "textbutton",
									"numinlets" : 1,
									"numoutlets" : 3,
									"outlettype" : [ "", "", "int" ],
									"parameter_enable" : 0,
									"patching_rect" : [ 78.5, 243.5, 80.0, 22.0 ],
									"presentation" : 1,
									"presentation_rect" : [ 6.0, 60.0, 45.0, 15.0 ],
									"rounded" : 3.0,
									"text" : "Read",
									"textcolor" : [ 0.4, 0.4, 0.4, 1.0 ],
									"texton" : "",
									"textoncolor" : [ 0.911718, 0.911858, 0.911654, 1.0 ],
									"textovercolor" : [ 0.0, 0.0, 0.0, 1.0 ]
								}

							}
, 							{
								"box" : 								{
									"color" : [ 0.831373, 0.54902, 0.839216, 1.0 ],
									"fontname" : "Arial",
									"fontsize" : 12.0,
									"id" : "obj-30",
									"linecount" : 2,
									"maxclass" : "newobj",
									"numinlets" : 1,
									"numoutlets" : 3,
									"outlettype" : [ "", "", "" ],
									"patching_rect" : [ 147.5, 707.5, 598.0, 33.0 ],
									"text" : "jcom.parameter loopMode @type string @range/clipmode none @repetitions/allow 1 @priority 4 @description \"set the loopmode for the video\"",
									"varname" : "loopmode[1]"
								}

							}
, 							{
								"box" : 								{
									"fontname" : "Arial",
									"fontsize" : 12.0,
									"id" : "obj-38",
									"maxclass" : "newobj",
									"numinlets" : 1,
									"numoutlets" : 1,
									"outlettype" : [ "" ],
									"patcher" : 									{
										"fileversion" : 1,
										"appversion" : 										{
											"major" : 6,
											"minor" : 1,
											"revision" : 1,
											"architecture" : "x86"
										}
,
										"rect" : [ 25.0, 69.0, 1054.0, 641.0 ],
										"bglocked" : 0,
										"openinpresentation" : 0,
										"default_fontsize" : 12.0,
										"default_fontface" : 0,
										"default_fontname" : "Arial",
										"gridonopen" : 0,
										"gridsize" : [ 15.0, 15.0 ],
										"gridsnaponopen" : 0,
										"statusbarvisible" : 2,
										"toolbarvisible" : 1,
										"boxanimatetime" : 200,
										"imprint" : 0,
										"enablehscroll" : 1,
										"enablevscroll" : 1,
										"devicewidth" : 0.0,
										"description" : "",
										"digest" : "",
										"tags" : "",
										"boxes" : [ 											{
												"box" : 												{
													"fontname" : "Arial",
													"fontsize" : 12.0,
													"id" : "obj-80",
													"linecount" : 2,
													"maxclass" : "newobj",
													"numinlets" : 1,
													"numoutlets" : 4,
													"outlettype" : [ "", "", "", "" ],
													"patching_rect" : [ 50.0, 75.5, 64.0, 33.0 ],
													"saved_object_attributes" : 													{
														"embed" : 0
													}
,
													"text" : "coll loopMode"
												}

											}
, 											{
												"box" : 												{
													"fontname" : "Arial",
													"fontsize" : 12.0,
													"id" : "obj-1",
													"maxclass" : "newobj",
													"numinlets" : 1,
													"numoutlets" : 1,
													"outlettype" : [ "" ],
													"patching_rect" : [ 419.0, 251.0, 74.0, 20.0 ],
													"text" : "prepend set"
												}

											}
, 											{
												"box" : 												{
													"comment" : "",
													"id" : "obj-63",
													"maxclass" : "inlet",
													"numinlets" : 0,
													"numoutlets" : 1,
													"outlettype" : [ "" ],
													"patching_rect" : [ 50.0, 40.0, 25.0, 25.0 ]
												}

											}
, 											{
												"box" : 												{
													"comment" : "",
													"id" : "obj-64",
													"maxclass" : "outlet",
													"numinlets" : 1,
													"numoutlets" : 0,
													"patching_rect" : [ 419.0, 284.0, 25.0, 25.0 ]
												}

											}
 ],
										"lines" : [ 											{
												"patchline" : 												{
													"destination" : [ "obj-64", 0 ],
													"disabled" : 0,
													"hidden" : 0,
													"source" : [ "obj-1", 0 ]
												}

											}
, 											{
												"patchline" : 												{
													"destination" : [ "obj-80", 0 ],
													"disabled" : 0,
													"hidden" : 0,
													"source" : [ "obj-63", 0 ]
												}

											}
, 											{
												"patchline" : 												{
													"destination" : [ "obj-1", 0 ],
													"disabled" : 0,
													"hidden" : 0,
													"source" : [ "obj-80", 0 ]
												}

											}
 ]
									}
,
									"patching_rect" : [ 405.5, 755.0, 73.0, 20.0 ],
									"saved_object_attributes" : 									{
										"default_fontface" : 0,
										"default_fontname" : "Arial",
										"default_fontsize" : 12.0,
										"description" : "",
										"digest" : "",
										"fontface" : 0,
										"fontname" : "Arial",
										"fontsize" : 12.0,
										"globalpatchername" : "",
										"tags" : ""
									}
,
									"text" : "p loopMode"
								}

							}
, 							{
								"box" : 								{
									"color" : [ 0.831373, 0.54902, 0.839216, 1.0 ],
									"fontname" : "Arial",
									"fontsize" : 12.0,
									"id" : "obj-26",
									"linecount" : 2,
									"maxclass" : "newobj",
									"numinlets" : 1,
									"numoutlets" : 3,
									"outlettype" : [ "", "", "" ],
									"patching_rect" : [ 184.0, 1073.0, 604.0, 33.0 ],
									"text" : "jcom.parameter looppoints @type integerArray @range/clipmode none @repetitions/allow 1 @ramp/drive none @dataspace none @priority 5 @description \"loop points in video file\"",
									"varname" : "looppoints"
								}

							}
, 							{
								"box" : 								{
									"fontname" : "Arial",
									"fontsize" : 12.0,
									"id" : "obj-61",
									"maxclass" : "message",
									"numinlets" : 2,
									"numoutlets" : 1,
									"outlettype" : [ "" ],
									"patching_rect" : [ 45.0, 854.476807, 49.0, 18.0 ],
									"text" : "size $1"
								}

							}
, 							{
								"box" : 								{
									"fontname" : "Arial",
									"fontsize" : 12.0,
									"id" : "obj-23",
									"maxclass" : "newobj",
									"numinlets" : 1,
									"numoutlets" : 2,
									"outlettype" : [ "int", "int" ],
									"patching_rect" : [ 45.0, 944.5, 49.0, 20.0 ],
									"text" : "unpack"
								}

							}
, 							{
								"box" : 								{
									"fontname" : "Arial",
									"fontsize" : 12.0,
									"id" : "obj-67",
									"maxclass" : "newobj",
									"numinlets" : 2,
									"numoutlets" : 1,
									"outlettype" : [ "" ],
									"patching_rect" : [ 45.0, 1024.0, 229.0, 20.0 ],
									"text" : "pak i i"
								}

							}
, 							{
								"box" : 								{
									"color" : [ 0.831373, 0.54902, 0.839216, 1.0 ],
									"fontname" : "Arial",
									"fontsize" : 12.0,
									"id" : "obj-15",
									"linecount" : 2,
									"maxclass" : "newobj",
									"numinlets" : 1,
									"numoutlets" : 3,
									"outlettype" : [ "", "", "" ],
									"patching_rect" : [ 157.25, 544.5, 596.0, 33.0 ],
									"text" : "jcom.parameter selectFile @type string @range/clipmode none @repetitions/allow 1 @priority 2 @description \"read files from a folder\"",
									"varname" : "readFolder"
								}

							}
, 							{
								"box" : 								{
									"fontname" : "Arial",
									"fontsize" : 12.0,
									"id" : "obj-52",
									"maxclass" : "newobj",
									"numinlets" : 1,
									"numoutlets" : 2,
									"outlettype" : [ "", "bang" ],
									"patching_rect" : [ 78.5, 299.0, 103.0, 20.0 ],
									"text" : "opendialog folder"
								}

							}
, 							{
								"box" : 								{
									"fontname" : "Arial",
									"fontsize" : 12.0,
									"id" : "obj-54",
									"maxclass" : "newobj",
									"numinlets" : 1,
									"numoutlets" : 1,
									"outlettype" : [ "" ],
									"patcher" : 									{
										"fileversion" : 1,
										"appversion" : 										{
											"major" : 6,
											"minor" : 1,
											"revision" : 1,
											"architecture" : "x86"
										}
,
										"rect" : [ 547.0, 351.0, 641.0, 480.0 ],
										"bglocked" : 0,
										"openinpresentation" : 0,
										"default_fontsize" : 12.0,
										"default_fontface" : 0,
										"default_fontname" : "Arial",
										"gridonopen" : 0,
										"gridsize" : [ 15.0, 15.0 ],
										"gridsnaponopen" : 0,
										"statusbarvisible" : 2,
										"toolbarvisible" : 1,
										"boxanimatetime" : 200,
										"imprint" : 0,
										"enablehscroll" : 1,
										"enablevscroll" : 1,
										"devicewidth" : 0.0,
										"description" : "",
										"digest" : "",
										"tags" : "",
										"boxes" : [ 											{
												"box" : 												{
													"fontname" : "Arial",
													"fontsize" : 12.0,
													"id" : "obj-9",
													"maxclass" : "newobj",
													"numinlets" : 1,
													"numoutlets" : 1,
													"outlettype" : [ "" ],
													"patching_rect" : [ 115.0, 154.0, 59.0, 20.0 ],
													"text" : "tosymbol"
												}

											}
, 											{
												"box" : 												{
													"fontname" : "Arial",
													"fontsize" : 12.0,
													"id" : "obj-5",
													"maxclass" : "newobj",
													"numinlets" : 1,
													"numoutlets" : 4,
													"outlettype" : [ "", "", "", "" ],
													"patching_rect" : [ 121.0, 206.0, 114.0, 20.0 ],
													"saved_object_attributes" : 													{
														"embed" : 0
													}
,
													"text" : "coll resolutionMode"
												}

											}
, 											{
												"box" : 												{
													"fontname" : "Arial",
													"fontsize" : 12.0,
													"id" : "obj-2",
													"maxclass" : "newobj",
													"numinlets" : 1,
													"numoutlets" : 1,
													"outlettype" : [ "" ],
													"patching_rect" : [ 235.0, 276.0, 74.0, 20.0 ],
													"text" : "prepend set"
												}

											}
, 											{
												"box" : 												{
													"comment" : "",
													"id" : "obj-1",
													"maxclass" : "outlet",
													"numinlets" : 1,
													"numoutlets" : 0,
													"patching_rect" : [ 217.5, 356.0, 25.0, 25.0 ]
												}

											}
, 											{
												"box" : 												{
													"comment" : "",
													"id" : "obj-53",
													"maxclass" : "inlet",
													"numinlets" : 0,
													"numoutlets" : 1,
													"outlettype" : [ "" ],
													"patching_rect" : [ 100.0, 40.0, 25.0, 25.0 ]
												}

											}
 ],
										"lines" : [ 											{
												"patchline" : 												{
													"destination" : [ "obj-1", 0 ],
													"disabled" : 0,
													"hidden" : 0,
													"source" : [ "obj-2", 0 ]
												}

											}
, 											{
												"patchline" : 												{
													"destination" : [ "obj-2", 0 ],
													"disabled" : 0,
													"hidden" : 0,
													"source" : [ "obj-5", 0 ]
												}

											}
, 											{
												"patchline" : 												{
													"destination" : [ "obj-9", 0 ],
													"disabled" : 0,
													"hidden" : 0,
													"source" : [ "obj-53", 0 ]
												}

											}
, 											{
												"patchline" : 												{
													"destination" : [ "obj-5", 0 ],
													"disabled" : 0,
													"hidden" : 0,
													"source" : [ "obj-9", 0 ]
												}

											}
 ]
									}
,
									"patching_rect" : [ 431.0, 663.0, 103.0, 20.0 ],
									"saved_object_attributes" : 									{
										"default_fontface" : 0,
										"default_fontname" : "Arial",
										"default_fontsize" : 12.0,
										"description" : "",
										"digest" : "",
										"fontface" : 0,
										"fontname" : "Arial",
										"fontsize" : 12.0,
										"globalpatchername" : "",
										"tags" : ""
									}
,
									"text" : "p resolutionMode"
								}

							}
, 							{
								"box" : 								{
									"color" : [ 0.831373, 0.54902, 0.839216, 1.0 ],
									"fontname" : "Arial",
									"fontsize" : 12.0,
									"id" : "obj-17",
									"linecount" : 2,
									"maxclass" : "newobj",
									"numinlets" : 1,
									"numoutlets" : 3,
									"outlettype" : [ "", "", "" ],
									"patching_rect" : [ 140.5, 623.0, 600.0, 33.0 ],
									"text" : "jcom.parameter dimension @priority 3 @type string @range/clipmode none @repetitions/allow 1 @description \"set dimension of video\"",
									"varname" : "path[4]"
								}

							}
, 							{
								"box" : 								{
									"fontface" : 1,
									"fontname" : "Arial",
									"fontsize" : 10.426503,
									"frgb" : 0.0,
									"id" : "obj-46",
									"maxclass" : "comment",
									"numinlets" : 1,
									"numoutlets" : 0,
									"patching_rect" : [ 116.5, 45.0, 185.0, 18.0 ],
									"presentation" : 1,
									"presentation_rect" : [ 60.0, 31.0, 179.0, 18.0 ],
									"text" : "A module for playback of video",
									"textcolor" : [ 0.612708, 0.118032, 0.432078, 1.0 ]
								}

							}
, 							{
								"box" : 								{
									"id" : "obj-43",
									"ignoreclick" : 1,
									"maxclass" : "pictctrl",
									"name" : "RDPJamomaLogo.png",
									"numinlets" : 1,
									"numoutlets" : 1,
									"outlettype" : [ "int" ],
									"parameter_enable" : 0,
									"patching_rect" : [ 47.0, 18.0, 45.0, 45.0 ],
									"presentation" : 1,
									"presentation_rect" : [ 5.0, 5.0, 45.0, 45.0 ],
									"varname" : "logo[1]"
								}

							}
, 							{
								"box" : 								{
									"comment" : "",
									"id" : "obj-58",
									"maxclass" : "inlet",
									"numinlets" : 0,
									"numoutlets" : 1,
									"outlettype" : [ "" ],
									"patching_rect" : [ 10.5, 34.0, 25.0, 25.0 ]
								}

							}
, 							{
								"box" : 								{
									"fontname" : "Arial",
									"fontsize" : 12.0,
									"id" : "obj-51",
									"maxclass" : "newobj",
									"numinlets" : 1,
									"numoutlets" : 2,
									"outlettype" : [ "", "" ],
									"patching_rect" : [ 10.5, 142.0, 69.0, 20.0 ],
									"save" : [ "#N", "thispatcher", ";", "#Q", "end", ";" ],
									"text" : "thispatcher"
								}

							}
, 							{
								"box" : 								{
									"fontname" : "Arial",
									"fontsize" : 12.0,
									"id" : "obj-50",
									"maxclass" : "newobj",
									"numinlets" : 1,
									"numoutlets" : 1,
									"outlettype" : [ "" ],
									"patching_rect" : [ 116.5, 97.0, 77.0, 20.0 ],
									"text" : "prepend title"
								}

							}
, 							{
								"box" : 								{
									"fontname" : "Arial",
									"fontsize" : 12.0,
									"id" : "obj-49",
									"maxclass" : "newobj",
									"numinlets" : 1,
									"numoutlets" : 1,
									"outlettype" : [ "front" ],
									"patching_rect" : [ 10.5, 97.0, 41.0, 20.0 ],
									"text" : "t front"
								}

							}
, 							{
								"box" : 								{
									"fontname" : "Arial",
									"fontsize" : 12.0,
									"id" : "obj-48",
									"maxclass" : "newobj",
									"numinlets" : 1,
									"numoutlets" : 3,
									"outlettype" : [ "", "", "" ],
									"patching_rect" : [ 10.5, 67.0, 231.0, 20.0 ],
									"text" : "jcom.oscroute /view/panel /module_name"
								}

							}
, 							{
								"box" : 								{
									"fontname" : "Arial",
									"fontsize" : 20.0,
									"frgb" : 0.0,
									"id" : "obj-33",
									"maxclass" : "comment",
									"numinlets" : 1,
									"numoutlets" : 0,
									"patching_rect" : [ 92.0, 18.0, 175.0, 29.0 ],
									"presentation" : 1,
									"presentation_rect" : [ 48.0, 10.0, 171.0, 29.0 ],
									"text" : "gl.hap%",
									"textcolor" : [ 0.4, 0.4, 0.4, 1.0 ],
									"varname" : "name"
								}

							}
, 							{
								"box" : 								{
									"bgcolor" : [ 0.854902, 0.854902, 0.854902, 1.0 ],
									"id" : "obj-104",
									"maxclass" : "panel",
									"numinlets" : 1,
									"numoutlets" : 0,
									"patching_rect" : [ 488.375, 18.0, 85.0, 51.5 ],
									"presentation" : 1,
									"presentation_rect" : [ 2.0, 2.0, 247.0, 52.0 ],
									"rounded" : 4
								}

							}
, 							{
								"box" : 								{
									"bgcolor" : [ 0.858824, 0.858824, 0.858824, 1.0 ],
									"id" : "obj-106",
									"maxclass" : "panel",
									"numinlets" : 1,
									"numoutlets" : 0,
									"patching_rect" : [ 315.375, 18.0, 85.0, 51.5 ],
									"presentation" : 1,
									"presentation_rect" : [ 2.0, 213.0, 247.0, 21.0 ],
									"rounded" : 4
								}

							}
, 							{
								"box" : 								{
									"bgcolor" : [ 0.858824, 0.858824, 0.858824, 1.0 ],
									"id" : "obj-105",
									"maxclass" : "panel",
									"numinlets" : 1,
									"numoutlets" : 0,
									"patching_rect" : [ 401.375, 18.0, 85.0, 51.5 ],
									"presentation" : 1,
									"presentation_rect" : [ 2.0, 56.0, 247.0, 25.0 ],
									"rounded" : 4
								}

							}
, 							{
								"box" : 								{
									"annotation" : "loop points in video file",
									"bgcolor" : [ 1.0, 1.0, 1.0, 0.0 ],
									"bordercolor" : [ 0.501961, 0.501961, 0.501961, 0.0 ],
									"drawline" : 0,
									"fgcolor" : [ 0.612708, 0.118032, 0.432078, 1.0 ],
									"id" : "obj-68",
									"listmode" : 1,
									"maxclass" : "rslider",
									"numinlets" : 2,
									"numoutlets" : 2,
									"outlettype" : [ "", "" ],
									"parameter_enable" : 0,
									"patching_rect" : [ 45.0, 900.5, 193.54541, 26.0 ],
									"presentation" : 1,
									"presentation_rect" : [ 6.0, 87.0, 237.788605, 21.0 ],
									"size" : 2.0
								}

							}
, 							{
								"box" : 								{
									"bgcolor" : [ 0.858824, 0.858824, 0.858824, 0.0 ],
									"border" : 1,
									"bordercolor" : [ 0.537255, 0.537255, 0.537255, 1.0 ],
									"id" : "obj-70",
									"maxclass" : "panel",
									"numinlets" : 1,
									"numoutlets" : 0,
									"patching_rect" : [ 572.932068, 18.0, 36.135868, 24.848484 ],
									"presentation" : 1,
									"presentation_rect" : [ 6.0, 88.0, 237.788605, 18.0 ],
									"rounded" : 1
								}

							}
, 							{
								"box" : 								{
									"bgcolor" : [ 0.858824, 0.858824, 0.858824, 1.0 ],
									"id" : "obj-77",
									"maxclass" : "panel",
									"numinlets" : 1,
									"numoutlets" : 0,
									"patching_rect" : [ 609.067932, 18.0, 85.0, 51.5 ],
									"presentation" : 1,
									"presentation_rect" : [ 2.0, 83.0, 247.0, 127.0 ],
									"rounded" : 4
								}

							}
 ],
						"lines" : [ 							{
								"patchline" : 								{
									"destination" : [ "obj-99", 0 ],
									"disabled" : 0,
									"hidden" : 0,
									"source" : [ "obj-1", 1 ]
								}

							}
, 							{
								"patchline" : 								{
									"destination" : [ "obj-36", 0 ],
									"disabled" : 0,
									"hidden" : 0,
									"midpoints" : [ 503.0, 504.0, 294.625, 504.0, 294.625, 504.0, 86.25, 504.0 ],
									"source" : [ "obj-107", 0 ]
								}

							}
, 							{
								"patchline" : 								{
									"destination" : [ "obj-109", 0 ],
									"disabled" : 0,
									"hidden" : 0,
									"source" : [ "obj-108", 0 ]
								}

							}
, 							{
								"patchline" : 								{
									"destination" : [ "obj-108", 0 ],
									"disabled" : 0,
									"hidden" : 0,
									"source" : [ "obj-109", 0 ]
								}

							}
, 							{
								"patchline" : 								{
									"destination" : [ "obj-88", 0 ],
									"disabled" : 0,
									"hidden" : 0,
									"source" : [ "obj-11", 0 ]
								}

							}
, 							{
								"patchline" : 								{
									"destination" : [ "obj-36", 0 ],
									"disabled" : 0,
									"hidden" : 0,
									"midpoints" : [ 380.5, 496.0, 86.25, 496.0 ],
									"source" : [ "obj-13", 0 ]
								}

							}
, 							{
								"patchline" : 								{
									"destination" : [ "obj-32", 0 ],
									"disabled" : 0,
									"hidden" : 0,
									"source" : [ "obj-14", 0 ]
								}

							}
, 							{
								"patchline" : 								{
									"destination" : [ "obj-107", 2 ],
									"disabled" : 0,
									"hidden" : 0,
									"midpoints" : [ 455.25, 593.0, 776.0, 593.0, 776.0, 465.0, 559.0, 465.0 ],
									"source" : [ "obj-15", 1 ]
								}

							}
, 							{
								"patchline" : 								{
									"destination" : [ "obj-40", 0 ],
									"disabled" : 0,
									"hidden" : 0,
									"source" : [ "obj-16", 0 ]
								}

							}
, 							{
								"patchline" : 								{
									"destination" : [ "obj-54", 0 ],
									"disabled" : 0,
									"hidden" : 0,
									"source" : [ "obj-17", 1 ]
								}

							}
, 							{
								"patchline" : 								{
									"destination" : [ "obj-107", 0 ],
									"disabled" : 0,
									"hidden" : 0,
									"midpoints" : [ 700.5, 468.0, 503.0, 468.0 ],
									"source" : [ "obj-19", 0 ]
								}

							}
, 							{
								"patchline" : 								{
									"destination" : [ "obj-35", 0 ],
									"disabled" : 0,
									"hidden" : 0,
									"midpoints" : [ 700.5, 459.0, 86.25, 459.0 ],
									"source" : [ "obj-19", 0 ]
								}

							}
, 							{
								"patchline" : 								{
									"destination" : [ "obj-56", 0 ],
									"disabled" : 0,
									"hidden" : 0,
									"source" : [ "obj-2", 0 ]
								}

							}
, 							{
								"patchline" : 								{
									"destination" : [ "obj-24", 0 ],
									"disabled" : 0,
									"hidden" : 0,
									"source" : [ "obj-20", 1 ]
								}

							}
, 							{
								"patchline" : 								{
									"destination" : [ "obj-67", 1 ],
									"disabled" : 0,
									"hidden" : 0,
									"source" : [ "obj-22", 0 ]
								}

							}
, 							{
								"patchline" : 								{
									"destination" : [ "obj-22", 0 ],
									"disabled" : 0,
									"hidden" : 0,
									"midpoints" : [ 84.5, 969.5, 264.5, 969.5 ],
									"source" : [ "obj-23", 1 ]
								}

							}
, 							{
								"patchline" : 								{
									"destination" : [ "obj-65", 0 ],
									"disabled" : 0,
									"hidden" : 0,
									"midpoints" : [ 54.5, 970.5, 54.5, 970.5 ],
									"source" : [ "obj-23", 0 ]
								}

							}
, 							{
								"patchline" : 								{
									"destination" : [ "obj-17", 0 ],
									"disabled" : 0,
									"hidden" : 0,
									"source" : [ "obj-24", 0 ]
								}

							}
, 							{
								"patchline" : 								{
									"destination" : [ "obj-7", 0 ],
									"disabled" : 0,
									"hidden" : 0,
									"source" : [ "obj-25", 0 ]
								}

							}
, 							{
								"patchline" : 								{
									"destination" : [ "obj-28", 0 ],
									"disabled" : 0,
									"hidden" : 0,
									"source" : [ "obj-26", 1 ]
								}

							}
, 							{
								"patchline" : 								{
									"destination" : [ "obj-68", 0 ],
									"disabled" : 0,
									"hidden" : 0,
									"midpoints" : [ 193.5, 1133.5, 30.0, 1133.5, 30.0, 888.5, 54.5, 888.5 ],
									"source" : [ "obj-26", 0 ]
								}

							}
, 							{
								"patchline" : 								{
									"destination" : [ "obj-30", 0 ],
									"disabled" : 0,
									"hidden" : 0,
									"source" : [ "obj-27", 1 ]
								}

							}
, 							{
								"patchline" : 								{
									"destination" : [ "obj-29", 0 ],
									"disabled" : 0,
									"hidden" : 0,
									"source" : [ "obj-28", 1 ]
								}

							}
, 							{
								"patchline" : 								{
									"destination" : [ "obj-3", 0 ],
									"disabled" : 0,
									"hidden" : 0,
									"source" : [ "obj-28", 0 ]
								}

							}
, 							{
								"patchline" : 								{
									"destination" : [ "obj-22", 0 ],
									"disabled" : 0,
									"hidden" : 0,
									"midpoints" : [ 567.0, 1187.5, 820.0, 1187.5, 820.0, 968.5, 264.5, 968.5 ],
									"source" : [ "obj-29", 0 ]
								}

							}
, 							{
								"patchline" : 								{
									"destination" : [ "obj-65", 0 ],
									"disabled" : 0,
									"hidden" : 0,
									"midpoints" : [ 486.0, 1187.5, 30.0, 1187.5, 30.0, 980.5, 54.5, 980.5 ],
									"source" : [ "obj-3", 0 ]
								}

							}
, 							{
								"patchline" : 								{
									"destination" : [ "obj-38", 0 ],
									"disabled" : 0,
									"hidden" : 0,
									"source" : [ "obj-30", 1 ]
								}

							}
, 							{
								"patchline" : 								{
									"destination" : [ "obj-14", 0 ],
									"disabled" : 0,
									"hidden" : 0,
									"source" : [ "obj-32", 0 ]
								}

							}
, 							{
								"patchline" : 								{
									"destination" : [ "obj-36", 0 ],
									"disabled" : 0,
									"hidden" : 0,
									"midpoints" : [ 86.25, 501.0, 86.25, 501.0 ],
									"source" : [ "obj-35", 0 ]
								}

							}
, 							{
								"patchline" : 								{
									"destination" : [ "obj-15", 0 ],
									"disabled" : 0,
									"hidden" : 0,
									"source" : [ "obj-36", 1 ]
								}

							}
, 							{
								"patchline" : 								{
									"destination" : [ "obj-6", 0 ],
									"disabled" : 0,
									"hidden" : 0,
									"source" : [ "obj-37", 0 ]
								}

							}
, 							{
								"patchline" : 								{
									"destination" : [ "obj-27", 0 ],
									"disabled" : 0,
									"hidden" : 0,
									"source" : [ "obj-38", 0 ]
								}

							}
, 							{
								"patchline" : 								{
									"destination" : [ "obj-52", 0 ],
									"disabled" : 0,
									"hidden" : 0,
									"source" : [ "obj-4", 0 ]
								}

							}
, 							{
								"patchline" : 								{
									"destination" : [ "obj-22", 0 ],
									"disabled" : 0,
									"hidden" : 0,
									"midpoints" : [ 27.5, 843.5, 264.5, 843.5 ],
									"source" : [ "obj-40", 0 ]
								}

							}
, 							{
								"patchline" : 								{
									"destination" : [ "obj-23", 0 ],
									"disabled" : 0,
									"hidden" : 0,
									"midpoints" : [ 41.0, 937.5, 54.5, 937.5 ],
									"source" : [ "obj-40", 1 ]
								}

							}
, 							{
								"patchline" : 								{
									"destination" : [ "obj-61", 0 ],
									"disabled" : 0,
									"hidden" : 0,
									"source" : [ "obj-40", 2 ]
								}

							}
, 							{
								"patchline" : 								{
									"destination" : [ "obj-49", 0 ],
									"disabled" : 0,
									"hidden" : 0,
									"source" : [ "obj-48", 0 ]
								}

							}
, 							{
								"patchline" : 								{
									"destination" : [ "obj-50", 0 ],
									"disabled" : 0,
									"hidden" : 0,
									"source" : [ "obj-48", 1 ]
								}

							}
, 							{
								"patchline" : 								{
									"destination" : [ "obj-51", 0 ],
									"disabled" : 0,
									"hidden" : 0,
									"source" : [ "obj-49", 0 ]
								}

							}
, 							{
								"patchline" : 								{
									"destination" : [ "obj-51", 0 ],
									"disabled" : 0,
									"hidden" : 0,
									"midpoints" : [ 126.0, 129.0, 20.0, 129.0 ],
									"source" : [ "obj-50", 0 ]
								}

							}
, 							{
								"patchline" : 								{
									"destination" : [ "obj-1", 0 ],
									"disabled" : 0,
									"hidden" : 0,
									"source" : [ "obj-52", 0 ]
								}

							}
, 							{
								"patchline" : 								{
									"destination" : [ "obj-20", 0 ],
									"disabled" : 0,
									"hidden" : 0,
									"source" : [ "obj-54", 0 ]
								}

							}
, 							{
								"patchline" : 								{
									"destination" : [ "obj-71", 0 ],
									"disabled" : 0,
									"hidden" : 0,
									"source" : [ "obj-56", 0 ]
								}

							}
, 							{
								"patchline" : 								{
									"destination" : [ "obj-48", 0 ],
									"disabled" : 0,
									"hidden" : 0,
									"source" : [ "obj-58", 0 ]
								}

							}
, 							{
								"patchline" : 								{
									"destination" : [ "obj-37", 0 ],
									"disabled" : 0,
									"hidden" : 0,
									"source" : [ "obj-6", 0 ]
								}

							}
, 							{
								"patchline" : 								{
									"destination" : [ "obj-68", 0 ],
									"disabled" : 0,
									"hidden" : 0,
									"source" : [ "obj-61", 0 ]
								}

							}
, 							{
								"patchline" : 								{
									"destination" : [ "obj-67", 0 ],
									"disabled" : 0,
									"hidden" : 0,
									"source" : [ "obj-65", 0 ]
								}

							}
, 							{
								"patchline" : 								{
									"destination" : [ "obj-26", 0 ],
									"disabled" : 0,
									"hidden" : 0,
									"midpoints" : [ 54.5, 1058.5, 193.5, 1058.5 ],
									"source" : [ "obj-67", 0 ]
								}

							}
, 							{
								"patchline" : 								{
									"destination" : [ "obj-23", 0 ],
									"disabled" : 0,
									"hidden" : 0,
									"source" : [ "obj-68", 0 ]
								}

							}
, 							{
								"patchline" : 								{
									"destination" : [ "obj-56", 0 ],
									"disabled" : 0,
									"hidden" : 0,
									"source" : [ "obj-71", 0 ]
								}

							}
, 							{
								"patchline" : 								{
									"destination" : [ "obj-11", 0 ],
									"disabled" : 0,
									"hidden" : 0,
									"source" : [ "obj-88", 0 ]
								}

							}
, 							{
								"patchline" : 								{
									"destination" : [ "obj-107", 1 ],
									"disabled" : 0,
									"hidden" : 0,
									"source" : [ "obj-91", 0 ]
								}

							}
, 							{
								"patchline" : 								{
									"destination" : [ "obj-13", 0 ],
									"disabled" : 0,
									"hidden" : 0,
									"source" : [ "obj-99", 0 ]
								}

							}
, 							{
								"patchline" : 								{
									"destination" : [ "obj-91", 0 ],
									"disabled" : 0,
									"hidden" : 0,
									"source" : [ "obj-99", 1 ]
								}

							}
 ]
					}
,
					"patching_rect" : [ 723.833252, 458.0, 71.0, 20.0 ],
					"saved_object_attributes" : 					{
						"default_fontface" : 0,
						"default_fontname" : "Arial",
						"default_fontsize" : 12.0,
						"description" : "",
						"digest" : "",
						"fontface" : 0,
						"fontname" : "Arial",
						"fontsize" : 12.0,
						"globalpatchername" : "",
						"tags" : ""
					}
,
					"text" : "p #0-player"
				}

			}
, 			{
				"box" : 				{
					"has_panel" : 1,
					"id" : "obj-6",
					"maxclass" : "jcom.ui",
					"numinlets" : 1,
					"numoutlets" : 1,
					"outlettype" : [ "" ],
					"patching_rect" : [ 19.0, 17.0, 300.0, 70.0 ],
					"presentation" : 1,
					"presentation_rect" : [ 0.0, 0.0, 150.0, 35.0 ],
					"text" : "/editing_this_module"
				}

			}
, 			{
				"box" : 				{
					"color" : [ 1.0, 0.917074, 0.324974, 1.0 ],
					"fontname" : "Arial",
					"fontsize" : 12.0,
					"id" : "obj-2",
					"maxclass" : "newobj",
					"numinlets" : 1,
					"numoutlets" : 3,
					"outlettype" : [ "jit_gl_texture", "", "int" ],
					"patching_rect" : [ 455.0, 108.0, 93.0, 20.0 ],
					"text" : "jalg.gl.hap% #0"
				}

			}
, 			{
				"box" : 				{
					"color" : [ 0.831373, 0.54902, 0.839216, 1.0 ],
					"fontname" : "Arial",
					"fontsize" : 12.0,
					"id" : "obj-1",
					"maxclass" : "newobj",
					"numinlets" : 1,
					"numoutlets" : 2,
					"outlettype" : [ "", "" ],
					"patching_rect" : [ 455.0, 42.0, 49.0, 20.0 ],
					"text" : "jcom.in"
				}

			}
, 			{
				"box" : 				{
					"color" : [ 0.831373, 0.54902, 0.839216, 1.0 ],
					"fontname" : "Arial",
					"fontsize" : 12.0,
					"id" : "obj-8",
					"linecount" : 2,
					"maxclass" : "newobj",
					"numinlets" : 1,
					"numoutlets" : 2,
					"outlettype" : [ "", "" ],
					"patching_rect" : [ 492.0, 207.0, 369.0, 33.0 ],
					"text" : "jcom.return loopnotify @type generic @repetitions/allow 1 @description \"notify at loop end\"",
					"varname" : "loopnotify"
				}

			}
 ],
		"lines" : [ 			{
				"patchline" : 				{
					"destination" : [ "obj-2", 0 ],
					"disabled" : 0,
					"hidden" : 0,
					"midpoints" : [ 464.5, 97.5, 464.5, 97.5 ],
					"source" : [ "obj-1", 0 ]
				}

			}
, 			{
				"patchline" : 				{
					"destination" : [ "obj-11", 0 ],
					"disabled" : 0,
					"hidden" : 0,
					"midpoints" : [ 113.5, 240.0, 73.5, 240.0 ],
					"source" : [ "obj-10", 0 ]
				}

			}
, 			{
				"patchline" : 				{
					"destination" : [ "obj-27", 0 ],
					"disabled" : 0,
					"hidden" : 0,
					"source" : [ "obj-11", 0 ]
				}

			}
, 			{
				"patchline" : 				{
					"destination" : [ "obj-9", 0 ],
					"disabled" : 0,
					"hidden" : 0,
					"midpoints" : [ 73.5, 294.0, 147.5, 294.0 ],
					"source" : [ "obj-11", 0 ]
				}

			}
, 			{
				"patchline" : 				{
					"destination" : [ "obj-103", 0 ],
					"disabled" : 0,
					"hidden" : 0,
					"source" : [ "obj-12", 0 ]
				}

			}
, 			{
				"patchline" : 				{
					"destination" : [ "obj-23", 0 ],
					"disabled" : 0,
					"hidden" : 0,
					"source" : [ "obj-12", 1 ]
				}

			}
, 			{
				"patchline" : 				{
					"destination" : [ "obj-20", 0 ],
					"disabled" : 0,
					"hidden" : 0,
					"source" : [ "obj-19", 0 ]
				}

			}
, 			{
				"patchline" : 				{
					"destination" : [ "obj-17", 0 ],
					"disabled" : 0,
					"hidden" : 0,
					"source" : [ "obj-2", 2 ]
				}

			}
, 			{
				"patchline" : 				{
					"destination" : [ "obj-3", 0 ],
					"disabled" : 0,
					"hidden" : 0,
					"source" : [ "obj-2", 0 ]
				}

			}
, 			{
				"patchline" : 				{
					"destination" : [ "obj-8", 0 ],
					"disabled" : 0,
					"hidden" : 0,
					"source" : [ "obj-2", 1 ]
				}

			}
, 			{
				"patchline" : 				{
					"destination" : [ "obj-11", 0 ],
					"disabled" : 0,
					"hidden" : 0,
					"midpoints" : [ 249.5, 244.0, 73.5, 244.0 ],
					"source" : [ "obj-20", 0 ]
				}

			}
, 			{
				"patchline" : 				{
					"destination" : [ "obj-103", 0 ],
					"disabled" : 0,
					"hidden" : 0,
					"midpoints" : [ 793.333252, 443.0, 733.333252, 443.0 ],
					"source" : [ "obj-23", 0 ]
				}

			}
, 			{
				"patchline" : 				{
					"destination" : [ "obj-11", 0 ],
					"disabled" : 0,
					"hidden" : 0,
					"source" : [ "obj-25", 0 ]
				}

			}
, 			{
				"patchline" : 				{
					"destination" : [ "obj-28", 0 ],
					"disabled" : 0,
					"hidden" : 0,
					"source" : [ "obj-3", 0 ]
				}

			}
, 			{
				"patchline" : 				{
					"destination" : [ "obj-7", 0 ],
					"disabled" : 0,
					"hidden" : 0,
					"source" : [ "obj-4", 0 ]
				}

			}
, 			{
				"patchline" : 				{
					"destination" : [ "obj-12", 0 ],
					"disabled" : 0,
					"hidden" : 0,
					"source" : [ "obj-7", 1 ]
				}

			}
, 			{
				"patchline" : 				{
					"destination" : [ "obj-103", 0 ],
					"disabled" : 0,
					"hidden" : 0,
					"midpoints" : [ 267.5, 443.0, 733.333252, 443.0 ],
					"source" : [ "obj-9", 1 ]
				}

			}
, 			{
				"patchline" : 				{
					"destination" : [ "obj-103", 0 ],
					"disabled" : 0,
					"hidden" : 0,
					"midpoints" : [ 147.5, 443.0, 733.333252, 443.0 ],
					"source" : [ "obj-9", 0 ]
				}

			}
 ],
		"dependency_cache" : [ 			{
				"name" : "jalg.gl.hap%.maxpat",
				"bootpath" : "/Users/pozo/Dropbox/GitHub/rdpozo_Modules/video/OpenGL/gl.hap/lib",
				"patcherrelativepath" : "./lib",
				"type" : "JSON",
				"implicit" : 1
			}
, 			{
				"name" : "jcom.thru.maxpat",
				"bootpath" : "/Applications/Max 6.1/Cycling '74/Jamoma/library/components/thru",
				"patcherrelativepath" : "../../../../../../../../Applications/Max 6.1/Cycling '74/Jamoma/library/components/thru",
				"type" : "JSON",
				"implicit" : 1
			}
, 			{
				"name" : "loopMode.txt",
				"bootpath" : "/Users/pozo/Dropbox/GitHub/rdpozo_Modules/video/Jitter/jit.qt.movie/lib",
				"patcherrelativepath" : "../../Jitter/jit.qt.movie/lib",
				"type" : "TEXT",
				"implicit" : 1
			}
, 			{
				"name" : "RDPJamomaLogo.png",
				"bootpath" : "/Users/pozo/Dropbox/GitHub/rdpozo_Modules/_Dependencies",
				"patcherrelativepath" : "../../../_Dependencies",
				"type" : "PNG ",
				"implicit" : 1
			}
, 			{
				"name" : "resolutionMode.txt",
				"bootpath" : "/Users/pozo/Dropbox/GitHub/rdpozo_Modules/video/Jitter/jit.qt.movie/lib",
				"patcherrelativepath" : "../../Jitter/jit.qt.movie/lib",
				"type" : "TEXT",
				"implicit" : 1
			}
, 			{
				"name" : "jcom.parameterCreate.maxpat",
				"bootpath" : "/Applications/Max 6.1/Cycling '74/Jamoma/library/components/parameterCreate",
				"patcherrelativepath" : "../../../../../../../../Applications/Max 6.1/Cycling '74/Jamoma/library/components/parameterCreate",
				"type" : "JSON",
				"implicit" : 1
			}
, 			{
				"name" : "jcom.return.mxo",
				"type" : "iLaX"
			}
, 			{
				"name" : "jcom.in.mxo",
				"type" : "iLaX"
			}
, 			{
				"name" : "jit.gl.hap.mxo",
				"type" : "iLaX"
			}
, 			{
				"name" : "jcom.oscroute.mxo",
				"type" : "iLaX"
			}
, 			{
				"name" : "jcom.ui.mxo",
				"type" : "iLaX"
			}
, 			{
				"name" : "jcom.parameter.mxo",
				"type" : "iLaX"
			}
, 			{
				"name" : "jcom.init.mxo",
				"type" : "iLaX"
			}
, 			{
				"name" : "jcom.message.mxo",
				"type" : "iLaX"
			}
, 			{
				"name" : "jcom.hub.mxo",
				"type" : "iLaX"
			}
, 			{
				"name" : "jcom.map.mxo",
				"type" : "iLaX"
			}
, 			{
				"name" : "jcom.dataspace.mxo",
				"type" : "iLaX"
			}
, 			{
				"name" : "jcom.pass.mxo",
				"type" : "iLaX"
			}
, 			{
				"name" : "jcom.out.mxo",
				"type" : "iLaX"
			}
 ]
	}

}
