max v2;#N vpatcher 549 458 1149 858;#N comlet index of input;#P hidden inlet 200 40 15 0;#P window setfont "Sans Serif" 9.;#P hidden newex 182 92 112 196617 prepend texture_index;#N comlet menu selection index;#P hidden outlet 182 128 15 0;#P hidden newex 60 86 62 196617 prepend set;#P window setfont Silkscreen 9.;#P user ubumenu 0 0 119 189857801 0 1 1 0;#X setrgb 0 0 0 255 255 255 230 230 230 0 0 0 141 141 141 112 112 112;#X add Input 1;#X add Input 2;#X add Effects Chain 1;#X add Effects Chain 2;#X add Open GL;#X add Effects Out;#X prefix_set 0 0 <none> 0;#X pattrmode 1;#P window setfont "Sans Serif" 9.;#P hidden user ubumenu 0 49 145 196617 0 0 0 0;#X setrgb 0 0 0 255 255 255 230 230 230 0 0 0 141 141 141 112 112 112;#X add v001.Input1Texture;#X add v001.Input2Texture;#X add v001.EffectsChain1Texture;#X add v001.EffectsChain2Texture;#X add v001.OpenGLContextTexture;#X add v001.GPUFXOut;#X prefix_set 0 0 <none> 0;#X pattrmode 1;#N comlet recieve ouput;#P hidden outlet 60 127 15 0;#P hidden newex 60 106 14 196617 r;#P hidden connect 7 0 3 0;#P hidden connect 3 0 2 0;#P hidden connect 2 1 4 0;#P hidden connect 4 0 0 0;#P hidden connect 0 0 1 0;#P hidden connect 3 0 6 0;#P hidden connect 6 0 5 0;#P pop;