{
	"patcher" : 	{
		"fileversion" : 1,
		"appversion" : 		{
			"major" : 6,
			"minor" : 0,
			"revision" : 5
		}
,
		"rect" : [ 0.0, 56.0, 1440.0, 806.0 ],
		"bglocked" : 0,
		"openinpresentation" : 0,
		"default_fontsize" : 12.0,
		"default_fontface" : 0,
		"default_fontname" : "Arial",
		"gridonopen" : 0,
		"gridsize" : [ 15.0, 15.0 ],
		"gridsnaponopen" : 0,
		"statusbarvisible" : 2,
		"toolbarvisible" : 1,
		"boxanimatetime" : 200,
		"imprint" : 0,
		"enablehscroll" : 1,
		"enablevscroll" : 1,
		"devicewidth" : 0.0,
		"description" : "",
		"digest" : "",
		"tags" : "",
		"boxes" : [ 			{
				"box" : 				{
					"fontname" : "Arial",
					"fontsize" : 12.0,
					"id" : "obj-31",
					"maxclass" : "newobj",
					"numinlets" : 1,
					"numoutlets" : 3,
					"outlettype" : [ "clear", "clear", "bang" ],
					"patching_rect" : [ 695.923096, 628.0, 83.0, 20.0 ],
					"text" : "t clear clear b"
				}

			}
, 			{
				"box" : 				{
					"id" : "obj-39",
					"maxclass" : "button",
					"numinlets" : 1,
					"numoutlets" : 1,
					"outlettype" : [ "bang" ],
					"patching_rect" : [ 870.0, 246.0, 20.0, 20.0 ]
				}

			}
, 			{
				"box" : 				{
					"fontname" : "Arial",
					"fontsize" : 12.0,
					"id" : "obj-33",
					"maxclass" : "message",
					"numinlets" : 2,
					"numoutlets" : 1,
					"outlettype" : [ "" ],
					"patching_rect" : [ 699.730774, 765.431885, 32.5, 18.0 ],
					"text" : "-1"
				}

			}
, 			{
				"box" : 				{
					"fontname" : "Arial",
					"fontsize" : 12.0,
					"id" : "obj-14",
					"maxclass" : "newobj",
					"numinlets" : 2,
					"numoutlets" : 1,
					"outlettype" : [ "" ],
					"patching_rect" : [ 627.230774, 833.0, 51.0, 20.0 ],
					"text" : "pack s i"
				}

			}
, 			{
				"box" : 				{
					"fontname" : "Arial",
					"fontsize" : 12.0,
					"id" : "obj-16",
					"maxclass" : "newobj",
					"numinlets" : 1,
					"numoutlets" : 2,
					"outlettype" : [ "", "bang" ],
					"patching_rect" : [ 627.230774, 764.431885, 51.0, 20.0 ],
					"text" : "t s b"
				}

			}
, 			{
				"box" : 				{
					"fontname" : "Arial",
					"fontsize" : 12.0,
					"id" : "obj-27",
					"maxclass" : "newobj",
					"numinlets" : 5,
					"numoutlets" : 4,
					"outlettype" : [ "int", "", "", "int" ],
					"patching_rect" : [ 659.230774, 800.0, 73.0, 20.0 ],
					"text" : "counter"
				}

			}
, 			{
				"box" : 				{
					"fontname" : "Arial",
					"fontsize" : 13.0,
					"id" : "obj-41",
					"maxclass" : "newobj",
					"numinlets" : 1,
					"numoutlets" : 1,
					"outlettype" : [ "" ],
					"patching_rect" : [ 627.230774, 860.0, 93.0, 21.0 ],
					"text" : "prepend store"
				}

			}
, 			{
				"box" : 				{
					"fontname" : "Arial",
					"fontsize" : 12.0,
					"id" : "obj-11",
					"maxclass" : "newobj",
					"numinlets" : 1,
					"numoutlets" : 4,
					"outlettype" : [ "", "", "", "" ],
					"patching_rect" : [ 627.230774, 891.0, 123.0, 20.0 ],
					"saved_object_attributes" : 					{
						"embed" : 0
					}
,
					"text" : "coll #1-chord-presets"
				}

			}
, 			{
				"box" : 				{
					"fontname" : "Arial",
					"fontsize" : 12.0,
					"id" : "obj-128",
					"maxclass" : "message",
					"numinlets" : 2,
					"numoutlets" : 1,
					"outlettype" : [ "" ],
					"patching_rect" : [ 51.269226, 272.0, 515.0, 18.0 ],
					"text" : "blackkeycolor 0. 0. 0. 0, bordercolor 0.5 0.5 0.5 1., hkeycolor 1 0. 0. $1, whitekeycolor 1. 1. 1. 0"
				}

			}
, 			{
				"box" : 				{
					"fontname" : "Arial",
					"fontsize" : 12.0,
					"id" : "obj-125",
					"maxclass" : "newobj",
					"numinlets" : 1,
					"numoutlets" : 0,
					"patching_rect" : [ 373.5, 781.0, 132.0, 20.0 ],
					"text" : "s #1-kslide-4-right-inlet"
				}

			}
, 			{
				"box" : 				{
					"fontname" : "Arial",
					"fontsize" : 12.0,
					"id" : "obj-126",
					"maxclass" : "newobj",
					"numinlets" : 1,
					"numoutlets" : 0,
					"patching_rect" : [ 38.0, 781.0, 125.0, 20.0 ],
					"text" : "s #1-kslide-4-left-inlet"
				}

			}
, 			{
				"box" : 				{
					"fontname" : "Arial",
					"fontsize" : 12.0,
					"id" : "obj-124",
					"maxclass" : "newobj",
					"numinlets" : 1,
					"numoutlets" : 0,
					"patching_rect" : [ 24.5, 737.0, 125.0, 20.0 ],
					"text" : "s #1-kslide-3-left-inlet"
				}

			}
, 			{
				"box" : 				{
					"fontname" : "Arial",
					"fontsize" : 12.0,
					"id" : "obj-122",
					"maxclass" : "message",
					"numinlets" : 2,
					"numoutlets" : 1,
					"outlettype" : [ "" ],
					"patching_rect" : [ 24.5, 700.0, 545.0, 18.0 ],
					"text" : "blackkeycolor 0. 0. 0. $1, bordercolor 0.67 0.7 0.72 $1, hkeycolor 1. 1. 1. 0., whitekeycolor 1. 1. 1. $1"
				}

			}
, 			{
				"box" : 				{
					"fontname" : "Arial",
					"fontsize" : 12.0,
					"id" : "obj-120",
					"maxclass" : "newobj",
					"numinlets" : 1,
					"numoutlets" : 0,
					"patching_rect" : [ 373.5, 668.0, 132.0, 20.0 ],
					"text" : "s #1-kslide-2-right-inlet"
				}

			}
, 			{
				"box" : 				{
					"fontname" : "Arial",
					"fontsize" : 12.0,
					"id" : "obj-119",
					"maxclass" : "newobj",
					"numinlets" : 1,
					"numoutlets" : 0,
					"patching_rect" : [ 38.0, 668.0, 125.0, 20.0 ],
					"text" : "s #1-kslide-2-left-inlet"
				}

			}
, 			{
				"box" : 				{
					"fontname" : "Arial",
					"fontsize" : 12.0,
					"id" : "obj-118",
					"maxclass" : "message",
					"numinlets" : 2,
					"numoutlets" : 1,
					"outlettype" : [ "" ],
					"patching_rect" : [ 38.0, 636.0, 518.0, 18.0 ],
					"text" : "blackkeycolor 0. 0. 0. 0, bordercolor 0.5 0.5 0.5 0., hkeycolor 0. 1. 0. $1, whitekeycolor 1. 1. 1. 0"
				}

			}
, 			{
				"box" : 				{
					"fontname" : "Arial",
					"fontsize" : 12.0,
					"id" : "obj-116",
					"maxclass" : "message",
					"numinlets" : 2,
					"numoutlets" : 1,
					"outlettype" : [ "" ],
					"patching_rect" : [ 1153.0, 201.0, 78.0, 18.0 ],
					"text" : "deletePreset"
				}

			}
, 			{
				"box" : 				{
					"fontname" : "Arial",
					"fontsize" : 12.0,
					"id" : "obj-114",
					"maxclass" : "newobj",
					"numinlets" : 2,
					"numoutlets" : 1,
					"outlettype" : [ "" ],
					"patching_rect" : [ 824.0, 171.0, 91.0, 20.0 ],
					"text" : "pack ch 0"
				}

			}
, 			{
				"box" : 				{
					"fontname" : "Arial",
					"fontsize" : 12.0,
					"id" : "obj-113",
					"maxclass" : "message",
					"numinlets" : 2,
					"numoutlets" : 1,
					"outlettype" : [ "" ],
					"patching_rect" : [ 824.0, 146.0, 58.0, 18.0 ],
					"text" : "presetter"
				}

			}
, 			{
				"box" : 				{
					"fontname" : "Arial",
					"fontsize" : 12.0,
					"id" : "obj-110",
					"maxclass" : "message",
					"numinlets" : 2,
					"numoutlets" : 1,
					"outlettype" : [ "" ],
					"patching_rect" : [ 740.0, 232.0, 80.0, 18.0 ],
					"text" : "ReadPresets"
				}

			}
, 			{
				"box" : 				{
					"fontname" : "Arial",
					"fontsize" : 12.0,
					"id" : "obj-108",
					"maxclass" : "newobj",
					"numinlets" : 2,
					"numoutlets" : 1,
					"outlettype" : [ "bang" ],
					"patching_rect" : [ 740.0, 202.0, 50.0, 20.0 ],
					"text" : "del 505"
				}

			}
, 			{
				"box" : 				{
					"fontname" : "Arial",
					"fontsize" : 12.0,
					"id" : "obj-107",
					"maxclass" : "newobj",
					"numinlets" : 1,
					"numoutlets" : 1,
					"outlettype" : [ "bang" ],
					"patching_rect" : [ 740.0, 177.0, 60.0, 20.0 ],
					"text" : "loadbang"
				}

			}
, 			{
				"box" : 				{
					"fontname" : "Arial",
					"fontsize" : 12.0,
					"id" : "obj-104",
					"maxclass" : "message",
					"numinlets" : 2,
					"numoutlets" : 1,
					"outlettype" : [ "" ],
					"patching_rect" : [ 643.0, 202.0, 66.0, 18.0 ],
					"text" : "dynamicer"
				}

			}
, 			{
				"box" : 				{
					"fontname" : "Arial",
					"fontsize" : 12.0,
					"id" : "obj-105",
					"maxclass" : "newobj",
					"numinlets" : 2,
					"numoutlets" : 1,
					"outlettype" : [ "" ],
					"patching_rect" : [ 643.0, 232.0, 81.0, 20.0 ],
					"text" : "pack ch 0"
				}

			}
, 			{
				"box" : 				{
					"fontname" : "Arial",
					"fontsize" : 12.0,
					"id" : "obj-102",
					"maxclass" : "message",
					"numinlets" : 2,
					"numoutlets" : 1,
					"outlettype" : [ "" ],
					"patching_rect" : [ 555.230774, 202.0, 50.0, 18.0 ],
					"text" : "octaver"
				}

			}
, 			{
				"box" : 				{
					"fontname" : "Arial",
					"fontsize" : 12.0,
					"id" : "obj-103",
					"maxclass" : "newobj",
					"numinlets" : 2,
					"numoutlets" : 1,
					"outlettype" : [ "" ],
					"patching_rect" : [ 555.230774, 232.0, 62.0, 20.0 ],
					"text" : "pack ch 0"
				}

			}
, 			{
				"box" : 				{
					"fontname" : "Arial",
					"fontsize" : 12.0,
					"id" : "obj-100",
					"maxclass" : "message",
					"numinlets" : 2,
					"numoutlets" : 1,
					"outlettype" : [ "" ],
					"patching_rect" : [ 484.230774, 202.0, 47.0, 18.0 ],
					"text" : "wurfler"
				}

			}
, 			{
				"box" : 				{
					"fontname" : "Arial",
					"fontsize" : 12.0,
					"id" : "obj-101",
					"maxclass" : "newobj",
					"numinlets" : 2,
					"numoutlets" : 1,
					"outlettype" : [ "" ],
					"patching_rect" : [ 484.230774, 232.0, 62.0, 20.0 ],
					"text" : "pack ch 0"
				}

			}
, 			{
				"box" : 				{
					"fontname" : "Arial",
					"fontsize" : 12.0,
					"id" : "obj-98",
					"maxclass" : "message",
					"numinlets" : 2,
					"numoutlets" : 1,
					"outlettype" : [ "" ],
					"patching_rect" : [ 404.0, 202.0, 58.0, 18.0 ],
					"text" : "spreader"
				}

			}
, 			{
				"box" : 				{
					"fontname" : "Arial",
					"fontsize" : 12.0,
					"id" : "obj-99",
					"maxclass" : "newobj",
					"numinlets" : 2,
					"numoutlets" : 1,
					"outlettype" : [ "" ],
					"patching_rect" : [ 404.0, 232.0, 62.0, 20.0 ],
					"text" : "pack ch 0"
				}

			}
, 			{
				"box" : 				{
					"fontname" : "Arial",
					"fontsize" : 12.0,
					"id" : "obj-96",
					"maxclass" : "message",
					"numinlets" : 2,
					"numoutlets" : 1,
					"outlettype" : [ "" ],
					"patching_rect" : [ 315.0, 202.0, 51.0, 18.0 ],
					"text" : "chorder"
				}

			}
, 			{
				"box" : 				{
					"fontname" : "Arial",
					"fontsize" : 12.0,
					"id" : "obj-97",
					"maxclass" : "newobj",
					"numinlets" : 2,
					"numoutlets" : 1,
					"outlettype" : [ "" ],
					"patching_rect" : [ 315.0, 232.0, 68.0, 20.0 ],
					"text" : "pack ch 0"
				}

			}
, 			{
				"box" : 				{
					"fontname" : "Arial",
					"fontsize" : 12.0,
					"id" : "obj-95",
					"maxclass" : "message",
					"numinlets" : 2,
					"numoutlets" : 1,
					"outlettype" : [ "" ],
					"patching_rect" : [ 242.0, 202.0, 44.0, 18.0 ],
					"text" : "inputF"
				}

			}
, 			{
				"box" : 				{
					"fontname" : "Arial",
					"fontsize" : 12.0,
					"id" : "obj-92",
					"maxclass" : "newobj",
					"numinlets" : 2,
					"numoutlets" : 1,
					"outlettype" : [ "" ],
					"patching_rect" : [ 242.0, 232.0, 62.0, 20.0 ],
					"text" : "pack ch 0"
				}

			}
, 			{
				"box" : 				{
					"comment" : "",
					"id" : "obj-82",
					"maxclass" : "outlet",
					"numinlets" : 1,
					"numoutlets" : 0,
					"patching_rect" : [ 215.07692, 554.5, 25.0, 25.0 ]
				}

			}
, 			{
				"box" : 				{
					"fontname" : "Arial",
					"fontsize" : 12.0,
					"id" : "obj-80",
					"maxclass" : "newobj",
					"numinlets" : 2,
					"numoutlets" : 1,
					"outlettype" : [ "" ],
					"patching_rect" : [ 215.07692, 511.0, 36.0, 20.0 ],
					"text" : "pack"
				}

			}
, 			{
				"box" : 				{
					"fontname" : "Arial",
					"fontsize" : 12.0,
					"id" : "obj-79",
					"maxclass" : "newobj",
					"numinlets" : 2,
					"numoutlets" : 2,
					"outlettype" : [ "int", "int" ],
					"patching_rect" : [ 215.07692, 477.0, 36.0, 20.0 ],
					"text" : "flush"
				}

			}
, 			{
				"box" : 				{
					"fontname" : "Arial",
					"fontsize" : 12.0,
					"id" : "obj-78",
					"maxclass" : "newobj",
					"numinlets" : 2,
					"numoutlets" : 1,
					"outlettype" : [ "" ],
					"patching_rect" : [ 1233.0, 646.0, 88.0, 20.0 ],
					"text" : "pack ch ch"
				}

			}
, 			{
				"box" : 				{
					"fontname" : "Arial",
					"fontsize" : 12.0,
					"id" : "obj-75",
					"maxclass" : "newobj",
					"numinlets" : 1,
					"numoutlets" : 1,
					"outlettype" : [ "" ],
					"patching_rect" : [ 1302.0, 610.0, 59.0, 20.0 ],
					"text" : "tosymbol"
				}

			}
, 			{
				"box" : 				{
					"fontname" : "Arial",
					"fontsize" : 12.0,
					"id" : "obj-74",
					"maxclass" : "message",
					"numinlets" : 2,
					"numoutlets" : 1,
					"outlettype" : [ "" ],
					"patching_rect" : [ 1379.0, 610.0, 32.5, 18.0 ],
					"text" : "end"
				}

			}
, 			{
				"box" : 				{
					"fontname" : "Arial",
					"fontsize" : 12.0,
					"id" : "obj-72",
					"maxclass" : "message",
					"numinlets" : 2,
					"numoutlets" : 1,
					"outlettype" : [ "" ],
					"patching_rect" : [ 1233.0, 610.0, 59.0, 18.0 ],
					"text" : "colldump"
				}

			}
, 			{
				"box" : 				{
					"fontname" : "Arial",
					"fontsize" : 12.0,
					"id" : "obj-70",
					"maxclass" : "newobj",
					"numinlets" : 1,
					"numoutlets" : 4,
					"outlettype" : [ "", "", "", "" ],
					"patching_rect" : [ 1233.0, 558.0, 165.0, 20.0 ],
					"saved_object_attributes" : 					{
						"embed" : 0
					}
,
					"text" : "coll schwarzonatorpresets.txt"
				}

			}
, 			{
				"box" : 				{
					"fontname" : "Arial",
					"fontsize" : 12.0,
					"id" : "obj-65",
					"maxclass" : "message",
					"numinlets" : 2,
					"numoutlets" : 1,
					"outlettype" : [ "" ],
					"patching_rect" : [ 849.0, 214.0, 49.0, 18.0 ],
					"text" : "EditON"
				}

			}
, 			{
				"box" : 				{
					"fontname" : "Arial",
					"fontsize" : 12.0,
					"id" : "obj-63",
					"maxclass" : "message",
					"numinlets" : 2,
					"numoutlets" : 1,
					"outlettype" : [ "" ],
					"patching_rect" : [ 902.0, 214.0, 55.0, 18.0 ],
					"text" : "EditOFF"
				}

			}
, 			{
				"box" : 				{
					"fontname" : "Arial",
					"fontsize" : 12.0,
					"id" : "obj-60",
					"maxclass" : "message",
					"numinlets" : 2,
					"numoutlets" : 1,
					"outlettype" : [ "" ],
					"patching_rect" : [ 1102.330811, 682.0, 39.0, 18.0 ],
					"text" : "close"
				}

			}
, 			{
				"box" : 				{
					"fontname" : "Arial",
					"fontsize" : 12.0,
					"id" : "obj-57",
					"maxclass" : "newobj",
					"numinlets" : 1,
					"numoutlets" : 1,
					"outlettype" : [ "" ],
					"patching_rect" : [ 1102.330811, 719.0, 53.0, 20.0 ],
					"text" : "pcontrol"
				}

			}
, 			{
				"box" : 				{
					"fontname" : "Arial",
					"fontsize" : 12.0,
					"id" : "obj-56",
					"maxclass" : "message",
					"numinlets" : 2,
					"numoutlets" : 1,
					"outlettype" : [ "" ],
					"patching_rect" : [ 1102.330811, 636.0, 96.0, 18.0 ],
					"text" : "SaveUserChord"
				}

			}
, 			{
				"box" : 				{
					"fontname" : "Arial",
					"fontsize" : 12.0,
					"id" : "obj-53",
					"maxclass" : "newobj",
					"numinlets" : 1,
					"numoutlets" : 0,
					"patching_rect" : [ 896.0, 710.0, 35.0, 20.0 ],
					"text" : "s sR"
				}

			}
, 			{
				"box" : 				{
					"fontname" : "Arial",
					"fontsize" : 12.0,
					"id" : "obj-52",
					"maxclass" : "newobj",
					"numinlets" : 2,
					"numoutlets" : 1,
					"outlettype" : [ "" ],
					"patching_rect" : [ 896.0, 668.0, 113.0, 20.0 ],
					"text" : "pack ch ch"
				}

			}
, 			{
				"box" : 				{
					"fontname" : "Arial",
					"fontsize" : 12.0,
					"id" : "obj-51",
					"maxclass" : "message",
					"numinlets" : 2,
					"numoutlets" : 1,
					"outlettype" : [ "" ],
					"patching_rect" : [ 896.0, 636.0, 86.0, 18.0 ],
					"text" : "UserSetName"
				}

			}
, 			{
				"box" : 				{
					"fontname" : "Arial",
					"fontsize" : 12.0,
					"id" : "obj-49",
					"maxclass" : "newobj",
					"numinlets" : 2,
					"numoutlets" : 2,
					"outlettype" : [ "", "" ],
					"patching_rect" : [ 989.784607, 636.0, 61.0, 20.0 ],
					"text" : "route text"
				}

			}
, 			{
				"box" : 				{
					"fontname" : "Arial",
					"fontsize" : 12.0,
					"id" : "obj-46",
					"maxclass" : "newobj",
					"numinlets" : 2,
					"numoutlets" : 1,
					"outlettype" : [ "" ],
					"patching_rect" : [ 805.83075, 585.0, 78.0, 20.0 ],
					"text" : "pack ch 0"
				}

			}
, 			{
				"box" : 				{
					"fontname" : "Arial",
					"fontsize" : 12.0,
					"id" : "obj-45",
					"maxclass" : "message",
					"numinlets" : 2,
					"numoutlets" : 1,
					"outlettype" : [ "" ],
					"patching_rect" : [ 805.83075, 558.0, 59.0, 18.0 ],
					"text" : "keysetter"
				}

			}
, 			{
				"box" : 				{
					"fontname" : "Arial",
					"fontsize" : 12.0,
					"id" : "obj-43",
					"maxclass" : "message",
					"numinlets" : 2,
					"numoutlets" : 1,
					"outlettype" : [ "" ],
					"patching_rect" : [ 750.876953, 501.0, 44.0, 18.0 ],
					"text" : "PrevN"
				}

			}
, 			{
				"box" : 				{
					"fontname" : "Arial",
					"fontsize" : 12.0,
					"id" : "obj-40",
					"maxclass" : "message",
					"numinlets" : 2,
					"numoutlets" : 1,
					"outlettype" : [ "" ],
					"patching_rect" : [ 695.923096, 501.0, 44.0, 18.0 ],
					"text" : "NextN"
				}

			}
, 			{
				"box" : 				{
					"fontname" : "Arial",
					"fontsize" : 12.0,
					"id" : "obj-35",
					"maxclass" : "newobj",
					"numinlets" : 1,
					"numoutlets" : 0,
					"patching_rect" : [ 672.230774, 710.0, 157.0, 20.0 ],
					"text" : "s #1-to-umenu-with-presets"
				}

			}
, 			{
				"box" : 				{
					"fontname" : "Arial",
					"fontsize" : 12.0,
					"id" : "obj-32",
					"maxclass" : "message",
					"numinlets" : 2,
					"numoutlets" : 1,
					"outlettype" : [ "" ],
					"patching_rect" : [ 627.230774, 628.0, 67.0, 18.0 ],
					"text" : "append $1"
				}

			}
, 			{
				"box" : 				{
					"fontname" : "Arial",
					"fontsize" : 12.0,
					"id" : "obj-30",
					"maxclass" : "newobj",
					"numinlets" : 3,
					"numoutlets" : 3,
					"outlettype" : [ "", "", "" ],
					"patching_rect" : [ 627.230774, 558.0, 109.0, 20.0 ],
					"text" : "route add deleteall"
				}

			}
, 			{
				"box" : 				{
					"fontname" : "Arial",
					"fontsize" : 12.0,
					"id" : "obj-28",
					"linecount" : 6,
					"maxclass" : "message",
					"numinlets" : 2,
					"numoutlets" : 1,
					"outlettype" : [ "" ],
					"patching_rect" : [ 970.692261, 357.0, 52.0, 87.0 ],
					"text" : "front, window flags float, window exec"
				}

			}
, 			{
				"box" : 				{
					"fontname" : "Arial",
					"fontsize" : 12.0,
					"id" : "obj-26",
					"maxclass" : "newobj",
					"numinlets" : 5,
					"numoutlets" : 6,
					"outlettype" : [ "", "", "int", "", "", "bang" ],
					"patcher" : 					{
						"fileversion" : 1,
						"appversion" : 						{
							"major" : 6,
							"minor" : 0,
							"revision" : 5
						}
,
						"rect" : [ 50.0, 94.0, 407.0, 187.0 ],
						"bglocked" : 0,
						"openinpresentation" : 1,
						"default_fontsize" : 12.0,
						"default_fontface" : 0,
						"default_fontname" : "Arial",
						"gridonopen" : 0,
						"gridsize" : [ 15.0, 15.0 ],
						"gridsnaponopen" : 0,
						"statusbarvisible" : 2,
						"toolbarvisible" : 1,
						"boxanimatetime" : 200,
						"imprint" : 0,
						"enablehscroll" : 0,
						"enablevscroll" : 1,
						"devicewidth" : 0.0,
						"description" : "",
						"digest" : "",
						"tags" : "",
						"boxes" : [ 							{
								"box" : 								{
									"fontname" : "Arial",
									"fontsize" : 12.0,
									"id" : "obj-18",
									"maxclass" : "newobj",
									"numinlets" : 1,
									"numoutlets" : 2,
									"outlettype" : [ "", "" ],
									"patching_rect" : [ 459.0, 93.0, 69.0, 20.0 ],
									"save" : [ "#N", "thispatcher", ";", "#Q", "end", ";" ],
									"text" : "thispatcher"
								}

							}
, 							{
								"box" : 								{
									"comment" : "",
									"id" : "obj-13",
									"maxclass" : "inlet",
									"numinlets" : 0,
									"numoutlets" : 1,
									"outlettype" : [ "" ],
									"patching_rect" : [ 459.0, 53.0, 25.0, 25.0 ]
								}

							}
, 							{
								"box" : 								{
									"fontname" : "Arial",
									"fontsize" : 12.0,
									"id" : "obj-9",
									"maxclass" : "newobj",
									"numinlets" : 2,
									"numoutlets" : 1,
									"outlettype" : [ "bang" ],
									"patching_rect" : [ 255.0, 282.0, 50.0, 20.0 ],
									"text" : "del 400"
								}

							}
, 							{
								"box" : 								{
									"comment" : "",
									"id" : "obj-14",
									"maxclass" : "outlet",
									"numinlets" : 1,
									"numoutlets" : 0,
									"patching_rect" : [ 361.0, 320.0, 25.0, 25.0 ]
								}

							}
, 							{
								"box" : 								{
									"fontname" : "Arial Bold",
									"fontsize" : 14.0,
									"frgb" : [ 0.360784, 0.360784, 0.360784, 1.0 ],
									"id" : "obj-2",
									"maxclass" : "comment",
									"numinlets" : 1,
									"numoutlets" : 0,
									"patching_rect" : [ 38.0, 214.0, 56.0, 23.0 ],
									"presentation" : 1,
									"presentation_rect" : [ 9.0, 126.0, 56.0, 23.0 ],
									"text" : "Name:",
									"textcolor" : [ 0.360784, 0.360784, 0.360784, 1.0 ]
								}

							}
, 							{
								"box" : 								{
									"fontname" : "Arial",
									"fontsize" : 5.437533,
									"hidden" : 1,
									"id" : "obj-41",
									"maxclass" : "newobj",
									"numinlets" : 0,
									"numoutlets" : 1,
									"outlettype" : [ "" ],
									"patching_rect" : [ 98.0, 115.333344, 22.0, 13.0 ],
									"text" : "r nP"
								}

							}
, 							{
								"box" : 								{
									"bgcolor" : [ 0.403922, 0.109804, 0.701961, 0.0 ],
									"fontface" : 1,
									"fontname" : "Arial",
									"fontsize" : 50.0,
									"id" : "obj-40",
									"maxclass" : "message",
									"numinlets" : 2,
									"numoutlets" : 1,
									"outlettype" : [ "" ],
									"patching_rect" : [ 34.0, 138.0, 83.0, 62.0 ],
									"presentation" : 1,
									"presentation_rect" : [ 5.0, 50.0, 83.0, 62.0 ],
									"text" : "C",
									"textcolor" : [ 0.537255, 0.537255, 0.537255, 1.0 ]
								}

							}
, 							{
								"box" : 								{
									"fontname" : "Arial",
									"fontsize" : 12.0,
									"id" : "obj-39",
									"maxclass" : "newobj",
									"numinlets" : 1,
									"numoutlets" : 0,
									"patching_rect" : [ 596.0, 205.0, 35.0, 20.0 ],
									"text" : "s nP"
								}

							}
, 							{
								"box" : 								{
									"fontname" : "Arial",
									"fontsize" : 12.0,
									"id" : "obj-36",
									"maxclass" : "message",
									"numinlets" : 2,
									"numoutlets" : 1,
									"outlettype" : [ "" ],
									"patching_rect" : [ 833.0, 139.0, 32.5, 18.0 ],
									"text" : "B"
								}

							}
, 							{
								"box" : 								{
									"fontname" : "Arial",
									"fontsize" : 12.0,
									"id" : "obj-35",
									"maxclass" : "message",
									"numinlets" : 2,
									"numoutlets" : 1,
									"outlettype" : [ "" ],
									"patching_rect" : [ 807.0, 139.0, 32.5, 18.0 ],
									"text" : "A#"
								}

							}
, 							{
								"box" : 								{
									"fontname" : "Arial",
									"fontsize" : 12.0,
									"id" : "obj-34",
									"maxclass" : "message",
									"numinlets" : 2,
									"numoutlets" : 1,
									"outlettype" : [ "" ],
									"patching_rect" : [ 781.0, 139.0, 32.5, 18.0 ],
									"text" : "A"
								}

							}
, 							{
								"box" : 								{
									"fontname" : "Arial",
									"fontsize" : 12.0,
									"id" : "obj-33",
									"maxclass" : "message",
									"numinlets" : 2,
									"numoutlets" : 1,
									"outlettype" : [ "" ],
									"patching_rect" : [ 755.0, 139.0, 32.5, 18.0 ],
									"text" : "G#"
								}

							}
, 							{
								"box" : 								{
									"fontname" : "Arial",
									"fontsize" : 12.0,
									"id" : "obj-32",
									"maxclass" : "message",
									"numinlets" : 2,
									"numoutlets" : 1,
									"outlettype" : [ "" ],
									"patching_rect" : [ 729.0, 139.0, 32.5, 18.0 ],
									"text" : "G"
								}

							}
, 							{
								"box" : 								{
									"fontname" : "Arial",
									"fontsize" : 12.0,
									"id" : "obj-31",
									"maxclass" : "message",
									"numinlets" : 2,
									"numoutlets" : 1,
									"outlettype" : [ "" ],
									"patching_rect" : [ 703.0, 139.0, 32.5, 18.0 ],
									"text" : "F#"
								}

							}
, 							{
								"box" : 								{
									"fontname" : "Arial",
									"fontsize" : 12.0,
									"id" : "obj-30",
									"maxclass" : "message",
									"numinlets" : 2,
									"numoutlets" : 1,
									"outlettype" : [ "" ],
									"patching_rect" : [ 677.0, 139.0, 32.5, 18.0 ],
									"text" : "F"
								}

							}
, 							{
								"box" : 								{
									"fontname" : "Arial",
									"fontsize" : 12.0,
									"id" : "obj-29",
									"maxclass" : "message",
									"numinlets" : 2,
									"numoutlets" : 1,
									"outlettype" : [ "" ],
									"patching_rect" : [ 651.0, 139.0, 32.5, 18.0 ],
									"text" : "E"
								}

							}
, 							{
								"box" : 								{
									"fontname" : "Arial",
									"fontsize" : 12.0,
									"id" : "obj-28",
									"maxclass" : "message",
									"numinlets" : 2,
									"numoutlets" : 1,
									"outlettype" : [ "" ],
									"patching_rect" : [ 625.0, 139.0, 32.5, 18.0 ],
									"text" : "D#"
								}

							}
, 							{
								"box" : 								{
									"fontname" : "Arial",
									"fontsize" : 12.0,
									"id" : "obj-27",
									"maxclass" : "message",
									"numinlets" : 2,
									"numoutlets" : 1,
									"outlettype" : [ "" ],
									"patching_rect" : [ 599.0, 139.0, 32.5, 18.0 ],
									"text" : "D"
								}

							}
, 							{
								"box" : 								{
									"fontname" : "Arial",
									"fontsize" : 12.0,
									"id" : "obj-26",
									"maxclass" : "message",
									"numinlets" : 2,
									"numoutlets" : 1,
									"outlettype" : [ "" ],
									"patching_rect" : [ 573.0, 139.0, 32.5, 18.0 ],
									"text" : "C#"
								}

							}
, 							{
								"box" : 								{
									"fontname" : "Arial",
									"fontsize" : 12.0,
									"id" : "obj-25",
									"maxclass" : "message",
									"numinlets" : 2,
									"numoutlets" : 1,
									"outlettype" : [ "" ],
									"patching_rect" : [ 547.0, 139.0, 24.5, 18.0 ],
									"text" : "C"
								}

							}
, 							{
								"box" : 								{
									"fontname" : "Arial",
									"fontsize" : 12.0,
									"id" : "obj-22",
									"maxclass" : "newobj",
									"numinlets" : 13,
									"numoutlets" : 13,
									"outlettype" : [ "bang", "bang", "bang", "bang", "bang", "bang", "bang", "bang", "bang", "bang", "bang", "bang", "" ],
									"patching_rect" : [ 546.0, 94.0, 181.0, 20.0 ],
									"text" : "select 0 1 2 3 4 5 6 7 8 9 10 11"
								}

							}
, 							{
								"box" : 								{
									"fontname" : "Arial Bold",
									"fontsize" : 14.0,
									"id" : "obj-19",
									"maxclass" : "comment",
									"numinlets" : 1,
									"numoutlets" : 0,
									"patching_rect" : [ 105.0, 92.0, 286.0, 23.0 ],
									"presentation" : 1,
									"presentation_rect" : [ 76.0, 4.0, 286.0, 23.0 ],
									"text" : "Set output notes on the keyboard below"
								}

							}
, 							{
								"box" : 								{
									"comment" : "",
									"id" : "obj-17",
									"maxclass" : "outlet",
									"numinlets" : 1,
									"numoutlets" : 0,
									"patching_rect" : [ 136.0, 284.0, 25.0, 25.0 ]
								}

							}
, 							{
								"box" : 								{
									"bgcolor" : [ 1.0, 0.0, 0.0, 1.0 ],
									"bgoncolor" : [ 1.0, 1.0, 0.0, 1.0 ],
									"bgovercolor" : [ 1.0, 0.0, 0.0, 1.0 ],
									"bgoveroncolor" : [ 0.0, 1.0, 0.0, 1.0 ],
									"border" : 1,
									"bordercolor" : [ 0.360784, 0.360784, 0.360784, 1.0 ],
									"borderoncolor" : [ 0.360784, 0.360784, 0.360784, 1.0 ],
									"fontname" : "Arial Bold",
									"fontsize" : 10.0,
									"id" : "obj-16",
									"maxclass" : "textbutton",
									"numinlets" : 1,
									"numoutlets" : 3,
									"outlettype" : [ "", "", "int" ],
									"outputmode" : 0,
									"parameter_enable" : 0,
									"patching_rect" : [ 242.0, 242.0, 70.0, 16.0 ],
									"presentation" : 1,
									"presentation_rect" : [ 213.0, 154.0, 70.0, 16.0 ],
									"rounded" : 0.0,
									"text" : "cancel",
									"textovercolor" : [ 0.211765, 0.066667, 0.12549, 1.0 ]
								}

							}
, 							{
								"box" : 								{
									"bgcolor" : [ 0.403922, 0.109804, 0.701961, 1.0 ],
									"bgcolor2" : [ 0.403922, 0.109804, 0.701961, 1.0 ],
									"fontname" : "Arial Bold",
									"fontsize" : 10.0,
									"id" : "obj-15",
									"maxclass" : "message",
									"numinlets" : 2,
									"numoutlets" : 1,
									"outlettype" : [ "" ],
									"patching_rect" : [ 242.0, 321.0, 106.0, 16.0 ],
									"text" : "set Chord Set Name",
									"textcolor" : [ 1.0, 1.0, 1.0, 1.0 ]
								}

							}
, 							{
								"box" : 								{
									"bgcolor" : [ 0.0, 1.0, 0.0, 1.0 ],
									"bgoncolor" : [ 1.0, 1.0, 0.0, 1.0 ],
									"bgovercolor" : [ 0.0, 1.0, 0.0, 1.0 ],
									"bgoveroncolor" : [ 0.0, 1.0, 0.0, 1.0 ],
									"border" : 1,
									"bordercolor" : [ 0.360784, 0.360784, 0.360784, 1.0 ],
									"borderoncolor" : [ 0.360784, 0.360784, 0.360784, 1.0 ],
									"fontname" : "Arial Bold",
									"fontsize" : 10.0,
									"id" : "obj-8",
									"maxclass" : "textbutton",
									"numinlets" : 1,
									"numoutlets" : 3,
									"outlettype" : [ "", "", "int" ],
									"outputmode" : 0,
									"parameter_enable" : 0,
									"patching_rect" : [ 317.0, 242.0, 70.0, 16.0 ],
									"presentation" : 1,
									"presentation_rect" : [ 288.0, 154.0, 70.0, 16.0 ],
									"rounded" : 0.0,
									"text" : "save",
									"textovercolor" : [ 0.211765, 0.066667, 0.12549, 1.0 ]
								}

							}
, 							{
								"box" : 								{
									"align" : 0,
									"bgcolor" : [ 1.0, 1.0, 0.0, 1.0 ],
									"bgoncolor" : [ 1.0, 1.0, 0.0, 1.0 ],
									"bgovercolor" : [ 1.0, 1.0, 0.0, 1.0 ],
									"bgoveroncolor" : [ 0.0, 1.0, 0.0, 1.0 ],
									"border" : 1,
									"bordercolor" : [ 0.360784, 0.360784, 0.360784, 1.0 ],
									"borderoncolor" : [ 0.360784, 0.360784, 0.360784, 1.0 ],
									"fontname" : "Arial Bold",
									"fontsize" : 10.0,
									"id" : "obj-7",
									"maxclass" : "textbutton",
									"numinlets" : 1,
									"numoutlets" : 3,
									"outlettype" : [ "", "", "int" ],
									"outputmode" : 0,
									"parameter_enable" : 0,
									"patching_rect" : [ 391.0, 147.0, 30.0, 16.0 ],
									"presentation" : 1,
									"presentation_rect" : [ 362.0, 59.0, 30.0, 16.0 ],
									"rounded" : 0.0,
									"text" : "prev",
									"textovercolor" : [ 0.211765, 0.066667, 0.12549, 1.0 ]
								}

							}
, 							{
								"box" : 								{
									"align" : 0,
									"bgcolor" : [ 1.0, 1.0, 0.0, 1.0 ],
									"bgoncolor" : [ 1.0, 1.0, 0.0, 1.0 ],
									"bgovercolor" : [ 1.0, 1.0, 0.0, 1.0 ],
									"bgoveroncolor" : [ 0.0, 1.0, 0.0, 1.0 ],
									"border" : 1,
									"bordercolor" : [ 0.360784, 0.360784, 0.360784, 1.0 ],
									"borderoncolor" : [ 0.360784, 0.360784, 0.360784, 1.0 ],
									"fontname" : "Arial Bold",
									"fontsize" : 10.0,
									"id" : "obj-129",
									"maxclass" : "textbutton",
									"numinlets" : 1,
									"numoutlets" : 3,
									"outlettype" : [ "", "", "int" ],
									"outputmode" : 0,
									"parameter_enable" : 0,
									"patching_rect" : [ 391.0, 128.0, 30.0, 16.0 ],
									"presentation" : 1,
									"presentation_rect" : [ 362.0, 40.0, 30.0, 16.0 ],
									"rounded" : 0.0,
									"text" : "next",
									"textovercolor" : [ 0.211765, 0.066667, 0.12549, 1.0 ]
								}

							}
, 							{
								"box" : 								{
									"fontname" : "Arial",
									"fontsize" : 10.0,
									"id" : "obj-88",
									"maxclass" : "comment",
									"numinlets" : 1,
									"numoutlets" : 0,
									"patching_rect" : [ 399.0, 57.0, 41.0, 18.0 ],
									"text" : "vel Edit"
								}

							}
, 							{
								"box" : 								{
									"fontname" : "Arial",
									"fontsize" : 10.0,
									"id" : "obj-93",
									"maxclass" : "comment",
									"numinlets" : 1,
									"numoutlets" : 0,
									"patching_rect" : [ 157.0, 57.0, 72.0, 18.0 ],
									"text" : "selected Edit"
								}

							}
, 							{
								"box" : 								{
									"fontname" : "Arial",
									"fontsize" : 10.0,
									"id" : "obj-86",
									"maxclass" : "comment",
									"numinlets" : 1,
									"numoutlets" : 0,
									"patching_rect" : [ 263.0, 57.0, 41.0, 18.0 ],
									"text" : "vel"
								}

							}
, 							{
								"box" : 								{
									"fontname" : "Arial",
									"fontsize" : 10.0,
									"id" : "obj-85",
									"maxclass" : "comment",
									"numinlets" : 1,
									"numoutlets" : 0,
									"patching_rect" : [ 63.0, 58.0, 33.0, 18.0 ],
									"text" : "edit"
								}

							}
, 							{
								"box" : 								{
									"comment" : "",
									"id" : "obj-12",
									"maxclass" : "outlet",
									"numinlets" : 1,
									"numoutlets" : 0,
									"patching_rect" : [ 107.0, 285.0, 25.0, 25.0 ]
								}

							}
, 							{
								"box" : 								{
									"comment" : "",
									"id" : "obj-11",
									"maxclass" : "outlet",
									"numinlets" : 1,
									"numoutlets" : 0,
									"patching_rect" : [ 76.0, 285.0, 25.0, 25.0 ]
								}

							}
, 							{
								"box" : 								{
									"comment" : "",
									"id" : "obj-10",
									"maxclass" : "outlet",
									"numinlets" : 1,
									"numoutlets" : 0,
									"patching_rect" : [ 47.0, 284.0, 25.0, 25.0 ]
								}

							}
, 							{
								"box" : 								{
									"comment" : "",
									"id" : "obj-6",
									"maxclass" : "inlet",
									"numinlets" : 0,
									"numoutlets" : 1,
									"outlettype" : [ "" ],
									"patching_rect" : [ 369.0, 53.0, 25.0, 25.0 ]
								}

							}
, 							{
								"box" : 								{
									"comment" : "",
									"id" : "obj-5",
									"maxclass" : "inlet",
									"numinlets" : 0,
									"numoutlets" : 1,
									"outlettype" : [ "" ],
									"patching_rect" : [ 309.0, 53.0, 25.0, 25.0 ]
								}

							}
, 							{
								"box" : 								{
									"comment" : "",
									"id" : "obj-4",
									"maxclass" : "inlet",
									"numinlets" : 0,
									"numoutlets" : 1,
									"outlettype" : [ "" ],
									"patching_rect" : [ 129.0, 53.0, 25.0, 25.0 ]
								}

							}
, 							{
								"box" : 								{
									"comment" : "SAVE",
									"id" : "obj-3",
									"maxclass" : "outlet",
									"numinlets" : 1,
									"numoutlets" : 0,
									"patching_rect" : [ 19.0, 285.0, 25.0, 25.0 ]
								}

							}
, 							{
								"box" : 								{
									"comment" : "",
									"id" : "obj-1",
									"maxclass" : "inlet",
									"numinlets" : 0,
									"numoutlets" : 1,
									"outlettype" : [ "" ],
									"patching_rect" : [ 99.0, 53.0, 25.0, 25.0 ]
								}

							}
, 							{
								"box" : 								{
									"bgcolor" : [ 0.403922, 0.109804, 0.701961, 1.0 ],
									"bgcolor2" : [ 0.403922, 0.109804, 0.701961, 1.0 ],
									"fontname" : "Arial Bold",
									"fontsize" : 10.0,
									"id" : "obj-114",
									"maxclass" : "message",
									"numinlets" : 2,
									"numoutlets" : 1,
									"outlettype" : [ "" ],
									"patching_rect" : [ 317.0, 263.0, 36.0, 16.0 ],
									"text" : "bang",
									"textcolor" : [ 1.0, 1.0, 1.0, 1.0 ]
								}

							}
, 							{
								"box" : 								{
									"autoscroll" : 0,
									"bangmode" : 1,
									"bgcolor" : [ 0.694118, 0.694118, 0.694118, 1.0 ],
									"bordercolor" : [ 0.678431, 0.678431, 0.678431, 0.0 ],
									"clickmode" : 1,
									"fontname" : "Arial Bold",
									"fontsize" : 14.0,
									"id" : "obj-102",
									"keymode" : 1,
									"lines" : 1,
									"maxclass" : "textedit",
									"numinlets" : 1,
									"numoutlets" : 4,
									"outlettype" : [ "", "int", "", "" ],
									"outputmode" : 1,
									"parameter_enable" : 0,
									"patching_rect" : [ 107.0, 216.0, 281.0, 23.0 ],
									"presentation" : 1,
									"presentation_rect" : [ 78.0, 128.0, 281.0, 23.0 ],
									"rounded" : 0.0,
									"tabmode" : 0,
									"text" : "Chord Set Name",
									"wordwrap" : 0
								}

							}
, 							{
								"box" : 								{
									"blackkeycolor" : [ 0.121569, 0.658824, 0.364706, 0.0 ],
									"bordercolor" : [ 0.5, 0.5, 0.5, 1.0 ],
									"hkeycolor" : [ 1.0, 0.0, 0.0, 0.0 ],
									"id" : "obj-100",
									"maxclass" : "kslider",
									"numinlets" : 2,
									"numoutlets" : 2,
									"offset" : 0,
									"outlettype" : [ "int", "int" ],
									"parameter_enable" : 0,
									"patching_rect" : [ 108.0, 128.0, 280.0, 83.0 ],
									"presentation" : 1,
									"presentation_rect" : [ 79.0, 40.0, 280.0, 83.0 ],
									"range" : 24,
									"varname" : "RootNoteDisplay[3]",
									"whitekeycolor" : [ 1.0, 0.07451, 0.07451, 0.0 ]
								}

							}
, 							{
								"box" : 								{
									"bordercolor" : [ 0.5, 0.5, 0.5, 1.0 ],
									"hkeycolor" : [ 1.0, 0.0, 0.0, 1.0 ],
									"id" : "obj-82",
									"ignoreclick" : 1,
									"maxclass" : "kslider",
									"mode" : 1,
									"numinlets" : 2,
									"numoutlets" : 2,
									"offset" : 0,
									"outlettype" : [ "int", "int" ],
									"parameter_enable" : 0,
									"patching_rect" : [ 108.0, 128.0, 280.0, 83.0 ],
									"presentation" : 1,
									"presentation_rect" : [ 79.0, 40.0, 280.0, 83.0 ],
									"range" : 24,
									"varname" : "RootNoteDisplay[1]"
								}

							}
, 							{
								"box" : 								{
									"blackkeycolor" : [ 0.537255, 0.537255, 0.537255, 0.0 ],
									"bordercolor" : [ 0.501961, 0.501961, 0.501961, 0.0 ],
									"hkeycolor" : [ 0.0, 1.0, 0.0, 1.0 ],
									"id" : "obj-94",
									"ignoreclick" : 1,
									"maxclass" : "kslider",
									"mode" : 1,
									"numinlets" : 2,
									"numoutlets" : 2,
									"offset" : 0,
									"outlettype" : [ "int", "int" ],
									"parameter_enable" : 0,
									"patching_rect" : [ 108.0, 115.0, 280.0, 83.0 ],
									"presentation" : 1,
									"presentation_rect" : [ 79.0, 27.0, 280.0, 83.0 ],
									"range" : 24,
									"varname" : "RootNoteDisplay[2]",
									"whitekeycolor" : [ 1.0, 1.0, 1.0, 0.0 ]
								}

							}
 ],
						"lines" : [ 							{
								"patchline" : 								{
									"destination" : [ "obj-82", 0 ],
									"disabled" : 0,
									"hidden" : 1,
									"source" : [ "obj-1", 0 ]
								}

							}
, 							{
								"patchline" : 								{
									"destination" : [ "obj-11", 0 ],
									"disabled" : 0,
									"hidden" : 1,
									"midpoints" : [ 117.5, 213.0, 85.0, 213.0, 85.0, 271.0, 85.5, 271.0 ],
									"source" : [ "obj-100", 0 ]
								}

							}
, 							{
								"patchline" : 								{
									"destination" : [ "obj-12", 0 ],
									"disabled" : 0,
									"hidden" : 1,
									"source" : [ "obj-102", 0 ]
								}

							}
, 							{
								"patchline" : 								{
									"color" : [ 0.945098, 0.913725, 0.407843, 1.0 ],
									"destination" : [ "obj-102", 0 ],
									"disabled" : 0,
									"hidden" : 1,
									"midpoints" : [ 326.5, 285.0, 393.0, 285.0, 393.0, 198.0, 116.5, 198.0 ],
									"source" : [ "obj-114", 0 ]
								}

							}
, 							{
								"patchline" : 								{
									"destination" : [ "obj-9", 0 ],
									"disabled" : 0,
									"hidden" : 0,
									"midpoints" : [ 326.5, 280.0, 307.0, 280.0, 307.0, 280.0, 264.5, 280.0 ],
									"source" : [ "obj-114", 0 ]
								}

							}
, 							{
								"patchline" : 								{
									"destination" : [ "obj-3", 0 ],
									"disabled" : 0,
									"hidden" : 1,
									"midpoints" : [ 400.5, 130.0, 19.0, 130.0, 19.0, 271.0, 28.5, 271.0 ],
									"source" : [ "obj-129", 0 ]
								}

							}
, 							{
								"patchline" : 								{
									"destination" : [ "obj-18", 0 ],
									"disabled" : 0,
									"hidden" : 0,
									"source" : [ "obj-13", 0 ]
								}

							}
, 							{
								"patchline" : 								{
									"destination" : [ "obj-102", 0 ],
									"disabled" : 0,
									"hidden" : 1,
									"midpoints" : [ 251.5, 349.0, 202.0, 349.0, 202.0, 250.0, 103.0, 250.0, 103.0, 213.0, 116.5, 213.0 ],
									"source" : [ "obj-15", 0 ]
								}

							}
, 							{
								"patchline" : 								{
									"destination" : [ "obj-15", 0 ],
									"disabled" : 0,
									"hidden" : 1,
									"source" : [ "obj-16", 0 ]
								}

							}
, 							{
								"patchline" : 								{
									"destination" : [ "obj-17", 0 ],
									"disabled" : 0,
									"hidden" : 1,
									"midpoints" : [ 251.5, 276.0, 145.5, 276.0 ],
									"source" : [ "obj-16", 0 ]
								}

							}
, 							{
								"patchline" : 								{
									"destination" : [ "obj-25", 0 ],
									"disabled" : 0,
									"hidden" : 0,
									"source" : [ "obj-22", 0 ]
								}

							}
, 							{
								"patchline" : 								{
									"destination" : [ "obj-26", 0 ],
									"disabled" : 0,
									"hidden" : 0,
									"source" : [ "obj-22", 1 ]
								}

							}
, 							{
								"patchline" : 								{
									"destination" : [ "obj-27", 0 ],
									"disabled" : 0,
									"hidden" : 0,
									"source" : [ "obj-22", 2 ]
								}

							}
, 							{
								"patchline" : 								{
									"destination" : [ "obj-28", 0 ],
									"disabled" : 0,
									"hidden" : 0,
									"source" : [ "obj-22", 3 ]
								}

							}
, 							{
								"patchline" : 								{
									"destination" : [ "obj-29", 0 ],
									"disabled" : 0,
									"hidden" : 0,
									"source" : [ "obj-22", 4 ]
								}

							}
, 							{
								"patchline" : 								{
									"destination" : [ "obj-30", 0 ],
									"disabled" : 0,
									"hidden" : 0,
									"source" : [ "obj-22", 5 ]
								}

							}
, 							{
								"patchline" : 								{
									"destination" : [ "obj-31", 0 ],
									"disabled" : 0,
									"hidden" : 0,
									"source" : [ "obj-22", 6 ]
								}

							}
, 							{
								"patchline" : 								{
									"destination" : [ "obj-32", 0 ],
									"disabled" : 0,
									"hidden" : 0,
									"source" : [ "obj-22", 7 ]
								}

							}
, 							{
								"patchline" : 								{
									"destination" : [ "obj-33", 0 ],
									"disabled" : 0,
									"hidden" : 0,
									"source" : [ "obj-22", 8 ]
								}

							}
, 							{
								"patchline" : 								{
									"destination" : [ "obj-34", 0 ],
									"disabled" : 0,
									"hidden" : 0,
									"source" : [ "obj-22", 9 ]
								}

							}
, 							{
								"patchline" : 								{
									"destination" : [ "obj-35", 0 ],
									"disabled" : 0,
									"hidden" : 0,
									"source" : [ "obj-22", 10 ]
								}

							}
, 							{
								"patchline" : 								{
									"destination" : [ "obj-36", 0 ],
									"disabled" : 0,
									"hidden" : 0,
									"source" : [ "obj-22", 11 ]
								}

							}
, 							{
								"patchline" : 								{
									"destination" : [ "obj-39", 0 ],
									"disabled" : 0,
									"hidden" : 0,
									"source" : [ "obj-25", 0 ]
								}

							}
, 							{
								"patchline" : 								{
									"destination" : [ "obj-39", 0 ],
									"disabled" : 0,
									"hidden" : 0,
									"source" : [ "obj-26", 0 ]
								}

							}
, 							{
								"patchline" : 								{
									"destination" : [ "obj-39", 0 ],
									"disabled" : 0,
									"hidden" : 0,
									"source" : [ "obj-27", 0 ]
								}

							}
, 							{
								"patchline" : 								{
									"destination" : [ "obj-39", 0 ],
									"disabled" : 0,
									"hidden" : 0,
									"source" : [ "obj-28", 0 ]
								}

							}
, 							{
								"patchline" : 								{
									"destination" : [ "obj-39", 0 ],
									"disabled" : 0,
									"hidden" : 0,
									"source" : [ "obj-29", 0 ]
								}

							}
, 							{
								"patchline" : 								{
									"destination" : [ "obj-39", 0 ],
									"disabled" : 0,
									"hidden" : 0,
									"source" : [ "obj-30", 0 ]
								}

							}
, 							{
								"patchline" : 								{
									"destination" : [ "obj-39", 0 ],
									"disabled" : 0,
									"hidden" : 0,
									"source" : [ "obj-31", 0 ]
								}

							}
, 							{
								"patchline" : 								{
									"destination" : [ "obj-39", 0 ],
									"disabled" : 0,
									"hidden" : 0,
									"source" : [ "obj-32", 0 ]
								}

							}
, 							{
								"patchline" : 								{
									"destination" : [ "obj-39", 0 ],
									"disabled" : 0,
									"hidden" : 0,
									"source" : [ "obj-33", 0 ]
								}

							}
, 							{
								"patchline" : 								{
									"destination" : [ "obj-39", 0 ],
									"disabled" : 0,
									"hidden" : 0,
									"source" : [ "obj-34", 0 ]
								}

							}
, 							{
								"patchline" : 								{
									"destination" : [ "obj-39", 0 ],
									"disabled" : 0,
									"hidden" : 0,
									"source" : [ "obj-35", 0 ]
								}

							}
, 							{
								"patchline" : 								{
									"destination" : [ "obj-39", 0 ],
									"disabled" : 0,
									"hidden" : 0,
									"source" : [ "obj-36", 0 ]
								}

							}
, 							{
								"patchline" : 								{
									"destination" : [ "obj-22", 0 ],
									"disabled" : 0,
									"hidden" : 1,
									"midpoints" : [ 138.5, 81.0, 532.0, 81.0, 532.0, 81.0, 555.5, 81.0 ],
									"source" : [ "obj-4", 0 ]
								}

							}
, 							{
								"patchline" : 								{
									"destination" : [ "obj-94", 0 ],
									"disabled" : 0,
									"hidden" : 1,
									"source" : [ "obj-4", 0 ]
								}

							}
, 							{
								"patchline" : 								{
									"destination" : [ "obj-40", 1 ],
									"disabled" : 0,
									"hidden" : 1,
									"source" : [ "obj-41", 0 ]
								}

							}
, 							{
								"patchline" : 								{
									"destination" : [ "obj-82", 1 ],
									"disabled" : 0,
									"hidden" : 1,
									"source" : [ "obj-5", 0 ]
								}

							}
, 							{
								"patchline" : 								{
									"destination" : [ "obj-94", 1 ],
									"disabled" : 0,
									"hidden" : 1,
									"source" : [ "obj-6", 0 ]
								}

							}
, 							{
								"patchline" : 								{
									"destination" : [ "obj-10", 0 ],
									"disabled" : 0,
									"hidden" : 1,
									"midpoints" : [ 400.5, 271.0, 56.5, 271.0 ],
									"source" : [ "obj-7", 0 ]
								}

							}
, 							{
								"patchline" : 								{
									"color" : [ 0.945098, 0.913725, 0.407843, 1.0 ],
									"destination" : [ "obj-114", 0 ],
									"disabled" : 0,
									"hidden" : 1,
									"source" : [ "obj-8", 0 ]
								}

							}
, 							{
								"patchline" : 								{
									"destination" : [ "obj-14", 0 ],
									"disabled" : 0,
									"hidden" : 0,
									"midpoints" : [ 264.5, 304.0, 370.5, 304.0 ],
									"source" : [ "obj-9", 0 ]
								}

							}
, 							{
								"patchline" : 								{
									"destination" : [ "obj-15", 0 ],
									"disabled" : 0,
									"hidden" : 0,
									"midpoints" : [ 264.5, 304.0, 251.0, 304.0, 251.0, 316.0, 251.5, 316.0 ],
									"source" : [ "obj-9", 0 ]
								}

							}
 ],
						"dependency_cache" : [  ]
					}
,
					"patching_rect" : [ 695.923096, 456.0, 293.769196, 20.0 ],
					"saved_object_attributes" : 					{
						"digest" : "",
						"default_fontname" : "Arial",
						"default_fontsize" : 12.0,
						"description" : "",
						"fontname" : "Arial",
						"tags" : "",
						"globalpatchername" : "",
						"fontface" : 0,
						"fontsize" : 12.0,
						"default_fontface" : 0
					}
,
					"text" : "patcher Edit"
				}

			}
, 			{
				"box" : 				{
					"fontname" : "Arial",
					"fontsize" : 12.0,
					"id" : "obj-25",
					"linecount" : 2,
					"maxclass" : "message",
					"numinlets" : 2,
					"numoutlets" : 1,
					"outlettype" : [ "" ],
					"patching_rect" : [ 643.0, 357.0, 63.0, 32.0 ],
					"text" : "separator _"
				}

			}
, 			{
				"box" : 				{
					"fontname" : "Arial",
					"fontsize" : 12.0,
					"id" : "obj-23",
					"maxclass" : "newobj",
					"numinlets" : 1,
					"numoutlets" : 1,
					"outlettype" : [ "bang" ],
					"patching_rect" : [ 643.0, 332.5, 60.0, 20.0 ],
					"text" : "loadbang"
				}

			}
, 			{
				"box" : 				{
					"fontname" : "Arial",
					"fontsize" : 12.0,
					"id" : "obj-22",
					"maxclass" : "newobj",
					"numinlets" : 1,
					"numoutlets" : 2,
					"outlettype" : [ "bang", "bang" ],
					"patching_rect" : [ 558.538452, 377.0, 64.0, 20.0 ],
					"text" : "bangbang"
				}

			}
, 			{
				"box" : 				{
					"fontname" : "Arial",
					"fontsize" : 12.0,
					"id" : "obj-21",
					"maxclass" : "newobj",
					"numinlets" : 1,
					"numoutlets" : 1,
					"outlettype" : [ "" ],
					"patching_rect" : [ 627.230774, 417.0, 75.0, 20.0 ],
					"text" : "fromsymbol"
				}

			}
, 			{
				"box" : 				{
					"fontname" : "Arial",
					"fontsize" : 12.0,
					"id" : "obj-20",
					"maxclass" : "number",
					"numinlets" : 1,
					"numoutlets" : 2,
					"outlettype" : [ "int", "bang" ],
					"parameter_enable" : 0,
					"patching_rect" : [ 421.153839, 375.0, 50.0, 20.0 ]
				}

			}
, 			{
				"box" : 				{
					"fontname" : "Arial",
					"fontsize" : 12.0,
					"id" : "obj-19",
					"maxclass" : "number",
					"numinlets" : 1,
					"numoutlets" : 2,
					"outlettype" : [ "int", "bang" ],
					"parameter_enable" : 0,
					"patching_rect" : [ 352.461548, 375.0, 50.0, 20.0 ]
				}

			}
, 			{
				"box" : 				{
					"fontname" : "Arial",
					"fontsize" : 12.0,
					"id" : "obj-18",
					"maxclass" : "number",
					"numinlets" : 1,
					"numoutlets" : 2,
					"outlettype" : [ "int", "bang" ],
					"parameter_enable" : 0,
					"patching_rect" : [ 283.769226, 375.0, 50.0, 20.0 ]
				}

			}
, 			{
				"box" : 				{
					"fontname" : "Arial",
					"fontsize" : 12.0,
					"id" : "obj-17",
					"maxclass" : "number",
					"numinlets" : 1,
					"numoutlets" : 2,
					"outlettype" : [ "int", "bang" ],
					"parameter_enable" : 0,
					"patching_rect" : [ 215.07692, 375.0, 50.0, 20.0 ]
				}

			}
, 			{
				"box" : 				{
					"fontname" : "Arial",
					"fontsize" : 12.0,
					"id" : "obj-15",
					"maxclass" : "newobj",
					"numinlets" : 1,
					"numoutlets" : 1,
					"outlettype" : [ "" ],
					"patching_rect" : [ 146.384613, 417.0, 77.0, 20.0 ],
					"text" : "fromsymbol"
				}

			}
, 			{
				"box" : 				{
					"comment" : "",
					"id" : "obj-13",
					"maxclass" : "inlet",
					"numinlets" : 0,
					"numoutlets" : 1,
					"outlettype" : [ "" ],
					"patching_rect" : [ 9.0, 6.0, 25.0, 25.0 ]
				}

			}
, 			{
				"box" : 				{
					"fontname" : "Arial",
					"fontsize" : 12.0,
					"id" : "obj-9",
					"maxclass" : "number",
					"numinlets" : 1,
					"numoutlets" : 2,
					"outlettype" : [ "int", "bang" ],
					"parameter_enable" : 0,
					"patching_rect" : [ 77.692307, 375.0, 50.0, 20.0 ]
				}

			}
, 			{
				"box" : 				{
					"fontname" : "Arial",
					"fontsize" : 12.0,
					"id" : "obj-5",
					"maxclass" : "newobj",
					"numinlets" : 1,
					"numoutlets" : 0,
					"patching_rect" : [ 38.0, 230.0, 125.0, 20.0 ],
					"text" : "s #1-kslide-1-left-inlet"
				}

			}
, 			{
				"box" : 				{
					"fontname" : "Arial",
					"fontsize" : 12.0,
					"id" : "obj-4",
					"maxclass" : "newobj",
					"numinlets" : 1,
					"numoutlets" : 0,
					"patching_rect" : [ 68.0, 201.0, 132.0, 20.0 ],
					"text" : "s #1-kslide-1-right-inlet"
				}

			}
, 			{
				"box" : 				{
					"fontname" : "Arial",
					"fontsize" : 12.0,
					"id" : "obj-3",
					"maxclass" : "newobj",
					"numinlets" : 1,
					"numoutlets" : 2,
					"outlettype" : [ "int", "int" ],
					"patching_rect" : [ 38.0, 171.0, 49.0, 20.0 ],
					"text" : "unpack"
				}

			}
, 			{
				"box" : 				{
					"fontname" : "Arial",
					"fontsize" : 10.0,
					"id" : "obj-93",
					"maxclass" : "comment",
					"numinlets" : 1,
					"numoutlets" : 0,
					"patching_rect" : [ 849.0, 437.0, 72.0, 18.0 ],
					"text" : "selected Edit"
				}

			}
, 			{
				"box" : 				{
					"fontname" : "Arial",
					"fontsize" : 10.0,
					"id" : "obj-86",
					"maxclass" : "comment",
					"numinlets" : 1,
					"numoutlets" : 0,
					"patching_rect" : [ 792.0, 399.0, 41.0, 18.0 ],
					"text" : "vel"
				}

			}
, 			{
				"box" : 				{
					"fontname" : "Arial",
					"fontsize" : 10.0,
					"id" : "obj-85",
					"maxclass" : "comment",
					"numinlets" : 1,
					"numoutlets" : 0,
					"patching_rect" : [ 703.230774, 437.0, 33.0, 18.0 ],
					"text" : "edit"
				}

			}
, 			{
				"box" : 				{
					"fontname" : "Arial",
					"fontsize" : 10.0,
					"id" : "obj-55",
					"maxclass" : "comment",
					"numinlets" : 1,
					"numoutlets" : 0,
					"patching_rect" : [ 644.230774, 399.0, 41.0, 18.0 ],
					"text" : "names"
				}

			}
, 			{
				"box" : 				{
					"fontname" : "Arial",
					"fontsize" : 10.0,
					"id" : "obj-62",
					"linecount" : 2,
					"maxclass" : "comment",
					"numinlets" : 1,
					"numoutlets" : 0,
					"patching_rect" : [ 470.5, 370.0, 64.0, 30.0 ],
					"text" : "Scale to\nLittleBrother"
				}

			}
, 			{
				"box" : 				{
					"fontname" : "Arial",
					"fontsize" : 10.0,
					"id" : "obj-58",
					"maxclass" : "comment",
					"numinlets" : 1,
					"numoutlets" : 0,
					"patching_rect" : [ 572.0, 357.0, 72.0, 18.0 ],
					"text" : "flush"
				}

			}
, 			{
				"box" : 				{
					"fontname" : "Arial",
					"fontsize" : 10.0,
					"id" : "obj-36",
					"linecount" : 3,
					"maxclass" : "comment",
					"numinlets" : 1,
					"numoutlets" : 0,
					"patching_rect" : [ 364.115387, 326.0, 53.384613, 41.0 ],
					"text" : "Notes 4\nChord Display"
				}

			}
, 			{
				"box" : 				{
					"fontname" : "Arial",
					"fontsize" : 10.0,
					"id" : "obj-29",
					"linecount" : 3,
					"maxclass" : "comment",
					"numinlets" : 1,
					"numoutlets" : 0,
					"patching_rect" : [ 435.0, 326.0, 60.0, 41.0 ],
					"text" : "Velocity 4\nChord Display"
				}

			}
, 			{
				"box" : 				{
					"fontname" : "Arial",
					"fontsize" : 10.0,
					"id" : "obj-12",
					"linecount" : 2,
					"maxclass" : "comment",
					"numinlets" : 1,
					"numoutlets" : 0,
					"patching_rect" : [ 291.846161, 345.0, 48.0, 30.0 ],
					"text" : "Out\nVelocity"
				}

			}
, 			{
				"box" : 				{
					"fontname" : "Arial",
					"fontsize" : 10.0,
					"id" : "obj-10",
					"linecount" : 2,
					"maxclass" : "comment",
					"numinlets" : 1,
					"numoutlets" : 0,
					"patching_rect" : [ 223.384613, 345.0, 48.0, 30.0 ],
					"text" : "Out\nNote"
				}

			}
, 			{
				"box" : 				{
					"fontname" : "Arial",
					"fontsize" : 10.0,
					"id" : "obj-8",
					"maxclass" : "comment",
					"numinlets" : 1,
					"numoutlets" : 0,
					"patching_rect" : [ 160.884613, 390.0, 48.0, 18.0 ],
					"text" : "capture"
				}

			}
, 			{
				"box" : 				{
					"fontname" : "Arial",
					"fontsize" : 10.0,
					"id" : "obj-7",
					"linecount" : 2,
					"maxclass" : "comment",
					"numinlets" : 1,
					"numoutlets" : 0,
					"patching_rect" : [ 85.96154, 345.0, 48.0, 30.0 ],
					"text" : "Note\nNumber"
				}

			}
, 			{
				"box" : 				{
					"fontname" : "Arial",
					"fontsize" : 12.0,
					"id" : "obj-2",
					"maxclass" : "newobj",
					"numinlets" : 2,
					"numoutlets" : 14,
					"outlettype" : [ "", "", "", "", "", "", "", "", "", "", "", "", "", "" ],
					"patching_rect" : [ 9.0, 299.0, 912.0, 20.0 ],
					"saved_object_attributes" : 					{
						"parameter_enable" : 0
					}
,
					"text" : "js 20100805_schwarzonator.js"
				}

			}
, 			{
				"box" : 				{
					"fontname" : "Arial",
					"fontsize" : 12.0,
					"id" : "obj-1",
					"linecount" : 2,
					"maxclass" : "newobj",
					"numinlets" : 1,
					"numoutlets" : 14,
					"outlettype" : [ "", "", "", "", "", "", "", "", "", "", "", "", "", "" ],
					"patching_rect" : [ 9.0, 41.0, 593.0, 34.0 ],
					"text" : "jcom.oscroute /midinote /inputFilter /addNotes /spread /random /octave /dynamic /chordPreset /newChordSet /deleteChordSet /noteInChords /noteInSet /sourceNote"
				}

			}
, 			{
				"box" : 				{
					"fontname" : "Arial",
					"fontsize" : 12.0,
					"id" : "obj-24",
					"maxclass" : "message",
					"numinlets" : 2,
					"numoutlets" : 1,
					"outlettype" : [ "" ],
					"patching_rect" : [ 723.230774, 861.0, 50.0, 18.0 ],
					"text" : "clear"
				}

			}
 ],
		"lines" : [ 			{
				"patchline" : 				{
					"destination" : [ "obj-100", 0 ],
					"disabled" : 0,
					"hidden" : 0,
					"midpoints" : [ 195.115387, 186.0, 493.730774, 186.0 ],
					"source" : [ "obj-1", 4 ]
				}

			}
, 			{
				"patchline" : 				{
					"destination" : [ "obj-101", 1 ],
					"disabled" : 0,
					"hidden" : 0,
					"midpoints" : [ 195.115387, 186.0, 536.730774, 186.0 ],
					"source" : [ "obj-1", 4 ]
				}

			}
, 			{
				"patchline" : 				{
					"destination" : [ "obj-102", 0 ],
					"disabled" : 0,
					"hidden" : 0,
					"midpoints" : [ 239.269226, 189.0, 564.730774, 189.0 ],
					"source" : [ "obj-1", 5 ]
				}

			}
, 			{
				"patchline" : 				{
					"destination" : [ "obj-103", 1 ],
					"disabled" : 0,
					"hidden" : 0,
					"midpoints" : [ 239.269226, 189.0, 615.0, 189.0, 615.0, 228.0, 607.730774, 228.0 ],
					"source" : [ "obj-1", 5 ]
				}

			}
, 			{
				"patchline" : 				{
					"destination" : [ "obj-104", 0 ],
					"disabled" : 0,
					"hidden" : 0,
					"midpoints" : [ 283.423065, 189.0, 652.5, 189.0 ],
					"source" : [ "obj-1", 6 ]
				}

			}
, 			{
				"patchline" : 				{
					"destination" : [ "obj-105", 1 ],
					"disabled" : 0,
					"hidden" : 0,
					"midpoints" : [ 283.423065, 189.0, 720.0, 189.0, 720.0, 225.0, 714.5, 225.0 ],
					"source" : [ "obj-1", 6 ]
				}

			}
, 			{
				"patchline" : 				{
					"destination" : [ "obj-11", 0 ],
					"disabled" : 0,
					"hidden" : 0,
					"midpoints" : [ 327.576935, 482.5, 636.730774, 482.5 ],
					"source" : [ "obj-1", 7 ]
				}

			}
, 			{
				"patchline" : 				{
					"destination" : [ "obj-116", 0 ],
					"disabled" : 0,
					"hidden" : 0,
					"midpoints" : [ 415.884613, 132.0, 1162.5, 132.0 ],
					"source" : [ "obj-1", 9 ]
				}

			}
, 			{
				"patchline" : 				{
					"destination" : [ "obj-118", 0 ],
					"disabled" : 0,
					"hidden" : 0,
					"midpoints" : [ 460.038452, 156.0, 6.0, 156.0, 6.0, 621.0, 47.5, 621.0 ],
					"source" : [ "obj-1", 10 ]
				}

			}
, 			{
				"patchline" : 				{
					"destination" : [ "obj-122", 0 ],
					"disabled" : 0,
					"hidden" : 0,
					"midpoints" : [ 504.192322, 156.0, 6.0, 156.0, 6.0, 687.0, 34.0, 687.0 ],
					"source" : [ "obj-1", 11 ]
				}

			}
, 			{
				"patchline" : 				{
					"destination" : [ "obj-128", 0 ],
					"disabled" : 0,
					"hidden" : 0,
					"midpoints" : [ 548.34613, 189.0, 210.0, 189.0, 210.0, 246.0, 60.769226, 246.0 ],
					"source" : [ "obj-1", 12 ]
				}

			}
, 			{
				"patchline" : 				{
					"destination" : [ "obj-2", 0 ],
					"disabled" : 0,
					"hidden" : 0,
					"midpoints" : [ 18.5, 75.0, 18.5, 75.0 ],
					"source" : [ "obj-1", 0 ]
				}

			}
, 			{
				"patchline" : 				{
					"destination" : [ "obj-28", 0 ],
					"disabled" : 0,
					"hidden" : 0,
					"midpoints" : [ 371.730774, 132.0, 933.0, 132.0, 933.0, 201.0, 980.192261, 201.0 ],
					"source" : [ "obj-1", 8 ]
				}

			}
, 			{
				"patchline" : 				{
					"destination" : [ "obj-3", 0 ],
					"disabled" : 0,
					"hidden" : 0,
					"midpoints" : [ 18.5, 156.0, 47.5, 156.0 ],
					"source" : [ "obj-1", 0 ]
				}

			}
, 			{
				"patchline" : 				{
					"destination" : [ "obj-65", 0 ],
					"disabled" : 0,
					"hidden" : 0,
					"midpoints" : [ 371.730774, 162.0, 810.0, 162.0, 810.0, 201.0, 858.5, 201.0 ],
					"source" : [ "obj-1", 8 ]
				}

			}
, 			{
				"patchline" : 				{
					"destination" : [ "obj-92", 1 ],
					"disabled" : 0,
					"hidden" : 0,
					"midpoints" : [ 62.653847, 156.0, 297.0, 156.0, 297.0, 228.0, 294.5, 228.0 ],
					"source" : [ "obj-1", 1 ]
				}

			}
, 			{
				"patchline" : 				{
					"destination" : [ "obj-95", 0 ],
					"disabled" : 0,
					"hidden" : 0,
					"midpoints" : [ 62.653847, 156.0, 251.5, 156.0 ],
					"source" : [ "obj-1", 1 ]
				}

			}
, 			{
				"patchline" : 				{
					"destination" : [ "obj-96", 0 ],
					"disabled" : 0,
					"hidden" : 0,
					"midpoints" : [ 106.807693, 156.0, 324.5, 156.0 ],
					"source" : [ "obj-1", 2 ]
				}

			}
, 			{
				"patchline" : 				{
					"destination" : [ "obj-97", 1 ],
					"disabled" : 0,
					"hidden" : 0,
					"midpoints" : [ 106.807693, 156.0, 378.0, 156.0, 378.0, 225.0, 373.5, 225.0 ],
					"source" : [ "obj-1", 2 ]
				}

			}
, 			{
				"patchline" : 				{
					"destination" : [ "obj-98", 0 ],
					"disabled" : 0,
					"hidden" : 0,
					"midpoints" : [ 150.961533, 186.0, 413.5, 186.0 ],
					"source" : [ "obj-1", 3 ]
				}

			}
, 			{
				"patchline" : 				{
					"destination" : [ "obj-99", 1 ],
					"disabled" : 0,
					"hidden" : 0,
					"midpoints" : [ 150.961533, 186.0, 462.0, 186.0, 462.0, 225.0, 456.5, 225.0 ],
					"source" : [ "obj-1", 3 ]
				}

			}
, 			{
				"patchline" : 				{
					"destination" : [ "obj-101", 0 ],
					"disabled" : 0,
					"hidden" : 0,
					"source" : [ "obj-100", 0 ]
				}

			}
, 			{
				"patchline" : 				{
					"destination" : [ "obj-2", 1 ],
					"disabled" : 0,
					"hidden" : 0,
					"midpoints" : [ 493.730774, 275.0, 911.5, 275.0 ],
					"source" : [ "obj-101", 0 ]
				}

			}
, 			{
				"patchline" : 				{
					"destination" : [ "obj-103", 0 ],
					"disabled" : 0,
					"hidden" : 0,
					"source" : [ "obj-102", 0 ]
				}

			}
, 			{
				"patchline" : 				{
					"destination" : [ "obj-2", 1 ],
					"disabled" : 0,
					"hidden" : 0,
					"midpoints" : [ 564.730774, 275.0, 911.5, 275.0 ],
					"source" : [ "obj-103", 0 ]
				}

			}
, 			{
				"patchline" : 				{
					"destination" : [ "obj-105", 0 ],
					"disabled" : 0,
					"hidden" : 0,
					"source" : [ "obj-104", 0 ]
				}

			}
, 			{
				"patchline" : 				{
					"destination" : [ "obj-2", 1 ],
					"disabled" : 0,
					"hidden" : 0,
					"midpoints" : [ 652.5, 275.0, 911.5, 275.0 ],
					"source" : [ "obj-105", 0 ]
				}

			}
, 			{
				"patchline" : 				{
					"destination" : [ "obj-108", 0 ],
					"disabled" : 0,
					"hidden" : 0,
					"source" : [ "obj-107", 0 ]
				}

			}
, 			{
				"patchline" : 				{
					"destination" : [ "obj-110", 0 ],
					"disabled" : 0,
					"hidden" : 0,
					"source" : [ "obj-108", 0 ]
				}

			}
, 			{
				"patchline" : 				{
					"destination" : [ "obj-113", 0 ],
					"disabled" : 0,
					"hidden" : 0,
					"midpoints" : [ 636.730774, 921.0, 831.0, 921.0, 831.0, 741.0, 882.0, 741.0, 882.0, 615.0, 1032.0, 615.0, 1032.0, 195.0, 927.0, 195.0, 927.0, 132.0, 833.5, 132.0 ],
					"source" : [ "obj-11", 0 ]
				}

			}
, 			{
				"patchline" : 				{
					"destination" : [ "obj-114", 1 ],
					"disabled" : 0,
					"hidden" : 0,
					"midpoints" : [ 636.730774, 921.0, 831.0, 921.0, 831.0, 741.0, 882.0, 741.0, 882.0, 615.0, 1032.0, 615.0, 1032.0, 195.0, 927.0, 195.0, 927.0, 168.0, 905.5, 168.0 ],
					"source" : [ "obj-11", 0 ]
				}

			}
, 			{
				"patchline" : 				{
					"destination" : [ "obj-2", 1 ],
					"disabled" : 0,
					"hidden" : 0,
					"midpoints" : [ 749.5, 274.0, 911.5, 274.0 ],
					"source" : [ "obj-110", 0 ]
				}

			}
, 			{
				"patchline" : 				{
					"destination" : [ "obj-114", 0 ],
					"disabled" : 0,
					"hidden" : 0,
					"source" : [ "obj-113", 0 ]
				}

			}
, 			{
				"patchline" : 				{
					"destination" : [ "obj-2", 1 ],
					"disabled" : 0,
					"hidden" : 0,
					"midpoints" : [ 833.5, 203.0, 833.0, 203.0, 833.0, 283.0, 911.5, 283.0 ],
					"source" : [ "obj-114", 0 ]
				}

			}
, 			{
				"patchline" : 				{
					"destination" : [ "obj-2", 1 ],
					"disabled" : 0,
					"hidden" : 0,
					"midpoints" : [ 1162.5, 310.0, 969.0, 310.0, 969.0, 286.0, 911.5, 286.0 ],
					"source" : [ "obj-116", 0 ]
				}

			}
, 			{
				"patchline" : 				{
					"destination" : [ "obj-119", 0 ],
					"disabled" : 0,
					"hidden" : 0,
					"source" : [ "obj-118", 0 ]
				}

			}
, 			{
				"patchline" : 				{
					"destination" : [ "obj-124", 0 ],
					"disabled" : 0,
					"hidden" : 0,
					"source" : [ "obj-122", 0 ]
				}

			}
, 			{
				"patchline" : 				{
					"destination" : [ "obj-5", 0 ],
					"disabled" : 0,
					"hidden" : 0,
					"source" : [ "obj-128", 0 ]
				}

			}
, 			{
				"patchline" : 				{
					"destination" : [ "obj-1", 0 ],
					"disabled" : 0,
					"hidden" : 0,
					"source" : [ "obj-13", 0 ]
				}

			}
, 			{
				"patchline" : 				{
					"destination" : [ "obj-41", 0 ],
					"disabled" : 0,
					"hidden" : 0,
					"source" : [ "obj-14", 0 ]
				}

			}
, 			{
				"patchline" : 				{
					"destination" : [ "obj-70", 0 ],
					"disabled" : 0,
					"hidden" : 0,
					"midpoints" : [ 155.884613, 536.0, 1242.5, 536.0 ],
					"source" : [ "obj-15", 0 ]
				}

			}
, 			{
				"patchline" : 				{
					"destination" : [ "obj-14", 0 ],
					"disabled" : 0,
					"hidden" : 0,
					"midpoints" : [ 636.730774, 786.0, 636.730774, 786.0 ],
					"source" : [ "obj-16", 0 ]
				}

			}
, 			{
				"patchline" : 				{
					"destination" : [ "obj-27", 0 ],
					"disabled" : 0,
					"hidden" : 0,
					"source" : [ "obj-16", 1 ]
				}

			}
, 			{
				"patchline" : 				{
					"destination" : [ "obj-119", 0 ],
					"disabled" : 0,
					"hidden" : 0,
					"midpoints" : [ 224.57692, 458.0, 47.5, 458.0 ],
					"source" : [ "obj-17", 0 ]
				}

			}
, 			{
				"patchline" : 				{
					"destination" : [ "obj-79", 0 ],
					"disabled" : 0,
					"hidden" : 0,
					"source" : [ "obj-17", 0 ]
				}

			}
, 			{
				"patchline" : 				{
					"destination" : [ "obj-120", 0 ],
					"disabled" : 0,
					"hidden" : 0,
					"midpoints" : [ 293.269226, 621.0, 567.0, 621.0, 567.0, 666.0, 507.0, 666.0, 507.0, 663.0, 383.0, 663.0 ],
					"source" : [ "obj-18", 0 ]
				}

			}
, 			{
				"patchline" : 				{
					"destination" : [ "obj-79", 1 ],
					"disabled" : 0,
					"hidden" : 0,
					"midpoints" : [ 293.269226, 440.0, 241.57692, 440.0 ],
					"source" : [ "obj-18", 0 ]
				}

			}
, 			{
				"patchline" : 				{
					"destination" : [ "obj-126", 0 ],
					"disabled" : 0,
					"hidden" : 0,
					"midpoints" : [ 361.961548, 621.0, 9.0, 621.0, 9.0, 768.0, 47.5, 768.0 ],
					"source" : [ "obj-19", 0 ]
				}

			}
, 			{
				"patchline" : 				{
					"destination" : [ "obj-15", 0 ],
					"disabled" : 0,
					"hidden" : 0,
					"source" : [ "obj-2", 2 ]
				}

			}
, 			{
				"patchline" : 				{
					"destination" : [ "obj-17", 0 ],
					"disabled" : 0,
					"hidden" : 0,
					"source" : [ "obj-2", 3 ]
				}

			}
, 			{
				"patchline" : 				{
					"destination" : [ "obj-18", 0 ],
					"disabled" : 0,
					"hidden" : 0,
					"source" : [ "obj-2", 4 ]
				}

			}
, 			{
				"patchline" : 				{
					"destination" : [ "obj-19", 0 ],
					"disabled" : 0,
					"hidden" : 0,
					"source" : [ "obj-2", 5 ]
				}

			}
, 			{
				"patchline" : 				{
					"destination" : [ "obj-20", 0 ],
					"disabled" : 0,
					"hidden" : 0,
					"source" : [ "obj-2", 6 ]
				}

			}
, 			{
				"patchline" : 				{
					"destination" : [ "obj-21", 0 ],
					"disabled" : 0,
					"hidden" : 0,
					"source" : [ "obj-2", 9 ]
				}

			}
, 			{
				"patchline" : 				{
					"destination" : [ "obj-22", 0 ],
					"disabled" : 0,
					"hidden" : 0,
					"source" : [ "obj-2", 8 ]
				}

			}
, 			{
				"patchline" : 				{
					"destination" : [ "obj-26", 3 ],
					"disabled" : 0,
					"hidden" : 0,
					"source" : [ "obj-2", 13 ]
				}

			}
, 			{
				"patchline" : 				{
					"destination" : [ "obj-26", 1 ],
					"disabled" : 0,
					"hidden" : 0,
					"midpoints" : [ 842.807678, 424.0, 774.115417, 424.0 ],
					"source" : [ "obj-2", 12 ]
				}

			}
, 			{
				"patchline" : 				{
					"destination" : [ "obj-26", 2 ],
					"disabled" : 0,
					"hidden" : 0,
					"midpoints" : [ 774.115356, 424.0, 842.807678, 424.0 ],
					"source" : [ "obj-2", 11 ]
				}

			}
, 			{
				"patchline" : 				{
					"destination" : [ "obj-26", 0 ],
					"disabled" : 0,
					"hidden" : 0,
					"source" : [ "obj-2", 10 ]
				}

			}
, 			{
				"patchline" : 				{
					"destination" : [ "obj-9", 0 ],
					"disabled" : 0,
					"hidden" : 0,
					"source" : [ "obj-2", 1 ]
				}

			}
, 			{
				"patchline" : 				{
					"destination" : [ "obj-125", 0 ],
					"disabled" : 0,
					"hidden" : 0,
					"midpoints" : [ 430.653839, 621.0, 579.0, 621.0, 579.0, 768.0, 383.0, 768.0 ],
					"source" : [ "obj-20", 0 ]
				}

			}
, 			{
				"patchline" : 				{
					"destination" : [ "obj-30", 0 ],
					"disabled" : 0,
					"hidden" : 0,
					"source" : [ "obj-21", 0 ]
				}

			}
, 			{
				"patchline" : 				{
					"destination" : [ "obj-79", 0 ],
					"disabled" : 0,
					"hidden" : 0,
					"midpoints" : [ 568.038452, 472.0, 224.57692, 472.0 ],
					"source" : [ "obj-22", 0 ]
				}

			}
, 			{
				"patchline" : 				{
					"destination" : [ "obj-25", 0 ],
					"disabled" : 0,
					"hidden" : 0,
					"source" : [ "obj-23", 0 ]
				}

			}
, 			{
				"patchline" : 				{
					"destination" : [ "obj-11", 0 ],
					"disabled" : 0,
					"hidden" : 0,
					"source" : [ "obj-24", 0 ]
				}

			}
, 			{
				"patchline" : 				{
					"destination" : [ "obj-21", 0 ],
					"disabled" : 0,
					"hidden" : 0,
					"midpoints" : [ 652.5, 397.0, 636.730774, 397.0 ],
					"source" : [ "obj-25", 0 ]
				}

			}
, 			{
				"patchline" : 				{
					"destination" : [ "obj-40", 0 ],
					"disabled" : 0,
					"hidden" : 0,
					"source" : [ "obj-26", 0 ]
				}

			}
, 			{
				"patchline" : 				{
					"destination" : [ "obj-43", 0 ],
					"disabled" : 0,
					"hidden" : 0,
					"source" : [ "obj-26", 1 ]
				}

			}
, 			{
				"patchline" : 				{
					"destination" : [ "obj-45", 0 ],
					"disabled" : 0,
					"hidden" : 0,
					"source" : [ "obj-26", 2 ]
				}

			}
, 			{
				"patchline" : 				{
					"destination" : [ "obj-46", 1 ],
					"disabled" : 0,
					"hidden" : 0,
					"midpoints" : [ 815.33075, 548.0, 874.33075, 548.0 ],
					"source" : [ "obj-26", 2 ]
				}

			}
, 			{
				"patchline" : 				{
					"destination" : [ "obj-49", 0 ],
					"disabled" : 0,
					"hidden" : 0,
					"midpoints" : [ 870.284607, 544.0, 999.284607, 544.0 ],
					"source" : [ "obj-26", 3 ]
				}

			}
, 			{
				"patchline" : 				{
					"destination" : [ "obj-51", 0 ],
					"disabled" : 0,
					"hidden" : 0,
					"midpoints" : [ 870.284607, 544.0, 905.5, 544.0 ],
					"source" : [ "obj-26", 3 ]
				}

			}
, 			{
				"patchline" : 				{
					"destination" : [ "obj-56", 0 ],
					"disabled" : 0,
					"hidden" : 0,
					"midpoints" : [ 980.192261, 622.0, 1111.830811, 622.0 ],
					"source" : [ "obj-26", 5 ]
				}

			}
, 			{
				"patchline" : 				{
					"destination" : [ "obj-60", 0 ],
					"disabled" : 0,
					"hidden" : 0,
					"midpoints" : [ 925.238464, 600.0, 1090.0, 600.0, 1090.0, 675.0, 1111.830811, 675.0 ],
					"source" : [ "obj-26", 4 ]
				}

			}
, 			{
				"patchline" : 				{
					"destination" : [ "obj-63", 0 ],
					"disabled" : 0,
					"hidden" : 0,
					"midpoints" : [ 925.238464, 500.0, 1080.0, 500.0, 1080.0, 199.0, 911.5, 199.0 ],
					"source" : [ "obj-26", 4 ]
				}

			}
, 			{
				"patchline" : 				{
					"destination" : [ "obj-14", 1 ],
					"disabled" : 0,
					"hidden" : 0,
					"midpoints" : [ 668.730774, 822.0, 668.730774, 822.0 ],
					"source" : [ "obj-27", 0 ]
				}

			}
, 			{
				"patchline" : 				{
					"destination" : [ "obj-26", 4 ],
					"disabled" : 0,
					"hidden" : 0,
					"source" : [ "obj-28", 0 ]
				}

			}
, 			{
				"patchline" : 				{
					"destination" : [ "obj-4", 0 ],
					"disabled" : 0,
					"hidden" : 0,
					"source" : [ "obj-3", 1 ]
				}

			}
, 			{
				"patchline" : 				{
					"destination" : [ "obj-5", 0 ],
					"disabled" : 0,
					"hidden" : 0,
					"source" : [ "obj-3", 0 ]
				}

			}
, 			{
				"patchline" : 				{
					"destination" : [ "obj-16", 0 ],
					"disabled" : 0,
					"hidden" : 0,
					"midpoints" : [ 636.730774, 615.0, 612.0, 615.0, 612.0, 750.0, 636.730774, 750.0 ],
					"source" : [ "obj-30", 0 ]
				}

			}
, 			{
				"patchline" : 				{
					"destination" : [ "obj-31", 0 ],
					"disabled" : 0,
					"hidden" : 0,
					"source" : [ "obj-30", 1 ]
				}

			}
, 			{
				"patchline" : 				{
					"destination" : [ "obj-32", 0 ],
					"disabled" : 0,
					"hidden" : 0,
					"source" : [ "obj-30", 0 ]
				}

			}
, 			{
				"patchline" : 				{
					"destination" : [ "obj-11", 0 ],
					"disabled" : 0,
					"hidden" : 0,
					"source" : [ "obj-31", 1 ]
				}

			}
, 			{
				"patchline" : 				{
					"destination" : [ "obj-33", 0 ],
					"disabled" : 0,
					"hidden" : 0,
					"source" : [ "obj-31", 2 ]
				}

			}
, 			{
				"patchline" : 				{
					"destination" : [ "obj-35", 0 ],
					"disabled" : 0,
					"hidden" : 0,
					"source" : [ "obj-31", 0 ]
				}

			}
, 			{
				"patchline" : 				{
					"destination" : [ "obj-35", 0 ],
					"disabled" : 0,
					"hidden" : 0,
					"midpoints" : [ 636.730774, 696.0, 681.730774, 696.0 ],
					"source" : [ "obj-32", 0 ]
				}

			}
, 			{
				"patchline" : 				{
					"destination" : [ "obj-27", 3 ],
					"disabled" : 0,
					"hidden" : 0,
					"source" : [ "obj-33", 0 ]
				}

			}
, 			{
				"patchline" : 				{
					"destination" : [ "obj-2", 1 ],
					"disabled" : 0,
					"hidden" : 0,
					"midpoints" : [ 705.423096, 533.0, 1035.0, 533.0, 1035.0, 276.0, 911.5, 276.0 ],
					"source" : [ "obj-40", 0 ]
				}

			}
, 			{
				"patchline" : 				{
					"destination" : [ "obj-11", 0 ],
					"disabled" : 0,
					"hidden" : 0,
					"source" : [ "obj-41", 0 ]
				}

			}
, 			{
				"patchline" : 				{
					"destination" : [ "obj-2", 1 ],
					"disabled" : 0,
					"hidden" : 0,
					"midpoints" : [ 760.376953, 527.0, 1029.0, 527.0, 1029.0, 284.0, 911.5, 284.0 ],
					"source" : [ "obj-43", 0 ]
				}

			}
, 			{
				"patchline" : 				{
					"destination" : [ "obj-46", 0 ],
					"disabled" : 0,
					"hidden" : 0,
					"source" : [ "obj-45", 0 ]
				}

			}
, 			{
				"patchline" : 				{
					"destination" : [ "obj-2", 1 ],
					"disabled" : 0,
					"hidden" : 0,
					"midpoints" : [ 815.33075, 611.0, 1063.0, 611.0, 1063.0, 261.0, 911.5, 261.0 ],
					"source" : [ "obj-46", 0 ]
				}

			}
, 			{
				"patchline" : 				{
					"destination" : [ "obj-52", 1 ],
					"disabled" : 0,
					"hidden" : 0,
					"source" : [ "obj-49", 0 ]
				}

			}
, 			{
				"patchline" : 				{
					"destination" : [ "obj-52", 0 ],
					"disabled" : 0,
					"hidden" : 0,
					"source" : [ "obj-51", 0 ]
				}

			}
, 			{
				"patchline" : 				{
					"destination" : [ "obj-2", 1 ],
					"disabled" : 0,
					"hidden" : 0,
					"midpoints" : [ 905.5, 701.0, 1056.0, 701.0, 1056.0, 267.0, 911.5, 267.0 ],
					"source" : [ "obj-52", 0 ]
				}

			}
, 			{
				"patchline" : 				{
					"destination" : [ "obj-53", 0 ],
					"disabled" : 0,
					"hidden" : 0,
					"source" : [ "obj-52", 0 ]
				}

			}
, 			{
				"patchline" : 				{
					"destination" : [ "obj-2", 1 ],
					"disabled" : 0,
					"hidden" : 0,
					"midpoints" : [ 1111.830811, 672.0, 1212.0, 672.0, 1212.0, 251.0, 911.5, 251.0 ],
					"source" : [ "obj-56", 0 ]
				}

			}
, 			{
				"patchline" : 				{
					"destination" : [ "obj-60", 0 ],
					"disabled" : 0,
					"hidden" : 0,
					"source" : [ "obj-56", 0 ]
				}

			}
, 			{
				"patchline" : 				{
					"destination" : [ "obj-26", 0 ],
					"disabled" : 0,
					"hidden" : 0,
					"midpoints" : [ 1111.830811, 755.0, 580.0, 755.0, 580.0, 445.0, 705.423096, 445.0 ],
					"source" : [ "obj-57", 0 ]
				}

			}
, 			{
				"patchline" : 				{
					"destination" : [ "obj-57", 0 ],
					"disabled" : 0,
					"hidden" : 0,
					"source" : [ "obj-60", 0 ]
				}

			}
, 			{
				"patchline" : 				{
					"destination" : [ "obj-2", 1 ],
					"disabled" : 0,
					"hidden" : 0,
					"source" : [ "obj-63", 0 ]
				}

			}
, 			{
				"patchline" : 				{
					"destination" : [ "obj-2", 1 ],
					"disabled" : 0,
					"hidden" : 0,
					"midpoints" : [ 858.5, 281.0, 911.5, 281.0 ],
					"source" : [ "obj-65", 0 ]
				}

			}
, 			{
				"patchline" : 				{
					"destination" : [ "obj-39", 0 ],
					"disabled" : 0,
					"hidden" : 0,
					"source" : [ "obj-65", 0 ]
				}

			}
, 			{
				"patchline" : 				{
					"destination" : [ "obj-72", 0 ],
					"disabled" : 0,
					"hidden" : 0,
					"midpoints" : [ 1388.5, 593.0, 1242.5, 593.0 ],
					"source" : [ "obj-70", 3 ]
				}

			}
, 			{
				"patchline" : 				{
					"destination" : [ "obj-72", 0 ],
					"disabled" : 0,
					"hidden" : 0,
					"source" : [ "obj-70", 0 ]
				}

			}
, 			{
				"patchline" : 				{
					"destination" : [ "obj-74", 0 ],
					"disabled" : 0,
					"hidden" : 0,
					"source" : [ "obj-70", 3 ]
				}

			}
, 			{
				"patchline" : 				{
					"destination" : [ "obj-75", 0 ],
					"disabled" : 0,
					"hidden" : 0,
					"midpoints" : [ 1242.5, 593.0, 1311.5, 593.0 ],
					"source" : [ "obj-70", 0 ]
				}

			}
, 			{
				"patchline" : 				{
					"destination" : [ "obj-78", 0 ],
					"disabled" : 0,
					"hidden" : 0,
					"source" : [ "obj-72", 0 ]
				}

			}
, 			{
				"patchline" : 				{
					"destination" : [ "obj-78", 1 ],
					"disabled" : 0,
					"hidden" : 0,
					"midpoints" : [ 1388.5, 635.0, 1311.5, 635.0 ],
					"source" : [ "obj-74", 0 ]
				}

			}
, 			{
				"patchline" : 				{
					"destination" : [ "obj-78", 1 ],
					"disabled" : 0,
					"hidden" : 0,
					"source" : [ "obj-75", 0 ]
				}

			}
, 			{
				"patchline" : 				{
					"destination" : [ "obj-2", 1 ],
					"disabled" : 0,
					"hidden" : 0,
					"midpoints" : [ 1242.5, 679.0, 1222.0, 679.0, 1222.0, 251.0, 911.5, 251.0 ],
					"source" : [ "obj-78", 0 ]
				}

			}
, 			{
				"patchline" : 				{
					"destination" : [ "obj-80", 1 ],
					"disabled" : 0,
					"hidden" : 0,
					"source" : [ "obj-79", 1 ]
				}

			}
, 			{
				"patchline" : 				{
					"destination" : [ "obj-80", 0 ],
					"disabled" : 0,
					"hidden" : 0,
					"source" : [ "obj-79", 0 ]
				}

			}
, 			{
				"patchline" : 				{
					"destination" : [ "obj-82", 0 ],
					"disabled" : 0,
					"hidden" : 0,
					"source" : [ "obj-80", 0 ]
				}

			}
, 			{
				"patchline" : 				{
					"destination" : [ "obj-2", 1 ],
					"disabled" : 0,
					"hidden" : 0,
					"midpoints" : [ 251.5, 275.0, 911.5, 275.0 ],
					"source" : [ "obj-92", 0 ]
				}

			}
, 			{
				"patchline" : 				{
					"destination" : [ "obj-92", 0 ],
					"disabled" : 0,
					"hidden" : 0,
					"source" : [ "obj-95", 0 ]
				}

			}
, 			{
				"patchline" : 				{
					"destination" : [ "obj-97", 0 ],
					"disabled" : 0,
					"hidden" : 0,
					"source" : [ "obj-96", 0 ]
				}

			}
, 			{
				"patchline" : 				{
					"destination" : [ "obj-2", 1 ],
					"disabled" : 0,
					"hidden" : 0,
					"midpoints" : [ 324.5, 275.0, 911.5, 275.0 ],
					"source" : [ "obj-97", 0 ]
				}

			}
, 			{
				"patchline" : 				{
					"destination" : [ "obj-99", 0 ],
					"disabled" : 0,
					"hidden" : 0,
					"source" : [ "obj-98", 0 ]
				}

			}
, 			{
				"patchline" : 				{
					"destination" : [ "obj-2", 1 ],
					"disabled" : 0,
					"hidden" : 0,
					"midpoints" : [ 413.5, 275.0, 911.5, 275.0 ],
					"source" : [ "obj-99", 0 ]
				}

			}
 ],
		"dependency_cache" : [ 			{
				"name" : "20100805_schwarzonator.js",
				"bootpath" : "/Volumes/Two/Dropbox/_3rd Party/new note",
				"patcherrelativepath" : "../../../../../../../Volumes/Two/Dropbox/_3rd Party/new note",
				"type" : "TEXT",
				"implicit" : 1
			}
, 			{
				"name" : "schwarzonatorpresets.txt",
				"bootpath" : "/Volumes/Two/Dropbox/_3rd Party/new note",
				"patcherrelativepath" : "../../../../../../../Volumes/Two/Dropbox/_3rd Party/new note",
				"type" : "TEXT",
				"implicit" : 1
			}
, 			{
				"name" : "jcom.oscroute.mxo",
				"type" : "iLaX"
			}
 ]
	}

}
