{
	"patcher" : 	{
		"fileversion" : 1,
		"rect" : [ 116.0, 64.0, 884.0, 744.0 ],
		"bglocked" : 0,
		"defrect" : [ 116.0, 64.0, 884.0, 744.0 ],
		"openrect" : [ 0.0, 0.0, 0.0, 0.0 ],
		"openinpresentation" : 0,
		"default_fontsize" : 12.0,
		"default_fontface" : 0,
		"default_fontname" : "Arial",
		"gridonopen" : 0,
		"gridsize" : [ 15.0, 15.0 ],
		"gridsnaponopen" : 0,
		"toolbarvisible" : 1,
		"boxanimatetime" : 200,
		"imprint" : 0,
		"enablehscroll" : 1,
		"enablevscroll" : 1,
		"devicewidth" : 0.0,
		"boxes" : [ 			{
				"box" : 				{
					"maxclass" : "kslider",
					"mode" : 1,
					"patching_rect" : [ 52.0, 497.0, 336.0, 53.0 ],
					"numinlets" : 2,
					"id" : "obj-101",
					"numoutlets" : 2,
					"outlettype" : [ "int", "int" ],
					"offset" : 48,
					"presentation_rect" : [ 15.0, 15.0, 196.0, 34.0 ],
					"hkeycolor" : [ 0.615686, 0.580392, 0.658824, 1.0 ]
				}

			}
, 			{
				"box" : 				{
					"maxclass" : "umenu",
					"fontname" : "Arial",
					"types" : [  ],
					"patching_rect" : [ 800.0, 273.0, 56.0, 20.0 ],
					"numinlets" : 1,
					"id" : "obj-3",
					"textcolor" : [ 0.0, 0.0, 0.0, 1.0 ],
					"labelclick" : 1,
					"numoutlets" : 3,
					"fontsize" : 12.0,
					"outlettype" : [ "int", "", "" ],
					"items" : [ "vii0/1", ",", "vii0/2", ",", "vii0/3", ",", "vii0/4", ",", "vii0/5", ",", "vii0/6", ",", "vii0/7" ]
				}

			}
, 			{
				"box" : 				{
					"maxclass" : "umenu",
					"fontname" : "Arial",
					"types" : [  ],
					"patching_rect" : [ 740.0, 274.0, 56.0, 20.0 ],
					"numinlets" : 1,
					"id" : "obj-2",
					"textcolor" : [ 0.0, 0.0, 0.0, 1.0 ],
					"labelclick" : 1,
					"numoutlets" : 3,
					"fontsize" : 12.0,
					"outlettype" : [ "int", "", "" ],
					"items" : [ "vii/1", ",", "vii/2", ",", "vii/3", ",", "vii/4", ",", "vii/5", ",", "vii/6", ",", "vii/7" ]
				}

			}
, 			{
				"box" : 				{
					"maxclass" : "comment",
					"text" : "Tonicizations",
					"fontname" : "Arial",
					"patching_rect" : [ 794.0, 247.0, 79.0, 20.0 ],
					"numinlets" : 1,
					"id" : "obj-177",
					"numoutlets" : 0,
					"fontsize" : 12.0
				}

			}
, 			{
				"box" : 				{
					"maxclass" : "comment",
					"text" : "2.1a",
					"fontname" : "Arial",
					"patching_rect" : [ 179.0, 48.0, 37.0, 20.0 ],
					"numinlets" : 1,
					"id" : "obj-176",
					"numoutlets" : 0,
					"fontsize" : 12.0
				}

			}
, 			{
				"box" : 				{
					"maxclass" : "comment",
					"text" : "modal_triad",
					"frgb" : [ 0.047059, 0.0, 0.454902, 1.0 ],
					"fontname" : "Arial",
					"patching_rect" : [ 38.0, 45.0, 181.0, 36.0 ],
					"numinlets" : 1,
					"id" : "obj-133",
					"textcolor" : [ 0.047059, 0.0, 0.454902, 1.0 ],
					"numoutlets" : 0,
					"fontsize" : 26.0
				}

			}
, 			{
				"box" : 				{
					"maxclass" : "comment",
					"text" : "Formatting Altered Chords",
					"fontname" : "Arial",
					"patching_rect" : [ 575.0, 241.0, 150.0, 20.0 ],
					"numinlets" : 1,
					"id" : "obj-170",
					"numoutlets" : 0,
					"fontsize" : 12.0
				}

			}
, 			{
				"box" : 				{
					"maxclass" : "message",
					"text" : "Cb5#9",
					"fontname" : "Arial",
					"patching_rect" : [ 641.0, 289.0, 46.0, 18.0 ],
					"numinlets" : 2,
					"id" : "obj-169",
					"numoutlets" : 1,
					"bgcolor" : [ 1.0, 1.0, 1.0, 1.0 ],
					"fontsize" : 12.0,
					"outlettype" : [ "" ],
					"gradient" : 1,
					"bgcolor2" : [ 1.0, 1.0, 1.0, 1.0 ]
				}

			}
, 			{
				"box" : 				{
					"maxclass" : "message",
					"text" : "5#1",
					"fontname" : "Arial",
					"patching_rect" : [ 585.0, 289.0, 32.5, 18.0 ],
					"numinlets" : 2,
					"id" : "obj-168",
					"numoutlets" : 1,
					"bgcolor" : [ 1.0, 1.0, 1.0, 1.0 ],
					"fontsize" : 12.0,
					"outlettype" : [ "" ],
					"gradient" : 1,
					"bgcolor2" : [ 1.0, 1.0, 1.0, 1.0 ]
				}

			}
, 			{
				"box" : 				{
					"maxclass" : "message",
					"text" : "Gdom7b9#11",
					"fontname" : "Arial",
					"patching_rect" : [ 641.0, 263.0, 82.0, 18.0 ],
					"numinlets" : 2,
					"id" : "obj-165",
					"numoutlets" : 1,
					"bgcolor" : [ 1.0, 1.0, 1.0, 1.0 ],
					"fontsize" : 12.0,
					"outlettype" : [ "" ],
					"gradient" : 1,
					"bgcolor2" : [ 1.0, 1.0, 1.0, 1.0 ]
				}

			}
, 			{
				"box" : 				{
					"maxclass" : "message",
					"text" : "1b1",
					"fontname" : "Arial",
					"patching_rect" : [ 585.0, 263.0, 32.5, 18.0 ],
					"numinlets" : 2,
					"id" : "obj-166",
					"numoutlets" : 1,
					"bgcolor" : [ 1.0, 1.0, 1.0, 1.0 ],
					"fontsize" : 12.0,
					"outlettype" : [ "" ],
					"gradient" : 1,
					"bgcolor2" : [ 1.0, 1.0, 1.0, 1.0 ]
				}

			}
, 			{
				"box" : 				{
					"maxclass" : "newobj",
					"text" : "s mol_chord",
					"fontname" : "Arial",
					"patching_rect" : [ 585.0, 311.0, 65.0, 18.0 ],
					"numinlets" : 1,
					"id" : "obj-164",
					"numoutlets" : 0,
					"fontsize" : 10.0,
					"hidden" : 1
				}

			}
, 			{
				"box" : 				{
					"maxclass" : "hint",
					"hint" : "The V Chord Tonicization Chords produce a Dominant 7th chord for each scale degree in the selected mode. That is, the root, 3rd, 5th, and 7th will form a Dominant 7th Chord exactly one perfect 5th above a given scale degree. The 9th, 11th, 13th are inferred according to the selected mode and NOT the mode from which the tonicizing chord prevails.",
					"delay" : 1,
					"patching_rect" : [ 740.0, 249.0, 51.0, 20.0 ],
					"numinlets" : 1,
					"id" : "obj-162",
					"numoutlets" : 0
				}

			}
, 			{
				"box" : 				{
					"maxclass" : "comment",
					"text" : "Naming Chords",
					"fontname" : "Arial",
					"patching_rect" : [ 372.0, 15.0, 276.0, 23.0 ],
					"numinlets" : 1,
					"id" : "obj-161",
					"numoutlets" : 0,
					"fontface" : 1,
					"fontsize" : 14.0
				}

			}
, 			{
				"box" : 				{
					"maxclass" : "comment",
					"text" : "To alter chord tones beyond this, us b and # symbols followed by a scale degree. There is no need to specifiy chords like C7 since the seventh is already given. If you want Cdom7, instead of Cmaj7, type Cdom7. ",
					"linecount" : 3,
					"fontname" : "Arial",
					"patching_rect" : [ 372.0, 190.0, 510.0, 48.0 ],
					"numinlets" : 1,
					"id" : "obj-160",
					"numoutlets" : 0,
					"fontsize" : 12.0
				}

			}
, 			{
				"box" : 				{
					"maxclass" : "comment",
					"text" : "The 7th, 9th, 11th, and 13th chord tones occur diatonically for all diatonic chord functions (numbers 1-8) and tonicizations are based on the selected mode and tonic. \n\nFor all other chords (Roman numerals, letter names, etc.), the 7th, 9th, 11th, and 13th chords occur based on the chord quality of the chord selected as if that chord were the tonic chord. \n\nFor example, if C is selected, the chord will spell C - E - G - B - D - F - A. The 7th is a major seventh from the root of the chord as it is ine key of C major where C is the tonic chord. \n\nIf b0 is selected, the chord will spell B - D - F - A - C - E - G. The sevent is a minor seventh from the root of the chord as it is in the key of b0 locrian where b0 is the tonic (modal) chord. ",
					"linecount" : 11,
					"fontname" : "Arial",
					"patching_rect" : [ 372.0, 35.0, 508.0, 158.0 ],
					"numinlets" : 1,
					"id" : "obj-157",
					"numoutlets" : 0,
					"fontsize" : 12.0
				}

			}
, 			{
				"box" : 				{
					"maxclass" : "hint",
					"hint" : "The chords built from chromatic roots create a weak tonicization. For example, the 7/2 tonicizes the 2 chord of a selected mode It is, in fact, the 1 chord of the mode with a raised root. In some instances, raising the root of a chord does not create a chromatic tone (for example the 7/4 in C Major is the same as the 3 in C Major). It should also be noted that the concept of tonicizing a diminished triad is even weaker. This collection is best used for light chromaticism. 7/n raises the root of the chord function 1 semitone except in instances where chord functions are semiton apart. This creates a tonicization some cases. For example, in C Major, the chord between the I chord and the ii chord is C#- E - G (the 7/2). The iii chord (e minor) and IV chord (F Major) are a semiton apart so the 7/4 is still e minor.",
					"delay" : 1,
					"patching_rect" : [ 740.0, 300.0, 57.0, 21.0 ],
					"numinlets" : 1,
					"id" : "obj-156",
					"numoutlets" : 0
				}

			}
, 			{
				"box" : 				{
					"maxclass" : "newobj",
					"text" : "s mol_chord",
					"fontname" : "Arial",
					"patching_rect" : [ 736.0, 334.0, 65.0, 18.0 ],
					"numinlets" : 1,
					"id" : "obj-146",
					"numoutlets" : 0,
					"fontsize" : 10.0,
					"hidden" : 1
				}

			}
, 			{
				"box" : 				{
					"maxclass" : "newobj",
					"text" : "s mol_chord",
					"fontname" : "Arial",
					"patching_rect" : [ 451.0, 422.0, 65.0, 18.0 ],
					"numinlets" : 1,
					"id" : "obj-145",
					"numoutlets" : 0,
					"fontsize" : 10.0,
					"hidden" : 1
				}

			}
, 			{
				"box" : 				{
					"maxclass" : "message",
					"text" : "8",
					"fontname" : "Arial",
					"patching_rect" : [ 508.0, 398.0, 18.0, 18.0 ],
					"numinlets" : 2,
					"id" : "obj-86",
					"numoutlets" : 1,
					"bgcolor" : [ 1.0, 1.0, 1.0, 1.0 ],
					"fontsize" : 12.0,
					"outlettype" : [ "" ],
					"gradient" : 1,
					"bgcolor2" : [ 1.0, 1.0, 1.0, 1.0 ]
				}

			}
, 			{
				"box" : 				{
					"maxclass" : "message",
					"text" : "4",
					"fontname" : "Arial",
					"patching_rect" : [ 508.0, 376.0, 18.0, 18.0 ],
					"numinlets" : 2,
					"id" : "obj-91",
					"numoutlets" : 1,
					"bgcolor" : [ 1.0, 1.0, 1.0, 1.0 ],
					"fontsize" : 12.0,
					"outlettype" : [ "" ],
					"gradient" : 1,
					"bgcolor2" : [ 1.0, 1.0, 1.0, 1.0 ]
				}

			}
, 			{
				"box" : 				{
					"maxclass" : "message",
					"text" : "7",
					"fontname" : "Arial",
					"patching_rect" : [ 489.0, 398.0, 18.0, 18.0 ],
					"numinlets" : 2,
					"id" : "obj-92",
					"numoutlets" : 1,
					"bgcolor" : [ 1.0, 1.0, 1.0, 1.0 ],
					"fontsize" : 12.0,
					"outlettype" : [ "" ],
					"gradient" : 1,
					"bgcolor2" : [ 1.0, 1.0, 1.0, 1.0 ]
				}

			}
, 			{
				"box" : 				{
					"maxclass" : "message",
					"text" : "6",
					"fontname" : "Arial",
					"patching_rect" : [ 470.0, 398.0, 18.0, 18.0 ],
					"numinlets" : 2,
					"id" : "obj-93",
					"numoutlets" : 1,
					"bgcolor" : [ 1.0, 1.0, 1.0, 1.0 ],
					"fontsize" : 12.0,
					"outlettype" : [ "" ],
					"gradient" : 1,
					"bgcolor2" : [ 1.0, 1.0, 1.0, 1.0 ]
				}

			}
, 			{
				"box" : 				{
					"maxclass" : "message",
					"text" : "5",
					"fontname" : "Arial",
					"patching_rect" : [ 450.0, 398.0, 18.0, 18.0 ],
					"numinlets" : 2,
					"id" : "obj-94",
					"numoutlets" : 1,
					"bgcolor" : [ 1.0, 1.0, 1.0, 1.0 ],
					"fontsize" : 12.0,
					"outlettype" : [ "" ],
					"gradient" : 1,
					"bgcolor2" : [ 1.0, 1.0, 1.0, 1.0 ]
				}

			}
, 			{
				"box" : 				{
					"maxclass" : "message",
					"text" : "3",
					"fontname" : "Arial",
					"patching_rect" : [ 489.0, 376.0, 18.0, 18.0 ],
					"numinlets" : 2,
					"id" : "obj-95",
					"numoutlets" : 1,
					"bgcolor" : [ 1.0, 1.0, 1.0, 1.0 ],
					"fontsize" : 12.0,
					"outlettype" : [ "" ],
					"gradient" : 1,
					"bgcolor2" : [ 1.0, 1.0, 1.0, 1.0 ]
				}

			}
, 			{
				"box" : 				{
					"maxclass" : "message",
					"text" : "2",
					"fontname" : "Arial",
					"patching_rect" : [ 470.0, 376.0, 18.0, 18.0 ],
					"numinlets" : 2,
					"id" : "obj-96",
					"numoutlets" : 1,
					"bgcolor" : [ 1.0, 1.0, 1.0, 1.0 ],
					"fontsize" : 12.0,
					"outlettype" : [ "" ],
					"gradient" : 1,
					"bgcolor2" : [ 1.0, 1.0, 1.0, 1.0 ]
				}

			}
, 			{
				"box" : 				{
					"maxclass" : "message",
					"text" : "1",
					"fontname" : "Arial",
					"patching_rect" : [ 450.0, 376.0, 18.0, 18.0 ],
					"numinlets" : 2,
					"id" : "obj-97",
					"numoutlets" : 1,
					"bgcolor" : [ 1.0, 1.0, 1.0, 1.0 ],
					"fontsize" : 12.0,
					"outlettype" : [ "" ],
					"gradient" : 1,
					"bgcolor2" : [ 1.0, 1.0, 1.0, 1.0 ]
				}

			}
, 			{
				"box" : 				{
					"maxclass" : "number",
					"maximum" : 8,
					"fontname" : "Arial",
					"patching_rect" : [ 535.0, 377.0, 20.0, 20.0 ],
					"numinlets" : 1,
					"htextcolor" : [ 0.870588, 0.870588, 0.870588, 1.0 ],
					"triscale" : 0.9,
					"id" : "obj-108",
					"numoutlets" : 2,
					"triangle" : 0,
					"fontsize" : 12.0,
					"outlettype" : [ "int", "bang" ],
					"minimum" : 1
				}

			}
, 			{
				"box" : 				{
					"maxclass" : "comment",
					"text" : "Diatonic Chord Functions (numbers)",
					"fontname" : "Arial",
					"patching_rect" : [ 421.0, 357.0, 206.0, 20.0 ],
					"numinlets" : 1,
					"id" : "obj-113",
					"numoutlets" : 0,
					"fontsize" : 12.0
				}

			}
, 			{
				"box" : 				{
					"maxclass" : "newobj",
					"text" : "s mol_chord",
					"fontname" : "Arial",
					"patching_rect" : [ 578.0, 697.0, 65.0, 18.0 ],
					"numinlets" : 1,
					"id" : "obj-144",
					"numoutlets" : 0,
					"fontsize" : 10.0,
					"hidden" : 1
				}

			}
, 			{
				"box" : 				{
					"maxclass" : "umenu",
					"fontname" : "Arial",
					"types" : [  ],
					"patching_rect" : [ 564.0, 680.0, 46.0, 20.0 ],
					"numinlets" : 1,
					"id" : "obj-56",
					"textcolor" : [ 0.0, 0.0, 0.0, 1.0 ],
					"labelclick" : 1,
					"numoutlets" : 3,
					"fontsize" : 12.0,
					"outlettype" : [ "int", "", "" ],
					"items" : [ "c0", ",", "c#0", ",", "d0", ",", "d#0", ",", "e0", ",", "f0", ",", "f#0", ",", "g0", ",", "g#0", ",", "a0", ",", "a#0", ",", "b0", ",", "bb0", ",", "ab0", ",", "gb0", ",", "eb0", ",", "db0" ]
				}

			}
, 			{
				"box" : 				{
					"maxclass" : "umenu",
					"fontname" : "Arial",
					"types" : [  ],
					"patching_rect" : [ 564.0, 657.0, 46.0, 20.0 ],
					"numinlets" : 1,
					"id" : "obj-57",
					"textcolor" : [ 0.0, 0.0, 0.0, 1.0 ],
					"labelclick" : 1,
					"numoutlets" : 3,
					"fontsize" : 12.0,
					"outlettype" : [ "int", "", "" ],
					"items" : [ "C+", ",", "C#+", ",", "D+", ",", "D#+", ",", "E+", ",", "F+", ",", "F#+", ",", "G+", ",", "G#+", ",", "A+", ",", "A#+", ",", "B+", ",", "Bb+", ",", "Ab+", ",", "Gb+", ",", "Eb+", ",", "Db+" ]
				}

			}
, 			{
				"box" : 				{
					"maxclass" : "umenu",
					"fontname" : "Arial",
					"types" : [  ],
					"patching_rect" : [ 564.0, 631.0, 46.0, 20.0 ],
					"numinlets" : 1,
					"id" : "obj-58",
					"textcolor" : [ 0.0, 0.0, 0.0, 1.0 ],
					"labelclick" : 1,
					"numoutlets" : 3,
					"fontsize" : 12.0,
					"outlettype" : [ "int", "", "" ],
					"items" : [ "c", ",", "c#", ",", "d", ",", "d#", ",", "e", ",", "f", ",", "f#", ",", "g", ",", "g#", ",", "a", ",", "a#", ",", "b", ",", "bb", ",", "ab", ",", "gb", ",", "eb", ",", "db" ]
				}

			}
, 			{
				"box" : 				{
					"maxclass" : "umenu",
					"fontname" : "Arial",
					"types" : [  ],
					"patching_rect" : [ 564.0, 607.0, 46.0, 20.0 ],
					"numinlets" : 1,
					"id" : "obj-59",
					"textcolor" : [ 0.0, 0.0, 0.0, 1.0 ],
					"labelclick" : 1,
					"numoutlets" : 3,
					"fontsize" : 12.0,
					"outlettype" : [ "int", "", "" ],
					"items" : [ "C", ",", "C#", ",", "D", ",", "D#", ",", "E", ",", "F", ",", "F#", ",", "G", ",", "G#", ",", "A", ",", "A#", ",", "B", ",", "Bb", ",", "Ab", ",", "Gb", ",", "Eb", ",", "Db" ]
				}

			}
, 			{
				"box" : 				{
					"maxclass" : "comment",
					"text" : "Case sensitive chord qualities (with pitch letters):",
					"linecount" : 2,
					"fontname" : "Arial",
					"patching_rect" : [ 477.0, 575.0, 156.0, 34.0 ],
					"numinlets" : 1,
					"id" : "obj-60",
					"numoutlets" : 0,
					"fontsize" : 12.0
				}

			}
, 			{
				"box" : 				{
					"maxclass" : "comment",
					"text" : "Augmented",
					"fontname" : "Arial",
					"patching_rect" : [ 494.0, 680.0, 112.0, 20.0 ],
					"numinlets" : 1,
					"id" : "obj-120",
					"numoutlets" : 0,
					"fontsize" : 12.0
				}

			}
, 			{
				"box" : 				{
					"maxclass" : "comment",
					"text" : "Diminished",
					"fontname" : "Arial",
					"patching_rect" : [ 494.0, 659.0, 113.0, 20.0 ],
					"numinlets" : 1,
					"id" : "obj-121",
					"numoutlets" : 0,
					"fontsize" : 12.0
				}

			}
, 			{
				"box" : 				{
					"maxclass" : "comment",
					"text" : "Minor",
					"fontname" : "Arial",
					"patching_rect" : [ 525.0, 633.0, 46.0, 20.0 ],
					"numinlets" : 1,
					"id" : "obj-122",
					"numoutlets" : 0,
					"fontsize" : 12.0
				}

			}
, 			{
				"box" : 				{
					"maxclass" : "comment",
					"text" : "Major",
					"fontname" : "Arial",
					"patching_rect" : [ 525.0, 610.0, 46.0, 20.0 ],
					"numinlets" : 1,
					"id" : "obj-123",
					"numoutlets" : 0,
					"fontsize" : 12.0
				}

			}
, 			{
				"box" : 				{
					"maxclass" : "newobj",
					"text" : "s mol_chord",
					"fontname" : "Arial",
					"patching_rect" : [ 386.0, 695.0, 67.0, 18.0 ],
					"numinlets" : 1,
					"id" : "obj-142",
					"numoutlets" : 0,
					"fontsize" : 10.0,
					"hidden" : 1
				}

			}
, 			{
				"box" : 				{
					"maxclass" : "umenu",
					"fontname" : "Arial",
					"types" : [  ],
					"patching_rect" : [ 372.0, 672.0, 46.0, 20.0 ],
					"numinlets" : 1,
					"id" : "obj-61",
					"textcolor" : [ 0.0, 0.0, 0.0, 1.0 ],
					"labelclick" : 1,
					"numoutlets" : 3,
					"fontsize" : 12.0,
					"outlettype" : [ "int", "", "" ],
					"items" : [ "I+", ",", "II+", ",", "III+", ",", "IV+", ",", "V+", ",", "VI+", ",", "VII+", ",", "VIII+" ]
				}

			}
, 			{
				"box" : 				{
					"maxclass" : "umenu",
					"fontname" : "Arial",
					"types" : [  ],
					"patching_rect" : [ 372.0, 651.0, 46.0, 20.0 ],
					"numinlets" : 1,
					"id" : "obj-62",
					"textcolor" : [ 0.0, 0.0, 0.0, 1.0 ],
					"labelclick" : 1,
					"numoutlets" : 3,
					"fontsize" : 12.0,
					"outlettype" : [ "int", "", "" ],
					"items" : [ "i0", ",", "ii0", ",", "iii0", ",", "iv0", ",", "v0", ",", "vi0", ",", "vii0", ",", "viii0" ]
				}

			}
, 			{
				"box" : 				{
					"maxclass" : "umenu",
					"fontname" : "Arial",
					"types" : [  ],
					"patching_rect" : [ 372.0, 630.0, 46.0, 20.0 ],
					"numinlets" : 1,
					"id" : "obj-63",
					"textcolor" : [ 0.0, 0.0, 0.0, 1.0 ],
					"labelclick" : 1,
					"numoutlets" : 3,
					"fontsize" : 12.0,
					"outlettype" : [ "int", "", "" ],
					"items" : [ "i", ",", "ii", ",", "iii", ",", "iv", ",", "v", ",", "vi", ",", "vii", ",", "viii" ]
				}

			}
, 			{
				"box" : 				{
					"maxclass" : "umenu",
					"fontname" : "Arial",
					"types" : [  ],
					"patching_rect" : [ 372.0, 607.0, 46.0, 20.0 ],
					"numinlets" : 1,
					"id" : "obj-64",
					"textcolor" : [ 0.0, 0.0, 0.0, 1.0 ],
					"labelclick" : 1,
					"numoutlets" : 3,
					"fontsize" : 12.0,
					"outlettype" : [ "int", "", "" ],
					"items" : [ "I", ",", "II", ",", "III", ",", "IV", ",", "V", ",", "VI", ",", "VII", ",", "VIII" ]
				}

			}
, 			{
				"box" : 				{
					"maxclass" : "comment",
					"text" : "Case sensitive chord qualities (Roman numeral chord functions):",
					"linecount" : 2,
					"fontname" : "Arial",
					"patching_rect" : [ 275.0, 574.0, 192.0, 34.0 ],
					"numinlets" : 1,
					"id" : "obj-65",
					"numoutlets" : 0,
					"fontsize" : 12.0
				}

			}
, 			{
				"box" : 				{
					"maxclass" : "comment",
					"text" : "Augmented",
					"fontname" : "Arial",
					"patching_rect" : [ 299.0, 675.0, 112.0, 20.0 ],
					"numinlets" : 1,
					"id" : "obj-124",
					"numoutlets" : 0,
					"fontsize" : 12.0
				}

			}
, 			{
				"box" : 				{
					"maxclass" : "comment",
					"text" : "Diminished",
					"fontname" : "Arial",
					"patching_rect" : [ 299.0, 654.0, 113.0, 20.0 ],
					"numinlets" : 1,
					"id" : "obj-125",
					"numoutlets" : 0,
					"fontsize" : 12.0
				}

			}
, 			{
				"box" : 				{
					"maxclass" : "comment",
					"text" : "Minor",
					"fontname" : "Arial",
					"patching_rect" : [ 334.0, 632.0, 111.0, 20.0 ],
					"numinlets" : 1,
					"id" : "obj-126",
					"numoutlets" : 0,
					"fontsize" : 12.0
				}

			}
, 			{
				"box" : 				{
					"maxclass" : "comment",
					"text" : "Major",
					"fontname" : "Arial",
					"patching_rect" : [ 334.0, 609.0, 111.0, 20.0 ],
					"numinlets" : 1,
					"id" : "obj-127",
					"numoutlets" : 0,
					"fontsize" : 12.0
				}

			}
, 			{
				"box" : 				{
					"maxclass" : "newobj",
					"text" : "s mol_chord",
					"fontname" : "Arial",
					"patching_rect" : [ 637.0, 532.0, 65.0, 18.0 ],
					"numinlets" : 1,
					"id" : "obj-141",
					"numoutlets" : 0,
					"fontsize" : 10.0,
					"hidden" : 1
				}

			}
, 			{
				"box" : 				{
					"maxclass" : "newobj",
					"text" : "r mol_chord",
					"fontname" : "Arial",
					"patching_rect" : [ 53.0, 246.0, 63.0, 18.0 ],
					"numinlets" : 0,
					"id" : "obj-140",
					"numoutlets" : 1,
					"fontsize" : 10.0,
					"outlettype" : [ "" ]
				}

			}
, 			{
				"box" : 				{
					"maxclass" : "bpatcher",
					"args" : [  ],
					"patching_rect" : [ 671.0, 567.0, 195.0, 148.0 ],
					"numinlets" : 0,
					"id" : "obj-13",
					"name" : "modal_change_related_objects.maxpat",
					"numoutlets" : 0
				}

			}
, 			{
				"box" : 				{
					"maxclass" : "comment",
					"text" : "builds a French Sixth chord (in root position) or tonicize another chord with an N 6th",
					"linecount" : 3,
					"fontname" : "Arial",
					"patching_rect" : [ 697.0, 511.0, 157.0, 48.0 ],
					"numinlets" : 1,
					"id" : "obj-16",
					"numoutlets" : 0,
					"fontsize" : 12.0
				}

			}
, 			{
				"box" : 				{
					"maxclass" : "umenu",
					"fontname" : "Arial",
					"types" : [  ],
					"patching_rect" : [ 639.0, 519.0, 57.0, 20.0 ],
					"numinlets" : 1,
					"id" : "obj-17",
					"textcolor" : [ 0.0, 0.0, 0.0, 1.0 ],
					"labelclick" : 1,
					"numoutlets" : 3,
					"fontsize" : 12.0,
					"outlettype" : [ "int", "", "" ],
					"items" : [ "Fr6", ",", "Fr6/2", ",", "Fr6/3", ",", "Fr6/4", ",", "Fr6/5", ",", "Fr6/6", ",", "Fr6/7", ",", "Fr6/8" ]
				}

			}
, 			{
				"box" : 				{
					"maxclass" : "comment",
					"text" : "builds a German Sixth chord (in root position) or tonicize another chord with an N 6th",
					"linecount" : 3,
					"fontname" : "Arial",
					"patching_rect" : [ 697.0, 460.0, 174.0, 48.0 ],
					"numinlets" : 1,
					"id" : "obj-18",
					"numoutlets" : 0,
					"fontsize" : 12.0
				}

			}
, 			{
				"box" : 				{
					"maxclass" : "comment",
					"text" : "builds an Italian Sixth chord (in root position) or tonicize another chord with an N 6th",
					"linecount" : 3,
					"fontname" : "Arial",
					"patching_rect" : [ 697.0, 411.0, 170.0, 48.0 ],
					"numinlets" : 1,
					"id" : "obj-19",
					"numoutlets" : 0,
					"fontsize" : 12.0
				}

			}
, 			{
				"box" : 				{
					"maxclass" : "umenu",
					"fontname" : "Arial",
					"types" : [  ],
					"patching_rect" : [ 639.0, 470.0, 57.0, 20.0 ],
					"numinlets" : 1,
					"id" : "obj-20",
					"textcolor" : [ 0.0, 0.0, 0.0, 1.0 ],
					"labelclick" : 1,
					"numoutlets" : 3,
					"fontsize" : 12.0,
					"outlettype" : [ "int", "", "" ],
					"items" : [ "Gr6", ",", "Gr6/2", ",", "Gr6/3", ",", "Gr6/4", ",", "Gr6/5", ",", "Gr6/6", ",", "Gr6/7", ",", "Gr6/8" ]
				}

			}
, 			{
				"box" : 				{
					"maxclass" : "umenu",
					"fontname" : "Arial",
					"types" : [  ],
					"patching_rect" : [ 639.0, 418.0, 57.0, 20.0 ],
					"numinlets" : 1,
					"id" : "obj-43",
					"textcolor" : [ 0.0, 0.0, 0.0, 1.0 ],
					"labelclick" : 1,
					"numoutlets" : 3,
					"fontsize" : 12.0,
					"outlettype" : [ "int", "", "" ],
					"items" : [ "It6", ",", "It6/2", ",", "It6/3", ",", "It6/4", ",", "It6/5", ",", "It6/6", ",", "It6/7", ",", "It6/8" ]
				}

			}
, 			{
				"box" : 				{
					"maxclass" : "comment",
					"text" : "builds a Neapolitan Sixth chord (in root position) or tonicize another chord with an N 6th",
					"linecount" : 3,
					"fontname" : "Arial",
					"patching_rect" : [ 697.0, 362.0, 179.0, 48.0 ],
					"numinlets" : 1,
					"id" : "obj-44",
					"numoutlets" : 0,
					"fontsize" : 12.0
				}

			}
, 			{
				"box" : 				{
					"maxclass" : "umenu",
					"fontname" : "Arial",
					"types" : [  ],
					"patching_rect" : [ 639.0, 373.0, 57.0, 20.0 ],
					"numinlets" : 1,
					"id" : "obj-45",
					"textcolor" : [ 0.0, 0.0, 0.0, 1.0 ],
					"labelclick" : 1,
					"numoutlets" : 3,
					"fontsize" : 12.0,
					"outlettype" : [ "int", "", "" ],
					"items" : [ "N6", ",", "N6/2", ",", "N6/3", ",", "N6/4", ",", "N6/5", ",", "N6/6", ",", "N6/7", ",", "N6/8" ]
				}

			}
, 			{
				"box" : 				{
					"maxclass" : "newobj",
					"text" : "p modal_triad_uses",
					"fontname" : "Arial",
					"patching_rect" : [ 48.0, 602.0, 134.0, 20.0 ],
					"numinlets" : 0,
					"id" : "obj-49",
					"numoutlets" : 0,
					"color" : [ 0.290196, 0.611765, 0.380392, 1.0 ],
					"fontsize" : 12.0,
					"patcher" : 					{
						"fileversion" : 1,
						"rect" : [ 220.0, 149.0, 466.0, 294.0 ],
						"bglocked" : 0,
						"defrect" : [ 220.0, 149.0, 466.0, 294.0 ],
						"openrect" : [ 0.0, 0.0, 0.0, 0.0 ],
						"openinpresentation" : 0,
						"default_fontsize" : 12.0,
						"default_fontface" : 0,
						"default_fontname" : "Arial",
						"gridonopen" : 0,
						"gridsize" : [ 15.0, 15.0 ],
						"gridsnaponopen" : 0,
						"toolbarvisible" : 1,
						"boxanimatetime" : 200,
						"imprint" : 0,
						"enablehscroll" : 1,
						"enablevscroll" : 1,
						"devicewidth" : 0.0,
						"boxes" : [ 							{
								"box" : 								{
									"maxclass" : "newobj",
									"text" : "s mol_chord",
									"fontname" : "Arial",
									"patching_rect" : [ 150.0, 240.0, 65.0, 18.0 ],
									"numinlets" : 1,
									"id" : "obj-18",
									"numoutlets" : 0,
									"fontsize" : 10.0
								}

							}
, 							{
								"box" : 								{
									"maxclass" : "message",
									"text" : "e C G D",
									"fontname" : "Arial",
									"patching_rect" : [ 270.0, 176.0, 55.0, 18.0 ],
									"numinlets" : 2,
									"id" : "obj-1",
									"numoutlets" : 1,
									"fontsize" : 12.0,
									"outlettype" : [ "" ]
								}

							}
, 							{
								"box" : 								{
									"maxclass" : "message",
									"text" : "vi 4 I I+ IV IV iv ii0",
									"fontname" : "Arial",
									"patching_rect" : [ 261.0, 157.0, 137.0, 18.0 ],
									"numinlets" : 2,
									"id" : "obj-2",
									"numoutlets" : 1,
									"fontsize" : 12.0,
									"outlettype" : [ "" ]
								}

							}
, 							{
								"box" : 								{
									"maxclass" : "message",
									"text" : "1 7/2 2 7/3 3 7/4 4 7/5 5 7/6 6 7/7 7 7/1 1",
									"fontname" : "Arial",
									"patching_rect" : [ 209.0, 57.0, 241.0, 18.0 ],
									"numinlets" : 2,
									"id" : "obj-3",
									"numoutlets" : 1,
									"fontsize" : 12.0,
									"outlettype" : [ "" ]
								}

							}
, 							{
								"box" : 								{
									"maxclass" : "message",
									"text" : "1 2 5 6 5 4 5 8 4",
									"fontname" : "Arial",
									"patching_rect" : [ 252.0, 137.0, 120.0, 18.0 ],
									"numinlets" : 2,
									"id" : "obj-4",
									"numoutlets" : 1,
									"fontsize" : 12.0,
									"outlettype" : [ "" ]
								}

							}
, 							{
								"box" : 								{
									"maxclass" : "message",
									"text" : "6 2 5 1",
									"fontname" : "Arial",
									"patching_rect" : [ 242.0, 118.0, 49.0, 18.0 ],
									"numinlets" : 2,
									"id" : "obj-5",
									"numoutlets" : 1,
									"fontsize" : 12.0,
									"outlettype" : [ "" ]
								}

							}
, 							{
								"box" : 								{
									"maxclass" : "message",
									"text" : "1 4 5 1 iv/1",
									"fontname" : "Arial",
									"patching_rect" : [ 232.0, 99.0, 95.0, 18.0 ],
									"numinlets" : 2,
									"id" : "obj-6",
									"numoutlets" : 1,
									"fontsize" : 12.0,
									"outlettype" : [ "" ]
								}

							}
, 							{
								"box" : 								{
									"maxclass" : "toggle",
									"patching_rect" : [ 148.0, 98.0, 15.0, 15.0 ],
									"numinlets" : 1,
									"id" : "obj-7",
									"numoutlets" : 1,
									"outlettype" : [ "int" ]
								}

							}
, 							{
								"box" : 								{
									"maxclass" : "newobj",
									"text" : "metro 500",
									"fontname" : "Arial",
									"patching_rect" : [ 148.0, 115.0, 65.0, 20.0 ],
									"numinlets" : 2,
									"id" : "obj-8",
									"numoutlets" : 1,
									"fontsize" : 12.0,
									"outlettype" : [ "bang" ]
								}

							}
, 							{
								"box" : 								{
									"maxclass" : "newobj",
									"text" : "loadbang",
									"fontname" : "Arial",
									"patching_rect" : [ 263.0, 29.0, 50.0, 18.0 ],
									"numinlets" : 1,
									"id" : "obj-9",
									"numoutlets" : 1,
									"fontsize" : 10.0,
									"outlettype" : [ "bang" ],
									"hidden" : 1
								}

							}
, 							{
								"box" : 								{
									"maxclass" : "button",
									"patching_rect" : [ 148.0, 140.0, 15.0, 15.0 ],
									"numinlets" : 1,
									"id" : "obj-10",
									"numoutlets" : 1,
									"outlettype" : [ "bang" ]
								}

							}
, 							{
								"box" : 								{
									"maxclass" : "newobj",
									"text" : "modal_prog",
									"fontname" : "Arial",
									"patching_rect" : [ 150.0, 200.0, 78.0, 20.0 ],
									"numinlets" : 2,
									"id" : "obj-11",
									"numoutlets" : 1,
									"color" : [ 0.462745, 0.396078, 0.501961, 0.552941 ],
									"fontsize" : 12.0,
									"outlettype" : [ "" ]
								}

							}
, 							{
								"box" : 								{
									"maxclass" : "message",
									"text" : "1 iv 5#5b9 V/5 5 6 V/6 6 7 8 1",
									"fontname" : "Arial",
									"patching_rect" : [ 223.0, 78.0, 176.0, 18.0 ],
									"numinlets" : 2,
									"id" : "obj-12",
									"numoutlets" : 1,
									"fontsize" : 12.0,
									"outlettype" : [ "" ]
								}

							}
, 							{
								"box" : 								{
									"maxclass" : "comment",
									"text" : "modal_triad used here with modal_prog to play chord progressions",
									"linecount" : 3,
									"fontname" : "Arial",
									"patching_rect" : [ 6.0, 27.0, 219.0, 55.0 ],
									"numinlets" : 1,
									"id" : "obj-13",
									"numoutlets" : 0,
									"fontsize" : 14.0
								}

							}
, 							{
								"box" : 								{
									"maxclass" : "comment",
									"text" : "left inlet takes a bang to bang each triad from the progression",
									"linecount" : 3,
									"fontname" : "Arial",
									"patching_rect" : [ 20.0, 207.0, 128.0, 48.0 ],
									"numinlets" : 1,
									"id" : "obj-14",
									"numoutlets" : 0,
									"fontsize" : 12.0
								}

							}
, 							{
								"box" : 								{
									"maxclass" : "comment",
									"text" : "start",
									"fontname" : "Arial",
									"patching_rect" : [ 163.0, 97.0, 188.0, 20.0 ],
									"numinlets" : 1,
									"id" : "obj-15",
									"numoutlets" : 0,
									"fontsize" : 12.0
								}

							}
 ],
						"lines" : [ 							{
								"patchline" : 								{
									"source" : [ "obj-7", 0 ],
									"destination" : [ "obj-8", 0 ],
									"hidden" : 0,
									"midpoints" : [  ]
								}

							}
, 							{
								"patchline" : 								{
									"source" : [ "obj-8", 0 ],
									"destination" : [ "obj-10", 0 ],
									"hidden" : 0,
									"midpoints" : [  ]
								}

							}
, 							{
								"patchline" : 								{
									"source" : [ "obj-10", 0 ],
									"destination" : [ "obj-11", 0 ],
									"hidden" : 0,
									"midpoints" : [ 157.0, 166.0, 159.5, 166.0 ]
								}

							}
, 							{
								"patchline" : 								{
									"source" : [ "obj-9", 0 ],
									"destination" : [ "obj-3", 0 ],
									"hidden" : 1,
									"midpoints" : [ 272.5, 49.0, 218.5, 49.0 ]
								}

							}
, 							{
								"patchline" : 								{
									"source" : [ "obj-1", 0 ],
									"destination" : [ "obj-11", 1 ],
									"hidden" : 0,
									"midpoints" : [ 279.5, 196.0, 218.5, 196.0 ]
								}

							}
, 							{
								"patchline" : 								{
									"source" : [ "obj-2", 0 ],
									"destination" : [ "obj-11", 1 ],
									"hidden" : 0,
									"midpoints" : [ 270.5, 191.0, 218.5, 191.0 ]
								}

							}
, 							{
								"patchline" : 								{
									"source" : [ "obj-4", 0 ],
									"destination" : [ "obj-11", 1 ],
									"hidden" : 0,
									"midpoints" : [ 261.5, 179.0, 218.5, 179.0 ]
								}

							}
, 							{
								"patchline" : 								{
									"source" : [ "obj-5", 0 ],
									"destination" : [ "obj-11", 1 ],
									"hidden" : 0,
									"midpoints" : [ 251.5, 179.0, 218.5, 179.0 ]
								}

							}
, 							{
								"patchline" : 								{
									"source" : [ "obj-6", 0 ],
									"destination" : [ "obj-11", 1 ],
									"hidden" : 0,
									"midpoints" : [ 241.5, 179.0, 218.5, 179.0 ]
								}

							}
, 							{
								"patchline" : 								{
									"source" : [ "obj-12", 0 ],
									"destination" : [ "obj-11", 1 ],
									"hidden" : 0,
									"midpoints" : [ 232.5, 179.0, 218.5, 179.0 ]
								}

							}
, 							{
								"patchline" : 								{
									"source" : [ "obj-3", 0 ],
									"destination" : [ "obj-11", 1 ],
									"hidden" : 0,
									"midpoints" : [  ]
								}

							}
, 							{
								"patchline" : 								{
									"source" : [ "obj-11", 0 ],
									"destination" : [ "obj-18", 0 ],
									"hidden" : 0,
									"midpoints" : [  ]
								}

							}
 ]
					}
,
					"saved_object_attributes" : 					{
						"default_fontname" : "Arial",
						"fontname" : "Arial",
						"default_fontsize" : 12.0,
						"fontface" : 0,
						"fontsize" : 12.0,
						"globalpatchername" : "",
						"default_fontface" : 0
					}

				}

			}
, 			{
				"box" : 				{
					"maxclass" : "umenu",
					"fontname" : "Arial",
					"types" : [  ],
					"patching_rect" : [ 172.0, 208.0, 56.0, 20.0 ],
					"numinlets" : 1,
					"id" : "obj-54",
					"textcolor" : [ 0.0, 0.0, 0.0, 1.0 ],
					"labelclick" : 1,
					"numoutlets" : 3,
					"fontsize" : 12.0,
					"outlettype" : [ "int", "", "" ],
					"items" : [ "C", ",", "C#", ",", "D", ",", "D#", ",", "E", ",", "F", ",", "F#", ",", "G", ",", "G#", ",", "A", ",", "A#", ",", "B" ]
				}

			}
, 			{
				"box" : 				{
					"maxclass" : "umenu",
					"fontname" : "Arial",
					"types" : [  ],
					"patching_rect" : [ 232.0, 208.0, 100.0, 20.0 ],
					"numinlets" : 1,
					"id" : "obj-55",
					"textcolor" : [ 0.0, 0.0, 0.0, 1.0 ],
					"labelclick" : 1,
					"numoutlets" : 3,
					"fontsize" : 12.0,
					"outlettype" : [ "int", "", "" ],
					"items" : [ "ionian", ",", "dorian", ",", "phrygian", ",", "lydian", ",", "mixolydian", ",", "aeolian", ",", "locrian", ",", "harmonic_major", ",", "dorian_b5", ",", "phrygian_b4", ",", "lydian_b3", ",", "mixolydian_b2", ",", "aeolian_b1", ",", "locrian_b7", ",", "harmonic_minor", ",", "locrian_#6", ",", "ionian_#5", ",", "dorian_#4", ",", "phrygian_#3", ",", "lydian_#2", ",", "mixolydian_#1", ",", "melodic_minor", ",", "dorian_b2", ",", "lydian_#5", ",", "lydian_b7", ",", "mixolydian_b6", ",", "locrian_#2", ",", "locrian_b4" ]
				}

			}
, 			{
				"box" : 				{
					"maxclass" : "umenu",
					"fontname" : "Arial",
					"types" : [  ],
					"patching_rect" : [ 801.0, 302.0, 55.0, 20.0 ],
					"numinlets" : 1,
					"id" : "obj-66",
					"textcolor" : [ 0.0, 0.0, 0.0, 1.0 ],
					"labelclick" : 1,
					"numoutlets" : 3,
					"fontsize" : 12.0,
					"outlettype" : [ "int", "", "" ],
					"items" : [ "iv/1", ",", "iv/2", ",", "iv/3", ",", "iv/4", ",", "iv/5", ",", "iv/6", ",", "iv/7" ]
				}

			}
, 			{
				"box" : 				{
					"maxclass" : "newobj",
					"text" : "+ 48",
					"fontname" : "Arial",
					"patching_rect" : [ 253.0, 444.0, 34.0, 20.0 ],
					"numinlets" : 2,
					"id" : "obj-69",
					"numoutlets" : 1,
					"fontsize" : 12.0,
					"outlettype" : [ "int" ],
					"hidden" : 1
				}

			}
, 			{
				"box" : 				{
					"maxclass" : "umenu",
					"fontname" : "Arial",
					"types" : [  ],
					"patching_rect" : [ 740.0, 249.0, 51.0, 20.0 ],
					"numinlets" : 1,
					"id" : "obj-72",
					"textcolor" : [ 0.0, 0.0, 0.0, 1.0 ],
					"labelclick" : 1,
					"numoutlets" : 3,
					"fontsize" : 12.0,
					"outlettype" : [ "int", "", "" ],
					"items" : [ "V/1", ",", "V/2", ",", "V/3", ",", "V/4", ",", "V/5", ",", "V/6", ",", "V/7" ]
				}

			}
, 			{
				"box" : 				{
					"maxclass" : "umenu",
					"fontname" : "Arial",
					"types" : [  ],
					"patching_rect" : [ 740.0, 301.0, 56.0, 20.0 ],
					"numinlets" : 1,
					"id" : "obj-75",
					"textcolor" : [ 0.0, 0.0, 0.0, 1.0 ],
					"labelclick" : 1,
					"numoutlets" : 3,
					"fontsize" : 12.0,
					"outlettype" : [ "int", "", "" ],
					"items" : [ "7/1", ",", "7/2", ",", "7/3", ",", "7/4", ",", "7/5", ",", "7/6", ",", "7/7" ]
				}

			}
, 			{
				"box" : 				{
					"maxclass" : "toggle",
					"patching_rect" : [ 253.0, 398.0, 15.0, 15.0 ],
					"numinlets" : 1,
					"id" : "obj-76",
					"numoutlets" : 1,
					"outlettype" : [ "int" ]
				}

			}
, 			{
				"box" : 				{
					"maxclass" : "newobj",
					"text" : "gate",
					"fontname" : "Arial",
					"patching_rect" : [ 253.0, 419.0, 34.0, 20.0 ],
					"numinlets" : 2,
					"id" : "obj-77",
					"numoutlets" : 1,
					"fontsize" : 12.0,
					"outlettype" : [ "" ],
					"hidden" : 1
				}

			}
, 			{
				"box" : 				{
					"maxclass" : "comment",
					"text" : "13th",
					"fontname" : "Arial",
					"patching_rect" : [ 326.0, 369.0, 35.0, 20.0 ],
					"numinlets" : 1,
					"id" : "obj-78",
					"numoutlets" : 0,
					"fontsize" : 12.0
				}

			}
, 			{
				"box" : 				{
					"maxclass" : "number",
					"format" : 4,
					"fontname" : "Arial",
					"patching_rect" : [ 324.0, 349.0, 39.0, 20.0 ],
					"numinlets" : 1,
					"htextcolor" : [ 0.870588, 0.870588, 0.870588, 1.0 ],
					"triscale" : 0.9,
					"id" : "obj-79",
					"numoutlets" : 2,
					"bgcolor" : [ 0.866667, 0.866667, 0.866667, 1.0 ],
					"triangle" : 0,
					"fontsize" : 12.0,
					"outlettype" : [ "int", "bang" ]
				}

			}
, 			{
				"box" : 				{
					"maxclass" : "comment",
					"text" : "11th",
					"fontname" : "Arial",
					"patching_rect" : [ 279.0, 369.0, 35.0, 20.0 ],
					"numinlets" : 1,
					"id" : "obj-80",
					"numoutlets" : 0,
					"fontsize" : 12.0
				}

			}
, 			{
				"box" : 				{
					"maxclass" : "comment",
					"text" : "9th",
					"fontname" : "Arial",
					"patching_rect" : [ 239.0, 369.0, 34.0, 20.0 ],
					"numinlets" : 1,
					"id" : "obj-81",
					"numoutlets" : 0,
					"fontsize" : 12.0
				}

			}
, 			{
				"box" : 				{
					"maxclass" : "number",
					"format" : 4,
					"fontname" : "Arial",
					"patching_rect" : [ 281.0, 349.0, 42.0, 20.0 ],
					"numinlets" : 1,
					"htextcolor" : [ 0.870588, 0.870588, 0.870588, 1.0 ],
					"triscale" : 0.9,
					"id" : "obj-82",
					"numoutlets" : 2,
					"bgcolor" : [ 0.866667, 0.866667, 0.866667, 1.0 ],
					"triangle" : 0,
					"fontsize" : 12.0,
					"outlettype" : [ "int", "bang" ]
				}

			}
, 			{
				"box" : 				{
					"maxclass" : "number",
					"format" : 4,
					"fontname" : "Arial",
					"patching_rect" : [ 239.0, 349.0, 41.0, 20.0 ],
					"numinlets" : 1,
					"htextcolor" : [ 0.870588, 0.870588, 0.870588, 1.0 ],
					"triscale" : 0.9,
					"id" : "obj-83",
					"numoutlets" : 2,
					"bgcolor" : [ 0.866667, 0.866667, 0.866667, 1.0 ],
					"triangle" : 0,
					"fontsize" : 12.0,
					"outlettype" : [ "int", "bang" ]
				}

			}
, 			{
				"box" : 				{
					"maxclass" : "number",
					"format" : 4,
					"fontname" : "Arial",
					"patching_rect" : [ 198.0, 349.0, 40.0, 20.0 ],
					"numinlets" : 1,
					"htextcolor" : [ 0.870588, 0.870588, 0.870588, 1.0 ],
					"triscale" : 0.9,
					"id" : "obj-84",
					"numoutlets" : 2,
					"bgcolor" : [ 0.866667, 0.866667, 0.866667, 1.0 ],
					"triangle" : 0,
					"fontsize" : 12.0,
					"outlettype" : [ "int", "bang" ]
				}

			}
, 			{
				"box" : 				{
					"maxclass" : "comment",
					"text" : "7th",
					"fontname" : "Arial",
					"patching_rect" : [ 202.0, 369.0, 34.0, 20.0 ],
					"numinlets" : 1,
					"id" : "obj-85",
					"numoutlets" : 0,
					"fontsize" : 12.0
				}

			}
, 			{
				"box" : 				{
					"maxclass" : "toggle",
					"patching_rect" : [ 39.0, 215.0, 15.0, 15.0 ],
					"numinlets" : 1,
					"id" : "obj-87",
					"numoutlets" : 1,
					"outlettype" : [ "int" ]
				}

			}
, 			{
				"box" : 				{
					"maxclass" : "comment",
					"text" : "Chords qualities (major, minor, augmented, diminished) are derived from the chord function of each number. For example, in C major \"4\" will give an F Major chord. In C minor, F will give an F minor chord because of the function of chord 4 in the selected mode. The 7th, 9th, 11th, and 13th are also inferred by the selected mode.",
					"linecount" : 10,
					"fontname" : "Arial",
					"patching_rect" : [ 418.0, 420.0, 206.0, 144.0 ],
					"numinlets" : 1,
					"id" : "obj-88",
					"numoutlets" : 0,
					"fontsize" : 12.0
				}

			}
, 			{
				"box" : 				{
					"maxclass" : "newobj",
					"text" : "noteout",
					"fontname" : "Arial",
					"patching_rect" : [ 52.0, 565.0, 51.0, 20.0 ],
					"numinlets" : 3,
					"id" : "obj-98",
					"numoutlets" : 0,
					"fontsize" : 12.0
				}

			}
, 			{
				"box" : 				{
					"maxclass" : "newobj",
					"text" : "makenote 100 500",
					"fontname" : "Arial",
					"patching_rect" : [ 52.0, 473.0, 129.0, 20.0 ],
					"numinlets" : 3,
					"id" : "obj-99",
					"numoutlets" : 2,
					"fontsize" : 12.0,
					"outlettype" : [ "float", "float" ]
				}

			}
, 			{
				"box" : 				{
					"maxclass" : "newobj",
					"text" : "+ 48",
					"fontname" : "Arial",
					"patching_rect" : [ 52.0, 399.0, 34.0, 20.0 ],
					"numinlets" : 2,
					"id" : "obj-100",
					"numoutlets" : 1,
					"fontsize" : 12.0,
					"outlettype" : [ "int" ]
				}

			}
, 			{
				"box" : 				{
					"maxclass" : "newobj",
					"text" : "loadmess 0",
					"fontname" : "Arial",
					"patching_rect" : [ 172.0, 181.0, 62.0, 18.0 ],
					"numinlets" : 1,
					"id" : "obj-102",
					"numoutlets" : 1,
					"fontsize" : 10.0,
					"outlettype" : [ "" ],
					"hidden" : 1
				}

			}
, 			{
				"box" : 				{
					"maxclass" : "comment",
					"text" : "5th",
					"fontname" : "Arial",
					"patching_rect" : [ 143.0, 369.0, 34.0, 20.0 ],
					"numinlets" : 1,
					"id" : "obj-103",
					"numoutlets" : 0,
					"fontsize" : 12.0
				}

			}
, 			{
				"box" : 				{
					"maxclass" : "comment",
					"text" : "3rd",
					"fontname" : "Arial",
					"patching_rect" : [ 101.0, 369.0, 34.0, 20.0 ],
					"numinlets" : 1,
					"id" : "obj-104",
					"numoutlets" : 0,
					"fontsize" : 12.0
				}

			}
, 			{
				"box" : 				{
					"maxclass" : "number",
					"format" : 4,
					"fontname" : "Arial",
					"patching_rect" : [ 135.0, 349.0, 45.0, 20.0 ],
					"numinlets" : 1,
					"htextcolor" : [ 0.870588, 0.870588, 0.870588, 1.0 ],
					"triscale" : 0.9,
					"id" : "obj-105",
					"numoutlets" : 2,
					"bgcolor" : [ 0.866667, 0.866667, 0.866667, 1.0 ],
					"triangle" : 0,
					"fontsize" : 12.0,
					"outlettype" : [ "int", "bang" ]
				}

			}
, 			{
				"box" : 				{
					"maxclass" : "number",
					"format" : 4,
					"fontname" : "Arial",
					"patching_rect" : [ 94.0, 349.0, 40.0, 20.0 ],
					"numinlets" : 1,
					"htextcolor" : [ 0.870588, 0.870588, 0.870588, 1.0 ],
					"triscale" : 0.9,
					"id" : "obj-106",
					"numoutlets" : 2,
					"bgcolor" : [ 0.866667, 0.866667, 0.866667, 1.0 ],
					"triangle" : 0,
					"fontsize" : 12.0,
					"outlettype" : [ "int", "bang" ]
				}

			}
, 			{
				"box" : 				{
					"maxclass" : "number",
					"format" : 4,
					"fontname" : "Arial",
					"patching_rect" : [ 52.0, 349.0, 41.0, 20.0 ],
					"numinlets" : 1,
					"htextcolor" : [ 0.870588, 0.870588, 0.870588, 1.0 ],
					"triscale" : 0.9,
					"id" : "obj-107",
					"numoutlets" : 2,
					"bgcolor" : [ 0.866667, 0.866667, 0.866667, 1.0 ],
					"triangle" : 0,
					"fontsize" : 12.0,
					"outlettype" : [ "int", "bang" ]
				}

			}
, 			{
				"box" : 				{
					"maxclass" : "modal_change",
					"patching_rect" : [ 151.0, 240.0, 415.0, 50.0 ],
					"numinlets" : 2,
					"fontcolor" : [ 0.0, 0.0, 0.0, 1.0 ],
					"id" : "obj-110",
					"numoutlets" : 9,
					"outlettype" : [ "int", "int", "int", "int", "int", "int", "int", "int", "list" ]
				}

			}
, 			{
				"box" : 				{
					"maxclass" : "newobj",
					"text" : "modal_triad",
					"fontname" : "Arial",
					"patching_rect" : [ 53.0, 325.0, 167.0, 20.0 ],
					"numinlets" : 10,
					"id" : "obj-111",
					"numoutlets" : 7,
					"color" : [ 0.596078, 0.521569, 0.658824, 1.0 ],
					"fontsize" : 12.0,
					"outlettype" : [ "int", "int", "int", "int", "int", "int", "int" ]
				}

			}
, 			{
				"box" : 				{
					"maxclass" : "comment",
					"text" : "Root",
					"fontname" : "Arial",
					"patching_rect" : [ 60.0, 369.0, 34.0, 20.0 ],
					"numinlets" : 1,
					"id" : "obj-112",
					"numoutlets" : 0,
					"fontsize" : 12.0
				}

			}
, 			{
				"box" : 				{
					"maxclass" : "comment",
					"text" : "restrict to pitch classes only",
					"linecount" : 2,
					"fontname" : "Arial",
					"patching_rect" : [ 52.0, 206.0, 90.0, 34.0 ],
					"numinlets" : 1,
					"id" : "obj-114",
					"numoutlets" : 0,
					"fontsize" : 12.0
				}

			}
, 			{
				"box" : 				{
					"maxclass" : "comment",
					"text" : "the modal_triad object connects to the modal_change object to allow you to easily use root position chords. When the toggle is selected (2nd inlet) chords are restricted to pitch classes, thus producing inversions. ",
					"linecount" : 4,
					"fontname" : "Arial",
					"patching_rect" : [ 37.0, 86.0, 335.0, 62.0 ],
					"numinlets" : 1,
					"id" : "obj-119",
					"numoutlets" : 0,
					"fontsize" : 12.0
				}

			}
, 			{
				"box" : 				{
					"maxclass" : "comment",
					"text" : "Checking this toggle will allow the 7th, 9th, 11th, and 13th notes through",
					"linecount" : 4,
					"fontname" : "Arial",
					"patching_rect" : [ 287.0, 402.0, 120.0, 62.0 ],
					"numinlets" : 1,
					"id" : "obj-136",
					"numoutlets" : 0,
					"fontsize" : 12.0
				}

			}
, 			{
				"box" : 				{
					"maxclass" : "panel",
					"mode" : 1,
					"patching_rect" : [ 570.0, 239.0, 163.0, 77.0 ],
					"numinlets" : 1,
					"id" : "obj-137",
					"rounded" : 30,
					"numoutlets" : 0,
					"bgcolor" : [ 0.937255, 0.956863, 1.0, 1.0 ],
					"angle" : 1.16,
					"grad1" : [ 0.894118, 0.917647, 1.0, 1.0 ]
				}

			}
, 			{
				"box" : 				{
					"maxclass" : "panel",
					"mode" : 1,
					"patching_rect" : [ 413.0, 354.0, 212.0, 212.0 ],
					"numinlets" : 1,
					"id" : "obj-171",
					"rounded" : 30,
					"numoutlets" : 0,
					"bgcolor" : [ 0.937255, 0.956863, 1.0, 1.0 ],
					"angle" : 1.16,
					"grad1" : [ 0.894118, 0.917647, 1.0, 1.0 ]
				}

			}
, 			{
				"box" : 				{
					"maxclass" : "panel",
					"mode" : 1,
					"patching_rect" : [ 472.0, 568.0, 167.0, 141.0 ],
					"numinlets" : 1,
					"id" : "obj-172",
					"rounded" : 30,
					"numoutlets" : 0,
					"bgcolor" : [ 0.937255, 0.956863, 1.0, 1.0 ],
					"angle" : 1.16,
					"grad1" : [ 0.894118, 0.917647, 1.0, 1.0 ]
				}

			}
, 			{
				"box" : 				{
					"maxclass" : "panel",
					"mode" : 1,
					"patching_rect" : [ 275.0, 569.0, 187.0, 139.0 ],
					"numinlets" : 1,
					"id" : "obj-173",
					"rounded" : 30,
					"numoutlets" : 0,
					"bgcolor" : [ 0.937255, 0.956863, 1.0, 1.0 ],
					"angle" : 1.16,
					"grad1" : [ 0.894118, 0.917647, 1.0, 1.0 ]
				}

			}
, 			{
				"box" : 				{
					"maxclass" : "panel",
					"mode" : 1,
					"patching_rect" : [ 630.0, 355.0, 243.0, 209.0 ],
					"numinlets" : 1,
					"id" : "obj-174",
					"rounded" : 30,
					"numoutlets" : 0,
					"bgcolor" : [ 0.937255, 0.956863, 1.0, 1.0 ],
					"angle" : 1.16,
					"grad1" : [ 0.894118, 0.917647, 1.0, 1.0 ]
				}

			}
, 			{
				"box" : 				{
					"maxclass" : "panel",
					"mode" : 1,
					"patching_rect" : [ 738.0, 240.0, 138.0, 92.0 ],
					"numinlets" : 1,
					"id" : "obj-175",
					"rounded" : 30,
					"numoutlets" : 0,
					"bgcolor" : [ 0.937255, 0.956863, 1.0, 1.0 ],
					"angle" : 1.16,
					"grad1" : [ 0.894118, 0.917647, 1.0, 1.0 ]
				}

			}
, 			{
				"box" : 				{
					"maxclass" : "comment",
					"text" : "chord in first inlet",
					"linecount" : 2,
					"fontname" : "Arial",
					"patching_rect" : [ 2.0, 312.0, 55.0, 34.0 ],
					"numinlets" : 1,
					"id" : "obj-9",
					"numoutlets" : 0,
					"fontsize" : 12.0
				}

			}
 ],
		"lines" : [ 			{
				"patchline" : 				{
					"source" : [ "obj-111", 0 ],
					"destination" : [ "obj-107", 0 ],
					"hidden" : 0,
					"midpoints" : [ 62.5, 345.0, 61.5, 345.0 ]
				}

			}
, 			{
				"patchline" : 				{
					"source" : [ "obj-105", 0 ],
					"destination" : [ "obj-100", 0 ],
					"hidden" : 0,
					"midpoints" : [ 144.5, 389.0, 61.5, 389.0 ]
				}

			}
, 			{
				"patchline" : 				{
					"source" : [ "obj-106", 0 ],
					"destination" : [ "obj-100", 0 ],
					"hidden" : 0,
					"midpoints" : [ 103.5, 389.0, 61.5, 389.0 ]
				}

			}
, 			{
				"patchline" : 				{
					"source" : [ "obj-107", 0 ],
					"destination" : [ "obj-100", 0 ],
					"hidden" : 0,
					"midpoints" : [  ]
				}

			}
, 			{
				"patchline" : 				{
					"source" : [ "obj-87", 0 ],
					"destination" : [ "obj-111", 1 ],
					"hidden" : 0,
					"midpoints" : [ 48.0, 302.0, 78.944443, 302.0 ]
				}

			}
, 			{
				"patchline" : 				{
					"source" : [ "obj-102", 0 ],
					"destination" : [ "obj-54", 0 ],
					"hidden" : 1,
					"midpoints" : [ 181.5, 199.0, 181.5, 199.0 ]
				}

			}
, 			{
				"patchline" : 				{
					"source" : [ "obj-54", 1 ],
					"destination" : [ "obj-110", 0 ],
					"hidden" : 0,
					"midpoints" : [ 200.0, 232.5, 160.5, 232.5 ]
				}

			}
, 			{
				"patchline" : 				{
					"source" : [ "obj-110", 0 ],
					"destination" : [ "obj-111", 2 ],
					"hidden" : 0,
					"midpoints" : [ 160.5, 305.0, 95.388885, 305.0 ]
				}

			}
, 			{
				"patchline" : 				{
					"source" : [ "obj-111", 1 ],
					"destination" : [ "obj-106", 0 ],
					"hidden" : 0,
					"midpoints" : [ 87.166664, 345.0, 103.5, 345.0 ]
				}

			}
, 			{
				"patchline" : 				{
					"source" : [ "obj-110", 1 ],
					"destination" : [ "obj-111", 3 ],
					"hidden" : 0,
					"midpoints" : [ 210.0, 305.0, 111.833336, 305.0 ]
				}

			}
, 			{
				"patchline" : 				{
					"source" : [ "obj-110", 2 ],
					"destination" : [ "obj-111", 4 ],
					"hidden" : 0,
					"midpoints" : [ 259.5, 305.0, 128.277771, 305.0 ]
				}

			}
, 			{
				"patchline" : 				{
					"source" : [ "obj-110", 3 ],
					"destination" : [ "obj-111", 5 ],
					"hidden" : 0,
					"midpoints" : [ 309.0, 305.0, 144.722229, 305.0 ]
				}

			}
, 			{
				"patchline" : 				{
					"source" : [ "obj-111", 2 ],
					"destination" : [ "obj-105", 0 ],
					"hidden" : 0,
					"midpoints" : [ 111.833336, 345.0, 144.5, 345.0 ]
				}

			}
, 			{
				"patchline" : 				{
					"source" : [ "obj-110", 4 ],
					"destination" : [ "obj-111", 6 ],
					"hidden" : 0,
					"midpoints" : [ 358.5, 305.0, 161.166672, 305.0 ]
				}

			}
, 			{
				"patchline" : 				{
					"source" : [ "obj-102", 0 ],
					"destination" : [ "obj-55", 0 ],
					"hidden" : 1,
					"midpoints" : [ 181.5, 203.5, 241.5, 203.5 ]
				}

			}
, 			{
				"patchline" : 				{
					"source" : [ "obj-110", 5 ],
					"destination" : [ "obj-111", 7 ],
					"hidden" : 0,
					"midpoints" : [ 408.0, 305.0, 177.611115, 305.0 ]
				}

			}
, 			{
				"patchline" : 				{
					"source" : [ "obj-110", 6 ],
					"destination" : [ "obj-111", 8 ],
					"hidden" : 0,
					"midpoints" : [ 457.5, 305.0, 194.055557, 305.0 ]
				}

			}
, 			{
				"patchline" : 				{
					"source" : [ "obj-110", 7 ],
					"destination" : [ "obj-111", 9 ],
					"hidden" : 0,
					"midpoints" : [ 507.0, 305.0, 210.5, 305.0 ]
				}

			}
, 			{
				"patchline" : 				{
					"source" : [ "obj-111", 3 ],
					"destination" : [ "obj-84", 0 ],
					"hidden" : 0,
					"midpoints" : [ 136.5, 345.0, 207.5, 345.0 ]
				}

			}
, 			{
				"patchline" : 				{
					"source" : [ "obj-55", 1 ],
					"destination" : [ "obj-110", 1 ],
					"hidden" : 0,
					"midpoints" : [ 282.0, 234.5, 556.5, 234.5 ]
				}

			}
, 			{
				"patchline" : 				{
					"source" : [ "obj-111", 4 ],
					"destination" : [ "obj-83", 0 ],
					"hidden" : 0,
					"midpoints" : [ 161.166672, 345.0, 248.5, 345.0 ]
				}

			}
, 			{
				"patchline" : 				{
					"source" : [ "obj-111", 5 ],
					"destination" : [ "obj-82", 0 ],
					"hidden" : 0,
					"midpoints" : [ 185.833328, 345.0, 290.5, 345.0 ]
				}

			}
, 			{
				"patchline" : 				{
					"source" : [ "obj-111", 6 ],
					"destination" : [ "obj-79", 0 ],
					"hidden" : 0,
					"midpoints" : [ 210.5, 345.0, 333.5, 345.0 ]
				}

			}
, 			{
				"patchline" : 				{
					"source" : [ "obj-45", 1 ],
					"destination" : [ "obj-141", 0 ],
					"hidden" : 1,
					"midpoints" : [  ]
				}

			}
, 			{
				"patchline" : 				{
					"source" : [ "obj-43", 1 ],
					"destination" : [ "obj-141", 0 ],
					"hidden" : 1,
					"midpoints" : [  ]
				}

			}
, 			{
				"patchline" : 				{
					"source" : [ "obj-20", 1 ],
					"destination" : [ "obj-141", 0 ],
					"hidden" : 1,
					"midpoints" : [  ]
				}

			}
, 			{
				"patchline" : 				{
					"source" : [ "obj-17", 1 ],
					"destination" : [ "obj-141", 0 ],
					"hidden" : 1,
					"midpoints" : [  ]
				}

			}
, 			{
				"patchline" : 				{
					"source" : [ "obj-61", 1 ],
					"destination" : [ "obj-142", 0 ],
					"hidden" : 1,
					"midpoints" : [  ]
				}

			}
, 			{
				"patchline" : 				{
					"source" : [ "obj-62", 1 ],
					"destination" : [ "obj-142", 0 ],
					"hidden" : 1,
					"midpoints" : [  ]
				}

			}
, 			{
				"patchline" : 				{
					"source" : [ "obj-63", 1 ],
					"destination" : [ "obj-142", 0 ],
					"hidden" : 1,
					"midpoints" : [  ]
				}

			}
, 			{
				"patchline" : 				{
					"source" : [ "obj-64", 1 ],
					"destination" : [ "obj-142", 0 ],
					"hidden" : 1,
					"midpoints" : [  ]
				}

			}
, 			{
				"patchline" : 				{
					"source" : [ "obj-58", 1 ],
					"destination" : [ "obj-144", 0 ],
					"hidden" : 1,
					"midpoints" : [  ]
				}

			}
, 			{
				"patchline" : 				{
					"source" : [ "obj-59", 1 ],
					"destination" : [ "obj-144", 0 ],
					"hidden" : 1,
					"midpoints" : [  ]
				}

			}
, 			{
				"patchline" : 				{
					"source" : [ "obj-57", 1 ],
					"destination" : [ "obj-144", 0 ],
					"hidden" : 1,
					"midpoints" : [  ]
				}

			}
, 			{
				"patchline" : 				{
					"source" : [ "obj-56", 1 ],
					"destination" : [ "obj-144", 0 ],
					"hidden" : 1,
					"midpoints" : [  ]
				}

			}
, 			{
				"patchline" : 				{
					"source" : [ "obj-97", 0 ],
					"destination" : [ "obj-145", 0 ],
					"hidden" : 1,
					"midpoints" : [  ]
				}

			}
, 			{
				"patchline" : 				{
					"source" : [ "obj-96", 0 ],
					"destination" : [ "obj-145", 0 ],
					"hidden" : 1,
					"midpoints" : [  ]
				}

			}
, 			{
				"patchline" : 				{
					"source" : [ "obj-95", 0 ],
					"destination" : [ "obj-145", 0 ],
					"hidden" : 1,
					"midpoints" : [  ]
				}

			}
, 			{
				"patchline" : 				{
					"source" : [ "obj-91", 0 ],
					"destination" : [ "obj-145", 0 ],
					"hidden" : 1,
					"midpoints" : [  ]
				}

			}
, 			{
				"patchline" : 				{
					"source" : [ "obj-94", 0 ],
					"destination" : [ "obj-145", 0 ],
					"hidden" : 1,
					"midpoints" : [  ]
				}

			}
, 			{
				"patchline" : 				{
					"source" : [ "obj-93", 0 ],
					"destination" : [ "obj-145", 0 ],
					"hidden" : 1,
					"midpoints" : [  ]
				}

			}
, 			{
				"patchline" : 				{
					"source" : [ "obj-92", 0 ],
					"destination" : [ "obj-145", 0 ],
					"hidden" : 1,
					"midpoints" : [  ]
				}

			}
, 			{
				"patchline" : 				{
					"source" : [ "obj-86", 0 ],
					"destination" : [ "obj-145", 0 ],
					"hidden" : 1,
					"midpoints" : [  ]
				}

			}
, 			{
				"patchline" : 				{
					"source" : [ "obj-108", 0 ],
					"destination" : [ "obj-145", 0 ],
					"hidden" : 1,
					"midpoints" : [  ]
				}

			}
, 			{
				"patchline" : 				{
					"source" : [ "obj-66", 1 ],
					"destination" : [ "obj-146", 0 ],
					"hidden" : 1,
					"midpoints" : [  ]
				}

			}
, 			{
				"patchline" : 				{
					"source" : [ "obj-72", 1 ],
					"destination" : [ "obj-146", 0 ],
					"hidden" : 1,
					"midpoints" : [  ]
				}

			}
, 			{
				"patchline" : 				{
					"source" : [ "obj-75", 1 ],
					"destination" : [ "obj-146", 0 ],
					"hidden" : 1,
					"midpoints" : [  ]
				}

			}
, 			{
				"patchline" : 				{
					"source" : [ "obj-165", 0 ],
					"destination" : [ "obj-164", 0 ],
					"hidden" : 1,
					"midpoints" : [  ]
				}

			}
, 			{
				"patchline" : 				{
					"source" : [ "obj-166", 0 ],
					"destination" : [ "obj-164", 0 ],
					"hidden" : 1,
					"midpoints" : [  ]
				}

			}
, 			{
				"patchline" : 				{
					"source" : [ "obj-168", 0 ],
					"destination" : [ "obj-164", 0 ],
					"hidden" : 1,
					"midpoints" : [  ]
				}

			}
, 			{
				"patchline" : 				{
					"source" : [ "obj-169", 0 ],
					"destination" : [ "obj-164", 0 ],
					"hidden" : 1,
					"midpoints" : [  ]
				}

			}
, 			{
				"patchline" : 				{
					"source" : [ "obj-3", 1 ],
					"destination" : [ "obj-146", 0 ],
					"hidden" : 1,
					"midpoints" : [  ]
				}

			}
, 			{
				"patchline" : 				{
					"source" : [ "obj-2", 1 ],
					"destination" : [ "obj-146", 0 ],
					"hidden" : 1,
					"midpoints" : [  ]
				}

			}
, 			{
				"patchline" : 				{
					"source" : [ "obj-82", 0 ],
					"destination" : [ "obj-77", 1 ],
					"hidden" : 1,
					"midpoints" : [ 290.5, 391.0, 277.5, 391.0 ]
				}

			}
, 			{
				"patchline" : 				{
					"source" : [ "obj-83", 0 ],
					"destination" : [ "obj-77", 1 ],
					"hidden" : 1,
					"midpoints" : [ 248.5, 391.0, 277.5, 391.0 ]
				}

			}
, 			{
				"patchline" : 				{
					"source" : [ "obj-84", 0 ],
					"destination" : [ "obj-77", 1 ],
					"hidden" : 1,
					"midpoints" : [ 207.5, 390.0, 277.5, 390.0 ]
				}

			}
, 			{
				"patchline" : 				{
					"source" : [ "obj-79", 0 ],
					"destination" : [ "obj-77", 1 ],
					"hidden" : 1,
					"midpoints" : [ 333.5, 390.5, 277.5, 390.5 ]
				}

			}
, 			{
				"patchline" : 				{
					"source" : [ "obj-77", 0 ],
					"destination" : [ "obj-69", 0 ],
					"hidden" : 1,
					"midpoints" : [ 262.5, 440.0, 262.5, 440.0 ]
				}

			}
, 			{
				"patchline" : 				{
					"source" : [ "obj-76", 0 ],
					"destination" : [ "obj-77", 0 ],
					"hidden" : 1,
					"midpoints" : [ 262.0, 415.5, 262.5, 415.5 ]
				}

			}
, 			{
				"patchline" : 				{
					"source" : [ "obj-140", 0 ],
					"destination" : [ "obj-111", 0 ],
					"hidden" : 0,
					"midpoints" : [  ]
				}

			}
, 			{
				"patchline" : 				{
					"source" : [ "obj-100", 0 ],
					"destination" : [ "obj-99", 0 ],
					"hidden" : 0,
					"midpoints" : [  ]
				}

			}
, 			{
				"patchline" : 				{
					"source" : [ "obj-69", 0 ],
					"destination" : [ "obj-99", 0 ],
					"hidden" : 1,
					"midpoints" : [ 262.5, 468.0, 260.0, 468.0, 61.5, 468.0 ]
				}

			}
, 			{
				"patchline" : 				{
					"source" : [ "obj-99", 0 ],
					"destination" : [ "obj-101", 0 ],
					"hidden" : 0,
					"midpoints" : [  ]
				}

			}
, 			{
				"patchline" : 				{
					"source" : [ "obj-99", 1 ],
					"destination" : [ "obj-101", 1 ],
					"hidden" : 0,
					"midpoints" : [ 171.5, 494.5, 378.5, 494.5 ]
				}

			}
, 			{
				"patchline" : 				{
					"source" : [ "obj-101", 1 ],
					"destination" : [ "obj-98", 1 ],
					"hidden" : 0,
					"midpoints" : [ 378.5, 556.0, 77.5, 556.0 ]
				}

			}
, 			{
				"patchline" : 				{
					"source" : [ "obj-101", 0 ],
					"destination" : [ "obj-98", 0 ],
					"hidden" : 0,
					"midpoints" : [  ]
				}

			}
 ]
	}

}
